<?xml version="1.0" encoding="UTF-8"?>
<svg id="Layer_1" xmlns="http://www.w3.org/2000/svg" version="1.1" viewBox="0 0 289 294.75">
  <!-- Generator: Adobe Illustrator 30.3.0, SVG Export Plug-In . SVG Version: 2.1.3 Build 182)  -->
  <path d="M114.47,0c-4.78,3.46-13.64,10.88-14.32,15.31,1.47,1.99,4.07,3.75,5.95,4.83h16.74c2.32-1.74,4.69-2.75,5.95-4.83-2.84-6.91-8.55-11.26-14.32-15.3h0ZM108.86,31.39l-7.19,28.77h25.61l-7.19-28.77h-11.23ZM174.53,45.47c-10.02,13.36-22.73,26.18-33.37,37.88-6.19,6.81-11.66,13.23-15.43,18.88-3.77,5.66-5.62,10.48-5.62,13.61,0,1.31.11,2.57.31,3.78,28.21-17.75,50.98-44.06,60.8-65.77-2.31-2.77-4.56-5.56-6.68-8.39h-.01ZM189.26,63.12c-12.05,23.73-35.47,49.28-64.45,67.02,2.9,4.11,6.52,7.01,8.94,8.66,32.27-20.09,53.22-42.39,64.98-65.37-3.14-3.37-6.33-6.81-9.48-10.32h.01ZM99.6,71.43l-4.96,54.55,4.5,6.75c8.9,13.35,19.97,22.61,29.72,31.07v-14.72c-6.29-4.03-20.02-14.91-20.02-33.24,0-6.88,3.15-13.31,7.51-19.86,3.71-5.56,8.45-11.25,13.67-17.1l-.68-7.46h-29.75.01ZM206.83,82.18c-11.39,20.63-29.42,40.23-54.83,58.05h19.62c23.53-16.73,37.5-31.85,42.65-49.68-2.67-3.09-4.99-5.71-7.44-8.37h0ZM244.59,85.38c-3.51,4.52-7.19,8.55-10.86,12.21.55.87,1.09,1.74,1.59,2.61h22.79c-4.54-4.34-9.16-9.2-13.52-14.82h0ZM222.5,101.04c-6.02,14.37-16.98,26.9-32.19,39.2h22.7c2.56-1.45,15.94-9.63,15.94-24.4,0-3.13-1.85-7.96-5.62-13.61-.26-.39-.55-.79-.83-1.19h0ZM38.78,110.12c-4.6,9.8-8.1,18.24-10.21,25.97-3.2,11.73-3.5,21.85-.02,34.18h10.22v-60.14h.01ZM50.04,110.12v60.14h2.78c3.18-2.96,6.19-5.57,9.25-8.21,1.37-8.86.64-16.94-1.82-25.96-2.11-7.73-5.61-16.17-10.21-25.97h0ZM239.78,111.46c.55,2.98.5,5.95.16,8.76h40.4c-3.4-3.33-6.36-5.91-9.65-8.76h-30.91ZM23.31,117.12C14.68,125.43.51,135.65,0,145.87c0,14.77,13.38,22.95,15.94,24.4h1.01c-3.08-12.94-2.58-24.85.77-37.14,1.42-5.19,3.31-10.47,5.6-16.01h-.01ZM65.52,117.12c2.29,5.54,4.18,10.81,5.6,16.01,1.67,6.12,2.63,12.15,2.79,18.26,4.26-4.11,8.47-8.63,12.38-13.77-5.96-8.45-13.61-14.22-20.77-20.5h0ZM236.52,131.48c-1.68,3.37-3.77,6.28-5.96,8.76h58.03c.26-1.39.41-2.85.41-4.38s-.23-2.97-.7-4.38h-51.78ZM94.46,145.44c-9.57,12.31-20.37,21.05-28.82,28.44-4.93,4.31-9.03,8.19-11.69,11.78s-3.9,6.66-3.9,10.25c0,14.77,13.38,22.95,15.94,24.4h55.76c1.19-14.54,2.74-27.95,7.12-41.35-1.7-1.63-3.57-3.32-5.58-5.08-8.45-7.39-19.25-16.12-28.82-28.44h0ZM140.12,151.5v28.77h68.81v-28.77h-68.81ZM220.19,151.5v8.76h52.87c1.44-.81,6.27-3.74,10.24-8.76h-63.11ZM220.19,171.51v12.34c1.67,2.38,2.39,5.05,3.23,8.23,1.09,4.12,1.95,9.11,2.68,14.81,1.72,15.68,2.6,29.78,3.12,43.44h39.77v-78.82h-48.8ZM20.02,181.52v78.82h38.78v-31.19c-6.29-4.03-20.02-14.91-20.02-33.24,0-5.31,1.73-10.13,4.37-14.39h-23.13,0ZM137.84,191.53c-2.27,5.9-3.12,13.16-3.78,18.77h81.11c-1.22-6.37-1.67-13.63-3.88-18.77h-73.45ZM132.94,221.56c-.67,8.03-1.19,16.9-1.58,25.89-.44,10.04-.71,19.93-.89,29.02l16.47-54.91h-14ZM161.38,221.56l13.15,65.75,13.15-65.75h-26.3ZM202.11,221.56l16.57,55.22c-.16-9.19-.41-19.2-.83-29.37-.38-8.98-.88-17.83-1.55-25.85h-14.19ZM70.06,231.56v28.77h48.79v-28.77h-48.79ZM153.42,239.17l-16.67,55.58h27.79l-11.12-55.58ZM195.64,239.17l-11.12,55.58h27.79l-16.67-55.58ZM229.59,261.59c.35,12.32.49,23.64.55,33.15h56.02c-3.04-11.4-6.57-23.86-14.17-33.15h-42.4,0ZM16.77,271.6c-6.93,6.94-12.88,13.23-15.42,23.15h42.63c2.5-7.92,5.69-16.5,9.42-23.15H16.77ZM67.11,271.6c-5.09,7.93-8.98,15.65-11.33,23.15h63.18c.07-6.95.17-14.72.36-23.15h-52.21Z"/>
</svg>