<?xml version="1.0" encoding="UTF-8"?>
<svg id="Layer_1" xmlns="http://www.w3.org/2000/svg" version="1.1" viewBox="0 0 270.15 284.96">
  <!-- Generator: Adobe Illustrator 30.3.0, SVG Export Plug-In . SVG Version: 2.1.3 Build 182)  -->
  <path d="M180.16.02c-36.34.38-67.62,31.39-65.58,71.67l8.54-8.06,7.7,8.18-14.32,13.6c1.32,5.53,3.25,11.19,5.9,16.97-32.25-13.72-40.31-24.12-67.32-56.61-5.66-6.76-11.38-9.31-16.54-9.7-.64-.06-1.29-.06-1.92-.06-4.43.14-8.5,1.94-11.64,4.83-3.59,3.31-5.84,8-5.88,13.05-.06,5.05,2.02,10.83,8.15,16.66,14.76,14.14,31.73,28.4,44.61,42.83,7.04,7.88,13.05,15.94,16.6,24.24,9.63,2.53,19.25,5.11,28.88,7.64l.9,3.01c2.59,8.54,1.44,19.07-7.34,27.55l-2.35,2.23c-7.34-1.99-14.74-3.91-22.14-5.9-2.71,4.87-6.2,9.02-9.99,12.63-6.86,6.56-14.62,11.67-21.78,17.45-14.23,11.49-26.12,24.24-25.01,55.47.69,19.37,15.29,27.55,27.66,26.77,6.2-.36,11.43-2.95,14.44-7.58,3.01-4.69,4.33-11.97.54-23.16-3.31-9.99,1.74-20.15,9.2-27.19,7.52-7.04,18.29-11.67,29.24-9.2,6.02,1.32,9.75,6.44,11.67,11.49s2.89,10.71,4.15,16.54c2.47,11.67,5.72,23.28,15.16,30.08,18.29,13.05,36.88,10.95,45.06,3.97,4.09-3.49,5.84-7.7,4.81-13.3-1.02-5.53-5.47-12.93-15.82-20.76-11.85-8.96-14.44-25.03-13.36-40.37,1.14-15.34,5.96-30.68,12.21-40.79,3.79-6.08,10.41-8.24,17.69-10.11,7.22-1.93,15.64-3.37,24.37-5.59,17.39-4.45,35.19-11.61,45.9-30.44,5.23-9.26,6.5-16.85,5.59-22.32-.84-5.47-3.61-9.08-7.52-11.25-7.82-4.27-21.54-2.53-32.85,12.63-8.24,10.95-23.76,16-41.63,17.21-5.41.36-11.13.36-16.91-.06,1.44-.9,2.95-1.86,4.45-2.89l.06-18.77h11.19v9.57c18.95-17.87,33.15-44.76,31.95-72.1,10.89,7.15,18.41,16.32,25.27,28.72,2.05-9.93-.12-19.59-4.87-28.87,9.75,4.03,17.21,10.29,24.91,16.3-2.89-12.07-8.84-19.93-17.75-26.01,10.05.81,15.7,3.15,24.55,7.66-6.62-15-33.21-30.29-59.14-21.18C199.8,2.77,189.4,0,180.13,0h0l.03.02ZM159.34,32.71c6.62,0,11.91,5.34,11.91,11.92s-5.29,11.96-11.91,11.96-11.91-5.35-11.91-11.96,5.35-11.92,11.91-11.92ZM186.23,52.61c6.56,0,11.91,5.35,11.91,11.91s-5.35,11.91-11.91,11.91-11.91-5.29-11.91-11.91c1.38-6.8,3.91-11.73,11.91-11.91ZM138.04,77.1l9.02,6.8-12.63,16.66-8.96-6.8c4.21-5.53,8.42-11.13,12.57-16.66h0ZM154.95,87.21l10.71,3.43-6.08,19.01-10.71-3.43c1.99-6.32,4.09-12.69,6.08-19.01ZM11.11,111.09C.93,123.24-.8,137.86.28,154.47l18.28-10.29,1.99-1.08,2.2.54,82.44,21.84c3.31-3.91,3.73-7.16,3.01-10.95l-82.41-21.9-2.22-.54-1.17-1.99c-3.75-6.38-7.54-12.69-11.3-19.01h.01ZM181.9,174.38c-1.5,3.13-2.95,6.74-4.15,10.71l57.69,15.28c11.55,1.44,23.16,2.23,34.71,3.55l-31.1-13.72c-20.51-5.9-40.43-11.37-57.15-15.82h0Z"/>
</svg>