<?xml version="1.0" encoding="UTF-8"?>
<svg id="Layer_1" xmlns="http://www.w3.org/2000/svg" version="1.1" viewBox="0 0 317 320.28">
  <!-- Generator: Adobe Illustrator 30.3.0, SVG Export Plug-In . SVG Version: 2.1.3 Build 182)  -->
  <path d="M158.5,0C151.63,0,144.76,1.64,140.09,4.91c-1.48,1.04-4.8,7.53-6.32,13.8-.47,1.95-.7,3.48-.99,5.16h51.46c-.3-1.67-.52-3.21-.99-5.16-1.53-6.27-4.84-12.76-6.32-13.8-4.68-3.28-11.55-4.91-18.41-4.91h-.02ZM37.74,2.76L2.95,89.74h65.74l1.92-4.8S37.74,2.76,37.74,2.76ZM279.26,2.76l-32.87,82.18,1.92,4.8h65.74S279.26,2.76,279.26,2.76ZM142.72,36.22v9.61h31.56v-9.61h-31.56ZM129.38,58.18l-4.8,9.61h67.84l-4.8-9.61h-58.24,0ZM85.83,80.13l-17.02,42.54h179.37l-17.02-42.54H85.83ZM0,102.09v218.19h37.74v-26.76s2.8-21.96,10.98-21.96,10.98,21.96,10.98,21.96v26.76h54.89v-26.76c0-21.96,29.34-54.89,43.91-54.89,16.3,0,43.91,32.94,43.91,54.89v26.76h54.89v-26.76s2.8-21.96,10.98-21.96,10.98,21.96,10.98,21.96v26.76h37.74V102.09h-63.75l13.17,32.94h-13.92v125.56h-12.35v-92.63h-31.56v15.78h-12.35v-15.78h-31.56v15.78h-12.35v-15.78h-31.56v15.78h-12.35v-15.78h-31.56v92.63h-12.35v-125.56h-13.92l13.17-32.94H0ZM9.61,117.87h12.35v21.96h-12.35v-21.96ZM295.04,117.87h12.35v21.96h-12.35v-21.96ZM76.85,135.02v20.58h31.56v-4.8h12.35v4.8h31.56v-4.8h12.35v4.8h31.56v-4.8h12.35v4.8h31.56v-20.58H76.84h0ZM42.54,183.74h12.35v21.96h-12.35v-21.96ZM262.11,183.74h12.35v21.96h-12.35v-21.96ZM158.5,199.19l1.95.65s16.96,5.63,34.09,15.62c8.57,5,17.25,11.08,24.07,18.47s11.93,16.37,11.93,26.66h-12.35c0-6.18-3.12-12.29-8.65-18.28s-13.32-11.57-21.22-16.18c-14.26-8.32-27.14-12.89-29.82-13.82-2.68.93-15.57,5.5-29.82,13.82-7.9,4.61-15.68,10.19-21.22,16.18-5.53,5.99-8.65,12.11-8.65,18.28h-12.35c0-10.29,5.11-19.28,11.93-26.66,6.82-7.39,15.5-13.47,24.07-18.47,17.13-9.99,34.09-15.62,34.09-15.62l1.95-.65h0Z"/>
</svg>