<?xml version="1.0" encoding="UTF-8"?>
<svg id="Layer_1" xmlns="http://www.w3.org/2000/svg" version="1.1" viewBox="0 0 1202.68 1096.74">
  <!-- Generator: Adobe Illustrator 30.3.0, SVG Export Plug-In . SVG Version: 2.1.3 Build 182)  -->
  <path d="M270.8,1010.5c-3.31-2.99-6.98-8.77-9.88-8.41-7.72.96-17.65-.36-21.51,9.39-4.4,11.1-8.1,22.47-12.4,34.59-14.55,2.99-30.88,6.35-47.34,9.74,2.46-20.45,20.25-50.24,54.24-56.14-6-9.81-6.37-9.57-16.32-7.11-21.91,5.39-31.11,22.04-37.02,41.39-1.47,4.78-3.56,6.61-8.21,7.41-9.65,1.67-19.2,3.94-28.78,5.97-1.17-19.53,18.5-42.37,46.23-54.54-4.02-1.23-8.04-2.45-13.48-4.1,8.04-3.25,15.43-6.31,22.87-9.2,4.06-1.59,8.27-2.83,12.33-4.43,1.58-.63,3.83-1.5,4.28-2.78,3.34-9.63,12.82-10.27,20.14-13.81,5.1-2.46,9-5.37,12-10.34,5.2-8.61,11.09-16.82,17.01-24.96,1.73-2.37,4.54-3.94,8.79-5.54,0,2.59.88,5.6-.15,7.69-5.4,11.01-11.17,21.85-17.12,32.59-1.03,1.86-3.36,3.32-5.41,4.25-6.31,2.86-12.78,5.37-19.03,9.09,9.16.96,18.31,1.96,27.49,2.83,1.24.12,2.61-.21,3.79-.67,14.37-5.59,28.71-11.25,45.05-17.67h-36.86c5.77-9.1,10.42-16.95,15.63-24.4,2.52-3.6,2.53-6.31.33-10.05-12.57-21.33-25.11-42.69-37.21-64.29-4.13-7.37-8.2-14.36-16.15-18.16-.97-.46-1.63-1.55-2.6-1.99-18.26-8.17-22.55-23.99-26.65-42.08-5.81-25.63,1.54-48.33,9.08-71.59.13-.41.29-.86.56-1.19,12.58-14.95,16.11-33.82,21.75-51.64,4.24-13.4,13.91-22.48,23.06-32.45-2,5.71-4.59,11.3-5.91,17.16-4.03,17.87-7.64,35.84-11.24,53.81-.41,2.05-.42,4.63.48,6.42,6.39,12.82,13.07,25.51,19.66,38.23.78-.29,1.56-.58,2.34-.86-.97-7.15-2-14.29-2.89-21.45-5.29-42.56,3.73-80.91,33.23-113.29,11.78-12.93,23.39-26.04,36.25-40.37,15.71,85.78,53.48,155.74,128.98,200.85.62-.44,1.23-.88,1.85-1.31-6.74-8.46-13.21-17.16-20.28-25.34-25.39-29.39-50.04-59.33-68.37-93.82-5.63-10.59-10.47-21.6-14.77-33.07,6.41,4.29,12.82,8.59,20.52,13.77-11.29-17.39-21.55-33.21-32.51-50.1,11.03,4.71,20.08,8.58,29.13,12.44-11.71-17.77-28.48-30.95-37.23-50.36,7.8,2.14,15.51,4.25,24.27,6.65-5.39-6.11-10.39-11.11-14.61-16.69-10.53-13.96-9.88-16.35,5.45-24.21,3.48-1.78,6.96-3.53,10.92-5.54-21.13-10.95-34.12,2.99-47.96,14.22-.67-15.21,8.97-41.53,27.27-46.61,2.3-.64,4.02-3.41,6.01-5.2-2.34-1.23-4.61-2.63-7.04-3.66-8.36-3.56-15.14-.02-21.72,4.86-18.42,13.7-19.01,15.83-11.66,37.22,5.23,15.21,10.02,30.57,15.08,46.1-14.43,3.92-27.54,4.11-40.97-.08-23.62-7.37-47.29-14.7-71.25-20.8-16.59-4.22-33.5-3.92-50.51.4-8.6,2.19-18.3,2.1-27.14.74-8.53-1.32-14.12.99-20.66,6.11-8.16,6.4-10.76,12.75-6.25,22.16,2.6,5.42,4.56,11.14,6.57,16.11-20.78-2.31-33.4-16.53-42.5-34.99-2.16-4.39,3.23-15.72,8.06-15.77,11.89-.12,16.78-8.73,22.68-16.61-17.74-5.28-34.04,2.71-41.53,20.23-.93,2.19-1.64,4.49-4.12,7.12-1.81-7.99-5.54-16.14-4.9-23.93.73-8.86,5-17.56,8.54-25.99.86-2.04,4.78-3.31,7.53-3.96,9.7-2.31,19.49-4.21,29.26-6.26.2-.74.4-1.47.6-2.22-6.21-4.17-12.3-8.54-18.73-12.34-1.31-.78-4.23.1-5.87,1.09-8.54,5.21-16.9,10.71-25.5,16.21.67-13.72,5.31-26.6,11.83-38.9.61-1.15,2.31-1.91,3.67-2.44,4.07-1.58,8.54-2.38,12.28-4.49,11.22-6.33,20.44-3.77,29.19,4.86,11.08,10.92,23.86,13.48,38.59,5.39.13-2.74.59-6.42.44-10.07-.41-9.32-1.35-10.88-10.64-12.99-9.53-2.15-19.28-3.34-30.58-5.23,6.08-3.96,11.37-8.42,17.44-11.08,7.57-3.32,15.77-5.24,23.77-7.52,1.45-.41,3.31.08,4.82.62,1.4.5,2.57,1.62,3.85,2.48,16.69,11.15,26.88,26.39,30.59,45.7.4,2.04,2.67,3.82,4.31,5.49.69.7,2.05.7,3.03,1.18,15.22,7.57,29.32,4.94,43.06-4.13,5.09-3.36,11.03-5.39,16.21-8.61,1.59-.99,2.97-4.1,2.69-5.97-.71-4.72-2.13-9.41-3.8-13.9-2.87-7.71-5.12-15.38-2.48-23.61,4.21-13.1-1.03-25.4-3-38.02-2.91-18.72-.75-36.48,10.63-52.45,12.2-17.13,10.6-16.82,5.16-37.21-4.36-16.37-17.1-22.71-28.4-31.59-2.84-2.23-5.66-5.55-6.65-8.91-4.79-16.13-9.73-20.36-26.8-21.43-1.75-.11-3.64.32-5.24-.2-13.82-4.41-22.29,1.68-28.28,13.68-6.06,12.13-12.92,23.86-18.72,36.1-2.22,4.68-5.11,7.29-9.51,9.82-10.51,6.05-20.53,7.17-31.3.97-3.92-2.26-8.45-3.47-13.16-5.33,2.88-3.33,5.47-6.35,8.41-9.76-6.11-3-11.54-5.67-17.01-8.36,3.07-2.42,5.85-4.61,10.05-7.92,3.07,1.25,7.79,3.18,12.76,5.2,5.98-7.3,5.92-7.69-2.8-13.51.35,2.23.67,4.26,1.21,7.78-8.57-1.39-16.36-2.66-25.83-4.21,6.03-3.79,10.25-6.45,15.49-9.74-5.16-2.65-9.07-4.67-13.85-7.14,6.27-2.04,11.54-3.75,18.15-5.91-3.74-4.51-6.98-8.43-10.79-13.02,6.41-1.88,12.33-3.61,19.14-5.61-2.75-5.13-5.27-9.84-8.15-15.22,6.34-1.96,12.68-3.93,19.74-6.11-3.05-5.21-5.75-9.81-8.59-14.68.83-.61,1.77-1.85,2.91-2.05,8.9-1.59,10.92-7.72,11.59-15.65.3-3.59,2.95-6.98,4.33-9.99-3.62-.14-6.31,4.16-8.06,12.9-3.57-1.63-7.19-3.28-10.8-4.93-.54.4-1.08.8-1.62,1.2,1.11,3.92,2.23,7.85,3.62,12.78-3.5-2.64-6.17-4.65-9.99-7.52.63,4.28,1.06,7.19,1.56,10.63-4.36-1.82-8.54-3.56-14.26-5.95,1.78,6.96,3.1,12.11,4.45,17.42-6.22-1.81-11.94-3.49-19.09-5.58,3.09,7.64,5.52,13.63,8.18,20.2-5.88-2.76-11.45-5.36-17.03-7.98-.27.48-.54.97-.81,1.46,1.62,3.44,3.22,6.87,5.37,11.45-5.46-2.27-9.7-4.02-13.94-5.79-.38.43-.76.85-1.14,1.28,1.77,2.96,3.55,5.92,5.81,9.72-4.75-1.46-8.59-2.64-13.79-4.24,1.92,5.87,3.42,10.49,5.12,15.66-5.44-2.35-10.49-4.54-16.75-7.25,1.08,3.94,1.82,6.66,2.8,10.24-5.21-1.85-9.76-3.46-15.08-5.35-.29,2.78-.51,4.8-.84,7.95-6.99-7.61-13.56-14.56-19.83-21.76-1.1-1.27-1.32-3.6-1.35-5.44-.12-7.23.48-14.51-.1-21.7-.46-5.62,1.77-8.93,6.12-11.81,7.31-4.83,14.34-10.08,21.69-14.84,3.73-2.42,5.48-4.9,4.43-9.68-1.12-5.09-1.12-10.43-1.45-15.68-.07-1.2.18-2.72.89-3.64,13.47-17.55,26.64-35.34,40.75-52.35,5.9-7.11,13.88-12.5,20.91-18.68.51.34,1.03.69,1.55,1.03-1.5,4.45-2.99,8.9-4.48,13.36,10.68-9.92,19.74-21.17,34.53-27.07-2.8,5.9-5.16,10.86-7.51,15.82.41.45.82.9,1.24,1.35,12.36-13.62,25.17-26.43,44.95-25.01-6.42,5.5-13.51,11.56-20.59,17.63.48.71.95,1.43,1.43,2.15,9.16-5.39,18.55-10.44,27.35-16.36,3.19-2.15,5.71-3.77,9.76-3.63,4.64.16,9.33-.92,14.69-.17-8.06,5.92-16.13,11.83-24.19,17.74.31.6.62,1.2.93,1.81,10.4-2.76,20.8-5.53,31.2-8.29.27.63.54,1.26.8,1.89-1.9,2.21-3.81,4.42-6.8,7.9,4.79-1.07,8.17-2.28,11.59-2.43,2.41-.1,6.71.85,6.95,2.02.63,2.91-.03,6.46-1.22,9.31-.97,2.34-3.45,4.06-4.37,7.22,5.37-2.2,11-3.92,16.04-6.72,5.99-3.33,11.03-3.07,16.2,1.33,2.13,1.81,4.71,3.11,7.84,5.12-3.11,2.98-6.1,5.84-9.09,8.69.21.44.41.87.62,1.31,4.02-1.54,8.15-2.86,12.06-4.65,11.83-5.42,20.16-3.56,29.44,7.06-6,3.22-11.94,6.41-19.52,10.48,21,.32,40.78-1.8,57.32,11.67-10,4.44-18.98,8.43-27.95,12.41.18.55.37,1.1.55,1.65,22.89-2.22,45.37-2.52,65.83,12.97-5.88,3.11-10.34,5.47-16.55,8.76,19.53,2.99,37.43,4.62,51.61,18.12-6.67,2.97-12.51,5.57-18.5,8.24,14,3,27.52,5.84,40.99,8.83,3.19.7,6.2,2.19,9.39,2.9,10.13,2.26,15.2,9.24,17.62,17.54-9.09,3.77-18,7.47-26.91,11.17.13.51.27,1.03.4,1.54,7.62.57,15.33.61,22.84,1.86,7.6,1.27,15.01,3.74,23.52,5.95-7.42,5.23-13.55,9.54-19.68,13.85.17.52.35,1.05.53,1.56,2.98-.43,6.01-.63,8.93-1.32,18.63-4.45,36.05-.12,52.89,7.49,2.47,1.12,4.53,4.13,5.79,6.75,7.69,15.91,18.87,28.29,34.78,36.35,2.08,1.05,3.68,3.64,4.82,5.85,3.68,7.21,6.38,15.01,10.73,21.76,4.45,6.89,10.34,12.88,15.75,19.13,5.14,5.94,10.48,11.72,16.94,18.91-17.48-7.18-33.77-10.34-52.7-5.05,28.53,6.82,46.5,22.92,54.12,47.93,2.93.4,5.07.04,6.17.95,8.78,7.24,17.47,14.61,25.91,22.24,1.41,1.28,2.37,4.25,1.99,6.12-3.71,18.17-7.75,36.28-11.72,54.39-.4,1.85-1.01,3.67-1.74,6.35,6.68-5.04,12.48-9.68,18.61-13.84,1.51-1.02,4.53-1.28,6.11-.45,7.56,3.94,14.78,8.54,22.3,12.56,4.13,2.21,5.44,4.68,3.87,9.38-2.79,8.29-4.71,16.86-7.45,25.17-.68,2.05-2.82,4.33-4.83,5.12-18.51,7.3-35.75,16.55-50.46,31.79,7.28-2.12,13.66-4.2,20.14-5.83,19.93-5.01,39.14-3.06,57.24,6.88,1.62.89,3.18,3.91,2.99,5.74-3.7,35.5-7.68,70.97-11.57,106.45-.11,1.01-.02,2.03.51,3.15,12.56-26.8,21.44-54.79,28.74-83.82,5.7,11.41,10.43,23.12,17.08,33.62,7.23,11.43,8.35,22.53,4.34,35.14-3.16,9.93-5.01,20.28-7.71,31.58,7.22-4.29,13.59-8.08,21.26-12.63-3.06,20.6-5.92,39.89-9.04,60.85,2.96-3.89,5.01-6.57,7.21-9.45,5.7,5.17,11.51,10.14,16.88,15.56,1.41,1.42,2.03,4.23,1.99,6.38-.25,12.5-.82,24.98-1.24,37.48-.09,2.57-.02,5.16-.02,8.03,7.64-.88,14.7-1.7,22.08-2.55.75,19.39,1.47,38.11,2.19,56.83.51.08,1.04.16,1.55.24,3.67-13.24,7.33-26.47,11.28-40.74,15.36,24.31,21.91,50.53,28.78,77.07,2.25-14.71,4.5-29.42,6.92-45.28,24.44,20.01,29.12,49.06,39.31,77.31,1.89-15.85,3.58-30.16,5.47-46.14,3.84,1.92,6.71,3.07,9.28,4.68,15.41,9.68,24.74,24.53,33.51,39.83,3.33,5.81,6.64,11.65,11.32,17.25-1.2-11.35-2.54-22.69-3.42-34.08-.15-1.95,1.18-4.75,2.75-5.97,15.34-11.92,28.53-2.14,40.22,6.05,12.8,8.96,23.67,20.69,36.08,31.84-4.88-13.25-9.54-25.9-14.21-38.56,10.39-8.19,21.56-10.75,34.72-10.77,14.65-.02,20.67,11.33,30.57,17.87,0-8.12-.22-16.13.06-24.11.28-7.84,1.07-15.66,1.7-24.44h37.23c.02-.29.12-.63.02-.69-11.73-8.51-11.6-20.94-12.9-33.81-1.21-12.04,2.94-17.62,13.61-20.69,4.3-1.24,8.29-3.56,13.29-5.77-9.66-6.56-18.66-12.66-27.84-18.88-7.73,9.3-14.12,18.67-11.25,31.41.24,1.06.22,2.18.34,3.27,2.42,22.04,2.47,22.19-17.92,29.71-4.76,1.76-7.74,4.17-9,9.18-1.39,5.51-3.88,10.76-5.02,16.29-1.16,5.63-4.02,6.87-9.22,5.96-4.51-.78-9.37-.09-13.71-1.32-12.65-3.58-22.22,1.2-30.07,10.42-5.94,6.99-11.91,7.45-19.61,2.87-6.56-3.9-13.7-6.92-20.82-9.7-2.41-.94-5.97-.81-8.31.3-7.69,3.66-15.07,8-23.2,12.42-7.87-8.36-16.06-16.81-23.94-25.55-2.8-3.11-5.12-3.78-8.96-1.77-4.82,2.52-10.05,4.25-15.54,6.5-6.31-11.47-12.5-22.75-18.73-34.01-3.35-6.05-8.31-8.12-14.9-6.23-3.35.97-6.7,1.92-10.92,3.12-1.39-3.15-2.84-6.46-4.29-9.77-4.83-11.04-9.43-22.19-14.67-33.03-1.17-2.43-4.37-4.7-7.07-5.41-6.09-1.62-12.46-2.21-18.69-3.22,0-12.33.21-24.34-.17-36.33-.08-2.46-1.71-5.66-3.67-7.14-5.93-4.48-12.59-8-18.5-12.51-1.92-1.47-3.63-4.93-3.37-7.26,1.45-13.25,3.52-26.44,5.43-40.04-5.11-2.25-10.04-4.43-15.62-6.89,2.76-8.08,5.75-15.79,7.93-23.73.82-2.98.71-6.99-.68-9.63-4.29-8.12-8.74-16.31-14.38-23.5-6.19-7.9-9.24-16.21-9.65-26.16-.32-7.82-2.69-15.53-3.17-23.36-.31-5.08-2.76-7.3-6.8-9.23-11.04-5.27-22-10.74-33.8-16.53,2.38-6.5,4.55-12.62,6.85-18.68,2.8-7.37,5.5-14.8,8.69-21.99,1.63-3.67.69-5.47-2.5-7.37-13.53-8.09-27.02-16.26-40.33-24.69-1.71-1.09-3.37-3.9-3.32-5.87.25-11.37,1.2-22.74,1.45-34.12.05-2.34-1.27-5.6-3.07-6.92-10.05-7.39-20.33-14.49-30.78-21.32-4.19-2.74-6.72-5.37-3.89-10.46.62-1.12.74-2.51,1.07-3.79,1.86-7.39,6.35-15.4,4.81-22-1.49-6.34-9.08-11.37-14.24-16.72-7.44-7.72-15.14-15.19-22.64-22.86-1.17-1.2-2.08-2.76-2.73-4.31-1.37-3.22-2.98-6.46-3.64-9.85-3.37-17.37-15.72-25.66-30.97-30.92-4.86-1.68-7.7-4.45-8.54-9.58-2.57-15.75-8.79-28.23-26.65-31.36-6.16-1.08-12.13-3.76-17.88-6.4-2.78-1.28-4.74-4.25-7.25-6.26-1.6-1.28-3.41-2.91-5.29-3.15-14.34-1.85-21.14-9.89-20.39-24.25.27-5.19-2.65-7.02-7.03-8.44-13.12-4.25-26.04-9.12-39.22-13.16-4.9-1.5-4.81-4.73-4.17-8.06,1.2-6.34-1.77-9.01-7.36-10.73-7.52-2.3-14.78-5.42-22.27-7.79-5.26-1.66-8.14-4.45-7.41-10.3.24-1.9-.21-3.89-.34-5.63-11.87-3.94-23.45-7.78-35.95-11.92,1.5-4.17,2.85-7.95,4.24-11.8-10.66-3.13-21.59-5.89-32.2-9.57-10.22-3.55-9.73-1.11-5.55-11.63-7.56-1.48-15.13-2.96-23.12-4.53.84-3.16,1.43-5.39,1.81-6.8-7.11,0-14.34.15-21.56-.04-10.25-.26-10.29-.43-8.48-10.39h-21.96c.45-3.64.85-6.77,1.24-9.96h-25.25c4.29-5.93,7.48-10.36,11.03-15.29,2.67,3.98,2.99,12.25,10.53,8.79,4.51-2.08,7.92-6.57,11.88-10.03.53,1.62,1.43,4.35,2.34,7.09,5.01-3.55,9.78-6.92,15.79-11.18-.86,4.85-1.54,8.29-2.08,11.75-.53,3.39-.93,6.8-1.46,10.8,4.1-.2,7.75-.37,12.15-.59-2.39,3.77-4.54,7.14-6.96,10.95,12.69,4.71,11.75-6.45,16.08-11.96,1.33,2.71,2.43,4.96,3.97,8.1,2.33-4.66,4.38-8.77,6.95-13.9,1.52,2.46,2.57,4.16,3.77,6.1,5.77-4.23,11.65-8.55,19.07-13.98-1.48,8.26-2.63,14.71-3.92,21.9,2.98.28,5.42.51,9.21.86-4.25,3.81-7.71,6.92-11.86,10.64,3.64.25,6.67.45,9.46.64.78,3.63,1.46,6.82,2.14,10.01,2.58-2.61,5.19-5.18,7.73-7.83,2.22-2.31,4.36-4.69,7.38-7.94.51,3.49.84,5.72,1.26,8.62,5.84-2.71,11.29-5.24,17.48-8.11-1.52,7.57-2.88,14.31-4.23,21.04.72.21,1.44.43,2.16.65-1.28.94-2.54,1.89-3.71,2.75,1.04,4.74,5.99,1.46,9.18-5.73.58-1.31,1.1-2.65,1.93-4.65,1.56,2.46,2.8,4.39,4.06,6.37,7.52-6.15,15.01-12.25,22.5-18.36.39.27.78.53,1.17.8-1.96,9.3-3.92,18.6-5.86,27.84,5.16.42,10.1.83,16.71,1.37-6.81,6.51-12.42,11.87-19.12,18.27,4.83.45,8.35.78,13.44,1.26-1.61,3.38-3.05,6.01-4.13,8.78-1.77,4.55,1.28,5.6,5.62,6.87.79-8.48,1.52-16.34,2.38-25.62,4.88,5.63,8.95,10.32,13.93,16.06,1.14-11.95,2.17-22.85,3.21-33.75l1.42-.26c2.62,5.62,5.25,11.25,8.32,17.84,3.64-7.29,7.05-14.12,10.8-21.63,1.23,1.75,2.11,3.02,3,4.29,8.29-5.92,16.59-11.86,24.91-17.79l1.37.7c-2.88,11.72-5.74,23.43-8.78,35.78h19.65l.93,1.58c-6.98,6.25-13.96,12.5-21.43,19.18,6.93,2.15,13.21,4.1,20.54,6.38-9.49,7.42-17.99,14.06-26.62,20.82,4.75,4.06,9.09,7.75,14.08,12,2.59-7.66,5.06-14.98,7.98-23.63,3.82,6.6,7.11,12.29,10.78,18.63,6.47-9.99,12.63-19.49,19.69-30.38.89,5.33,1.54,9.22,2.27,13.68,9.58-4.9,19.02-9.72,28.45-14.54l1.71,1.11c-6.42,13.05-12.86,26.12-19.29,39.19,7.44,1.01,14.48,1.98,23.64,3.23-11.94,9.42-22.23,17.54-34.06,26.86h15.91c.24,5.08.46,9.81.69,14.88,2.67.62,5.13,1.2,7.82,1.82,1.75-11.12,3.41-21.65,5.41-34.34,8.69,12.19,16.39,23,24.61,34.54,2.5-26.75,4.9-52.52,7.3-78.3.9-.2,1.81-.4,2.72-.59,6.35,13.39,12.7,26.77,19.43,40.96,4.25-8.75,9.08-17.02,12.38-25.86,4.08-10.92,10.66-19.18,20.4-25.46,7.26-4.67,14-10.15,22.53-16.4-4.08,28.33-7.88,54.77-11.9,82.62,15.07-5.63,29.2-10.92,43.32-16.2.42.55.84,1.1,1.27,1.66-10.6,14.48-21.2,28.96-32.2,44,10.26,2.99,19.91,5.81,31.34,9.14-18.06,11.31-34.61,21.68-52.03,32.59,11.43,4.29,21.98,8.25,32.74,12.29-14.44,11.65-28.5,23-43.07,34.75,3.37,4.59,6.28,8.53,9.55,12.97,7.38-8.55,14.19-16.45,22.1-25.62,3.15,15.24,6,29.02,8.9,43.03,8.45-22.99,16.72-45.49,25-67.99.85.04,1.69.09,2.53.13,2.42,11.47,4.83,22.94,7.43,35.28,12.12-16.36,24.06-32.47,36.9-49.8v35.16c20.69-10.27,40.51-22.69,62.02-31.53l1.75,2.08c-13.12,20.74-26.23,41.48-40.24,63.64h35.92c.28.94.55,1.88.83,2.82-15.69,9.43-31.38,18.87-47.58,28.61,9.47,4.78,18.83,9.51,30.07,15.18-19.4,7.81-37.2,14.98-56.35,22.69,12.95,5.85,24.82,11.2,37.88,17.09-22.16,10.42-42.9,20.17-64.23,30.19.96,4.22,1.85,8.13,3.26,14.34,11.43-7.87,21.71-14.95,33.01-22.72.6,11.53,1.17,22.46,1.8,34.39,15.64-18,29.09-37.3,48.19-53.47-1.02,12.48-1.89,23.03-2.92,35.64,11.49-8.14,21.43-15.17,31.72-22.46.59,1.3,1.24,2.76,1.81,4.03,14.38-3.49,28.71-6.95,43.06-10.43.55.69,1.11,1.38,1.66,2.08-14.33,17.26-28.66,34.53-43.42,52.3,13.02,1.28,25.49,2.51,37.97,3.75.15.62.3,1.24.45,1.85-15.66,8.43-31.32,16.85-47.53,25.57,8.86,6.55,17.66,13.05,26.47,19.56-.06.59-.11,1.18-.17,1.77-19.03,3.94-38.06,7.87-58.77,12.16,10.85,7.76,20.6,14.73,31.85,22.78-6.78,2-12.05,3.53-17.32,5.09-4.62,1.37-9.24,2.75-13.84,4.17-8.01,2.46-11.23,8.27-9.68,17.44,6.92-4.14,13.58-8.14,20.75-12.44v29.24c12.34-13.61,24.34-26.84,36.34-40.08.65.21,1.3.42,1.95.63-.92,8.18-1.83,16.37-2.76,24.69,14.12-7.21,28.33-14.46,42.52-21.7.64.64,1.28,1.28,1.93,1.92-6.65,10.5-13.28,20.99-20.83,32.91h41.62c.26.9.52,1.8.78,2.7-15.18,9.13-30.36,18.27-45.97,27.67,6.78,6.01,13.53,12.01,21.56,19.13-18,3.41-34.36,6.5-52.06,9.85,8.6,7.27,16.2,13.7,24.91,21.08-13.15,3.46-25.03,6.86-37.05,9.62-5,1.15-6.66,3.33-5.05,8.49h8.37c.58,3.52,1.11,6.69,1.92,11.55,6.78-5.79,12.76-10.9,19.58-16.71.62,6.53,1.19,12.57,1.87,19.76,6.2-5.29,11.75-10.03,17.93-15.3v8.9c8.66-2.09,16.98-4.1,25.31-6.11.48.55.95,1.11,1.43,1.66-5.79,8.44-11.58,16.88-17.77,25.92,4.26,3.08,8.59,6.21,13.62,9.85-7.38,2.98-14.13,5.7-21.87,8.83,1.97,2,3.42,4.09,5.4,5.35,4.76,3.04,9.6,5.77,4.85,13.02.59.19,1.18.38,1.77.56,7.68-7.41,15.37-14.83,23.82-22.99v17.94c11.14-3.98,21.7-7.75,32.25-11.53.47.57.93,1.14,1.39,1.71-6.23,9.56-12.45,19.12-18.93,29.07,5.16,2.6,10.47,5.28,16.49,8.31-7.22,3.6-13.4,6.69-20.36,10.16,4.68,3.75,9.04,7.25,14.04,11.26,7.33-9.05,14.52-17.94,22.54-27.84,1.66,9.31,3.09,17.24,4.59,25.58,12.02-7.62,23.92-15.16,35.82-22.7l1.3.99c-2.67,11.29-5.34,22.57-8.12,34.34,5.47,1.85,10.36,3.51,15.6,5.28,3.56-7.56,6.96-14.76,11.01-23.34,4.25,7.37,7.77,13.49,11.61,20.14,5.54-14.45,10.81-28.24,16.76-43.77,4.57,9.2,8.32,16.75,12.5,25.14,4.02-7.02,9.27-12.55,9.81-21.03.61-9.56,2.49-19.03,3.93-29.36,7.53,2.19,14.52,4.21,22.68,6.57-5.43-17.01-10.57-33.13-16.09-50.42,8.65,1.68,15.97,3.1,24.64,4.78-7.98-14.68-15.52-28.52-23.53-43.25h20.11c-9.06-15.57-17.67-30.38-26.76-45.99,6.21-1.3,11.27-2.36,17.03-3.56-8.65-15.48-17.2-30.78-26.31-47.08,6.19-.7,11.01-1.25,17.28-1.96-7.15-11.18-13.68-21.38-20.63-32.24,5.35-1.59,10.21-3.05,16.06-4.79-7.14-11.26-13.96-22.03-21.09-33.28,5.63-2.21,10.81-4.24,16.63-6.52-6.61-10.35-12.92-20.25-19.59-30.71,4.02-1.98,8.03-3.96,12.37-6.1-4.73-10.17-9.38-20.2-14.16-30.5,4.29-1.16,7.86-2.13,11.95-3.24-3.51-11.98-6.97-23.8-10.56-36.07,4.18-.68,7.11-1.16,10.76-1.76-1.67-11.87-3.3-23.46-5.01-35.64,3.13-.24,5.45-.42,9.02-.7-.53-10.9-1.06-21.89-1.61-33.26h8.39v-30.39h8.31c.96-8.93,1.89-17.56,2.88-26.77,6.76,1.96,8.28-1.21,8.42-6.87.13-4.99,1.42-9.95,2.27-15.4,5.73.82,7.16-2.76,8.14-7.36,1-4.67,2.67-9.2,4.14-14.08,1.91.51,3.51.93,5.45,1.44,2.96-7.54,5.9-15.02,9.16-23.32,3,1.85,5.47,3.38,8.42,5.2,4.22-7.56,8.36-14.95,12.71-22.75,2.87,1.93,5.35,3.6,8.16,5.51,4.47-6.57,8.86-13.02,13.48-19.81,2.67,2.2,4.8,3.96,7.64,6.3,4.71-5.53,9.35-10.97,14.39-16.88,2.91,3.26,4.6,5.14,6.76,7.55,5.27-3.46,10.64-6.99,16.25-10.68,1.45,1.99,2.55,3.51,4.02,5.52,14.75-8.06,28.66-1.34,42.89,1.26v1.8c-8.69,5.27-17.9,9.85-25.95,15.96-13.04,9.9-25.62,20.47-37.79,31.42-6.05,5.45-11.13,12.13-15.99,18.73-4.88,6.61-8.94,13.81-13.37,20.76-.35.55-1.09,1.17-1,1.65,1.61,9.48-7.36,14.01-10,21.48-.5,1.41-1.84,3.42-1.34,4.13,4.67,6.69-1.24,10.29-4.12,14.65-2.91,4.39-5.16,8.52-2.04,13.91.74,1.27-.14,3.86-.93,5.53-1.39,2.95-3.3,5.65-4.97,8.47-2.12,3.58-2.34,6.88,1.03,10,2.91,2.7,2.45,5.47.21,8.66-4.91,6.98-8.13,14.15-.45,21.65.93.91,1.09,3.95.29,5.07-7.4,10.35-8.4,19.83,3.52,27.55-1.09,1.84-1.77,2.91-2.38,4.03-6.92,12.44-6.95,13.43,2.65,23.57,2.72,2.87,3.71,5.16,1.24,8.46-.51.67-.67,1.61-1.01,2.42-4.92,11.8-5.05,11.94,4.68,20.52,3.52,3.11,5.61,5.92,2.61,10.37-.24.35-.3.82-.44,1.24-3.98,12.2-4.12,12.36,5.85,20.08,4.11,3.18,6.31,6.29,3.6,11.33-.3.57-.35,1.28-.59,1.88-4.13,9.93-2.76,17.81,8.09,22.38,3.95,1.66,4.65,4.72,2.84,8.48-.19.4-.33.82-.44,1.24-4.09,16.44-4.16,16.53,9.7,26.61,2.9,2.11,3.94,4.07,2.97,7.58-1.21,4.42-1.24,9.24-2.92,13.43-2.53,6.32.06,10.28,5.12,12.79,10.34,5.13,13.47,12.58,8.97,23.28-4.03,9.58-1.97,17.32,7.42,22.49,8.84,4.86,11.48,11.64,6.93,20.91-.46.94-.15,2.25-.59,3.21-5.83,12.8-1.65,22.57,9.27,30.12,5.01,3.47,5.66,7.78,3.45,13.01-.25.6-.29,1.3-.56,1.89-7.33,15.7-4.61,29.74,6.48,42.76,1.37,1.61,1.17,5.1.74,7.55-.48,2.73-1.77,5.45-3.22,7.86-7.95,13.15-7.53,26.32-.59,39.68,2.27,4.38,2.51,8.74-.6,12.98-.89,1.21-1.12,2.9-1.99,4.13-9.8,13.83-12.25,29.24-9.39,45.56,1.51,8.63-.55,15.42-7.79,20.48-14.57,10.18-19.15,25.43-20.36,41.9-.68,9.32-4.8,15.56-12.73,19.66-16.94,8.77-28.36,22.3-33.99,40.41-2.9,9.32-8.9,13.95-18.02,16.63-10.47,3.07-20.57,7.45-30.77,11.43-2.15.84-4.24,2.18-5.92,3.76-5.59,5.25-11.49,10.3-16.33,16.2-6.12,7.47-13.7,10.05-22.89,9.63-3.5-.16-7.05.36-10.52,0-19.61-2.04-36.2,5.82-52.55,15.18-3.22,1.85-7.93,2.36-11.68,1.77-10.58-1.66-21.21-3.57-31.48-6.57-11.23-3.27-22.16-2.83-32.8.93-10.55,3.72-19.82,1.78-29.48-2.84-15.56-7.46-31.46-14.23-48.61-21.91,1.04,9.37-1.37,17.53,2.81,25.76,4.61,9.07,8.09,18.73,12.78,29.85-18.21,2.34-34.72,5.4-51.34,6.23-9.51.48-18.15,1.31-25.85,7.16-4.5,3.42-9.21,4.77-15.22,4.08-13.27-1.52-26.81-3.59-39.96-2.38-13.04,1.2-25.81,5.83-38.54,9.54-7.52,2.19-14.71,5.51-22.68,8.56,0-3.08-.65-5.96.11-8.4,4.15-13.32,8.4-26.61,13.13-39.74,2.16-6.02,6.7-9.93,13.47-11.03,4.51-.74,8.9-2.24,14.07-3.6-2.71-3.33-5.2-6.57-7.92-9.61-.77-.86-2.14-1.53-3.3-1.64-11.74-1.17-24.14,6.53-27.14,18.06-2.51,9.68-3.49,19.76-5.06,29.68-.33,2.12-.27,4.31-.36,5.75-22.51,3.73-44.57,7.39-66.98,11.11,2.01-14.38,9.19-26.72,18.05-38.23,9.26-12.03,22.84-16.32,36.77-19.72-.09-.66,0-1.15-.21-1.43-9.38-12.55-5.78-10.67-19.98-7.03-18.24,4.68-26.71,19.15-31.18,35.17-3,10.75-7.14,15.08-18.29,15.87-11.11.79-22.02,4.54-34.08,7.23,7.49-30.52,24.92-50.21,55.02-57.97-5.46-11.8-15.88-4.37-24.73-6.59,6.59-3.98,12.4-7.68,18.38-11.06,6-3.39,12.61-5.47,15.5-13.12,1.05-2.8,5.73-4.47,9.03-6.11,5.31-2.65,8.05-6.32,9.06-12.49,1.95-11.85,5.24-23.48,7.59-35.28.48-2.38.07-5.82-1.39-7.55-11.15-13.21-22.82-26-33.97-39.22-3.01-3.57-5.43-7.96-6.99-12.37-5.02-14.12-13.35-24.84-28.02-29.66-7.84-2.57-11.62-8.32-14-15.91-3.26-10.41-7.28-20.59-11.18-31.44-15.38,2.79-30.59,5.54-47.07,8.53,3.87,6.69,6.77,13.02,10.84,18.47,9.41,12.59,11.72,25.31,7.17,40.97-5.9,20.29-9.12,41.39-13.09,62.22-.63,3.33.83,7.08,1.43,10.62.14.83.61,1.66,1.11,2.36,9.18,12.9,12.59,26.39,7.85,42.32-1.74,5.84.77,13.39,2.65,19.76,2.79,9.41,6.75,18.47,10.67,28.91-7.85,1.37-14.99,2.67-22.16,3.86-12.94,2.15-25.85,4.62-38.87,6.2-7.08.86-14.46,1.02-21.5.02-9.73-1.39-18.73-.93-26.95,4.82-9.43,6.58-19.94,3.41-29.36,1.75-21.89-3.85-42.14,1.19-62.45,7.74-6.38,2.06-12.74,4.18-19.8,6.5,1.58-18.03,9.12-32.72,19.49-45.78,2.8-3.52,9.26-4.21,14.12-5.95,1.97-.7,4.17-.78,6.27-1.14.4-.72.8-1.43,1.2-2.15l-.03-.02.13.08ZM503.94,797.2c-14.06-38.81-14.8-77.52-12.39-116.76-3.21,6.78-5.97,13.62-8.3,20.59-2.26,6.76-4.06,13.68-6.38,21.61-9.02-41.78-9.09-82.25,1.81-122.71-12.23,17.44-22.35,35.76-29.88,55.46-.45,1.19-.7,2.61-.55,3.87,1.71,13.89,3.06,27.84,5.39,41.63,7.49,44.33,25.77,85.21,41.3,126.96.79,2.13,3.02,4.55,5.11,5.24,14.71,4.9,29.44,9.81,44.41,13.84,11.14,2.99,22.63,4.66,33.97,6.92.15-.56.31-1.12.46-1.69-16.81-8.96-31.07-20.83-43.44-35.35-6.11-7.17-7.58-13.03-3.25-21.84,8.31-16.88,17.74-32.86,31.22-47.3-23.35,6.72-46.36,25.81-59.49,49.55v-.02h.01ZM284.4,314.39c-.75-.33-1.51-.67-2.27-1.01-7.33,18.2-14.7,36.39-21.93,54.63-.5,1.27.05,2.95.14,4.44,2.28,34.16,14.93,65.02,30.1,95.09,3.8,7.53,7.32,15.2,11.68,24.29.41-2.46.51-3.22.66-3.96,2.56-13.1,4.72-26.14,14.32-36.76,4.86-5.36,9.09-7.92,16.64-6.72,7.76,1.23,17.09,2.8,23.57-.3,12.31-5.89,22.17-5.33,32.05,3.5.48.43,1.21.6,1.66,1.06,7.36,7.53,15.75,8.06,24.92,3.79,6.52-3.03,12.78-2.31,18.5,1.88,5.45,3.98,10.7,8.25,16.03,12.4,1.05.82,2.04,1.72,4.23,3.57-1.17-7.02-2.09-12.51-3.11-18.57h21.28c.2-.54.39-1.09.59-1.62-5.58-3.33-11.15-6.65-18.63-11.11,22.53-4.72,43.47-9.12,66.35-13.91-10.54-2.83-19.64-5.28-28.85-7.75,14.84-9.58,31.15-14.95,48.48-18.76-5.74-1.64-11.49-3.28-17.24-4.93-.17-.52-.32-1.04-.49-1.56,10.49-4.78,20.97-9.56,31.88-14.54-10.91-1.85-21.44-1.17-31.98,1.09-18.46,3.95-31.08,16.25-42.93,29.74-4.14,4.71-7.01,11.37-15.29,9.89-1.05-.19-2.46.88-3.51,1.64-6.89,5-13.66,10.17-20.65,15.04-1.48,1.03-3.7,1.54-5.53,1.45-6.06-.33-12.72-2.96-18.02-1.24-11.53,3.75-21.21,2.28-30.44-5.06-1.19-.94-2.71-1.46-3.96-2.32-5.7-3.94-11.18-4.37-17.62-.92-4.63,2.48-10.17,4.21-15.37,4.4-7.8.29-15.67-1.35-23.52-1.53-2.22-.05-4.93,1.66-6.65,3.34-8.35,8.17-16.44,16.6-24.58,24.9-14.78-46.67-25.81-94.09-10.55-143.58l.02-.02.02.03ZM1038.5,384.22c-6.8-10.41-6.05-22.96,1.79-33.16-5.62-7.38-4.04-23.24,1.96-29.93,0-5.05-.71-8.9.16-12.35,1.42-5.61,4.25-10.86,5.77-16.45,1.45-5.35,1.55-11.07,3.07-16.38,1.1-3.87,3.56-7.33,5.38-11.01.41-.83.68-1.75.92-2.65,1.91-7.18,3.7-14.39,5.73-21.54.8-2.79,2.15-5.42,3.25-8.12l-1.58-.69c-.98,1.6-2.03,3.16-2.93,4.8-25.66,46.77-35.18,97.64-36.4,150.17-1.17,50.27,6.1,99.94,15.08,149.22,6.99,38.39,15.96,76.41,24.17,114.58,1.84,8.55,4.16,16.99,6.47,26.38,5.86-9.25,11.07-17.47,16.98-26.8-11.06.07-12.48-8.46-15.43-15.34-2.99-6.99-8.48-14.25-.61-20.01-6.08-13.93-18.92-25.17-7.33-41.5-10.07-4.7-9.66-14.53-12.05-22.94-2-7.06-3.98-14.13,3.95-19.08-11.79-10.74-15.09-28.16-7.98-39.83-10.46-9.96-12.69-26.77-4.91-36.98-9.74-11.32-11.3-25.01-4.09-35.86-7.84-9.97-8.66-26.08-1.39-34.54h.02ZM530,861.94c14.15,24.61,24.66,50.08,43.29,70.64,3.32,3.66,5.28,7.05,3.62,12.78-3.41,11.72-5.3,23.87-8.29,35.73-.63,2.5-2.9,4.96-5.05,6.6-3.77,2.88-8.04,5.12-11.72,7.38,10.08,0,19.91.04,29.74-.03,2.6-.02,5.31.02,7.78-.65,17.34-4.74,34.63-9.66,50.54-14.12-16.72-5.74-35.72-6.35-56.51-1.23,4.57-11.86,8.41-22.26,12.61-32.52,1.64-4.02,1.5-7.09-1.12-10.84-15.97-22.75-31.61-45.72-47.49-68.52-.99-1.42-2.91-2.6-4.62-3.03-3.75-.95-7.63-1.35-12.78-2.19h0ZM437.73,251.05c-10.83,11.48-18.73,24.79-24.44,39.34-1.61,4.1-2.35,8.97-1.96,13.35,1.12,12.4,3.14,24.72,4.59,37.1.59,5.05,2.84,8.2,7.66,10.19,12.74,5.25,25.29,10.95,37.99,16.32,4.25,1.79,7,3.94,7.96,9.1,1.41,7.58,4.24,14.9,6.79,23.41,9.63-17.02,18.64-32.93,28.02-49.51-7.52,2.41-14.12,4.56-20.76,6.62-1.38.43-3.15,1.11-4.26.6-14.11-6.34-28.19-12.74-42.1-19.49-2.17-1.05-4.51-3.72-4.95-6-1.74-8.98-3.25-18.07-3.94-27.18-1.42-18.64,2.82-36.4,9.42-53.85h-.02,0ZM250.88,836.4c-7.3-11.92-14.31-23.48-21.45-34.94-2.83-4.53-2.79-8.48.25-13.12,4.53-6.94,11.41-14.31,11.56-21.6.14-7.55-6.59-15.22-10.26-22.86-1.88-3.92-3.64-7.9-5.71-12.42-9.27,24.06-11.58,47.64-6.49,71.78.82,3.89,1.73,8.71,4.4,11.1,8.75,7.83,18.33,14.72,27.71,22.07h-.01ZM471.21,241.68c12.71,7.19,26.16,14.25,39.02,22.23,13.59,8.43,19.82,22.41,25.33,36.86.57-13.05.63-25.93.48-38.8-.02-1.28-.93-3.1-2-3.73-19.62-11.8-39.22-23.87-62.83-16.56h0ZM315.11,315.2c-7.72,18.29-15.65,37-14.31,57.02,1.19,17.73,8.25,34.35,19.23,48.87,4.9-13.11,9.58-25.64,14.72-39.35-6.33,4.83-11.64,8.9-17.2,13.13-8.19-26.42-7.04-52.94-2.44-79.67h0ZM358.46,539.89c.06.8.13,1.61.19,2.41,10.55.67,21.09,1.39,31.65,1.9.97.05,2.72-1.11,2.92-1.98,2.69-11.72,9.5-23.76-2.38-34.46-4.6,2.59-6.37,6.39-5.31,11.41.22,1.07.17,2.21.51,3.23,1.62,4.9.12,7.56-5.04,9.14-7.64,2.34-15.03,5.53-22.54,8.35h0ZM1075.4,690.14c-.72.4-1.44.81-2.16,1.21.75,12.7,1.51,25.4,2.27,38.16,8.32-8.75,16.01-16.85,23.56-24.79-6.74-4.16-15.2-9.37-23.66-14.59h-.01ZM96.68,80.56c-10.37,4.74-25.28,22.16-30.07,35.15,18.42-3.25,30.2-6.8,30.07-35.15ZM335.53,490.15c6.44-1.48,12.55-4.09,18.63-4.04,12.43.1,16.98-9.37,24.68-16.81-12.3-1.12-39.48,12.42-43.31,20.86h0ZM140.38,177.24c-2.91-2.17-5.37-4-8.42-6.27,1.09,6.74-1.59,10.73-8.05,11.96,3.68,2.57,6.71,4.69,10.09,7.07,2.2-4.41,4.22-8.45,6.38-12.76h0ZM114.76,198.66c-.36.67-.7,1.33-1.06,2,3.07,3.26,6.14,6.52,9.42,10,1.78-2.97,3.32-5.52,5.38-8.95-5.1-1.13-9.42-2.09-13.74-3.05h0ZM145.87,165.26c1.35-2.83,2.78-5.86,4.63-9.77-5.14.25-9.14.45-14.95.74,4.32,3.79,7.18,6.3,10.31,9.03h.01ZM109.21,216.35c-5.77,7.36,3.71,7.32,4.73,12.45,2.04-3.29,3.45-5.54,4.71-7.57-3.39-1.75-6.19-3.19-9.44-4.88h0Z"/>
</svg>