<?xml version="1.0" encoding="UTF-8"?>
<svg id="svg10" xmlns="http://www.w3.org/2000/svg" version="1.1" xmlns:inkscape="http://www.inkscape.org/namespaces/inkscape" xmlns:sodipodi="http://sodipodi.sourceforge.net/DTD/sodipodi-0.dtd" xmlns:svg="http://www.w3.org/2000/svg" viewBox="0 0 2314.13 2145.62">
  <!-- Generator: Adobe Illustrator 30.3.0, SVG Export Plug-In . SVG Version: 2.1.3 Build 182)  -->
  <sodipodi:namedview id="namedview10" bordercolor="#000000" borderopacity="0.25" inkscape:deskcolor="#d1d1d1" inkscape:pagecheckerboard="0" inkscape:pageopacity="0.0" inkscape:showpageshadow="2" pagecolor="#ffffff"/>
  <g id="g10">
    <path id="path1" d="M1726.34,275.63c-.41-.2-.91-.02-1.11.39-.11.23-.11.49,0,.71,14.75,28.37,28.09,50.23,43.42,80.49,9.1,17.96,18.75,35.07,28.95,51.34.13.23.06.52-.17.65-.11.06-.23.08-.36.05l-86.82-27.59c-1.61-.5-3.13-1.28-4.5-2.31-27.26-20.67-56.55-36.67-87.87-48-6.94-2.51-18.55-6.22-34.85-11.13-2.54-.78-4.86-2.16-6.76-4.05l-60.31-60.31c-.41-.41-.41-1.08-.01-1.49.22-.22.53-.33.84-.3,25.97,2.41,54.89,7.8,86.77,16.16,36.5,9.57,70.38,24.83,101.64,45.78.36.24.84.14,1.08-.21.18-.26.18-.6,0-.87-12.16-18.75-23.29-34.67-33.37-47.77-12.87-16.74-21.23-25.66-39.78-32.69-66.11-25.05-137.1-35.48-207.18-34.58-.35.02-.62.3-.61.63,0,.12.04.23.11.32.72,1.04,1.75,2.17,3.09,3.39,22.21,20.33,42.99,37.94,62.95,58.42,19.33,19.83,31.09,32.1,35.28,36.79,39.72,44.44,76.61,92.77,110.67,144.97,51.51,78.97,93.92,161.31,127.23,247.01,9.85,25.35,24.89,70.64,45.13,135.89,2.56,8.31,6.66,17.68,12.29,28.12,33.3,61.9,50.13,93.2,50.48,93.91,9.88,19.33,17.49,35.89,22.82,49.68.41,1.04.44,2.19.1,3.27-9.23,28.56-21.07,55.97-35.51,82.22-.27.49-.88.66-1.37.39-.22-.12-.39-.33-.47-.57-13.75-43.99-30.92-85.59-51.49-124.79-10.93-20.86-27.24-45.68-36.01-59.15-9.97-15.33-22.65-30.24-38.04-44.73-.29-.26-.73-.25-.99.04-.19.2-.24.49-.14.74,11.73,30.91,27.97,62.32,40.26,89.99,9.25,20.84,18.16,46.48,26.74,76.92,19.06,67.76,21.06,136.26,5.98,205.48-.09.29.08.6.37.69.23.07.47-.02.61-.21,15.13-18.46,29.69-38.18,43.67-59.15,66.46-99.59,105.96-209.18,118.51-328.76,5.23-49.73,3.22-102.1-2.66-150.57-2.6-21.29-7.74-51.49-15.43-90.59-.16-.85-.6-1.62-1.26-2.21-16.53-14.62-37.79-26.21-57.27-36.46-.32-.15-.72-.03-.87.29-.09.17-.09.37,0,.54,22.62,47.87,33.92,97.88,40.88,150.44.28,2.12.76,4.23,1.43,6.28,4.04,12.26,6.06,22.32,6.06,30.18.02,63.73-8.1,126.71-24.35,188.94-.17.65-.83,1.03-1.48.85-.49-.13-.85-.55-.91-1.05-2.8-27.16-7.58-52.63-14.35-76.42-2.91-10.17-8.77-22.94-17.56-38.32-14.84-25.93-33.28-52.43-55.31-79.48-3.89-4.77-7.09-10.81-9.6-18.12-14.54-42.12-30-80.95-46.39-116.5-8.39-18.21-17.56-36.08-27.52-53.6-.35-.63-.12-1.43.51-1.78.41-.23.9-.22,1.3.02,46.46,28.24,87.8,62.09,128.05,98.58.37.31.93.27,1.24-.11.17-.2.24-.47.19-.72-8.06-36.6-20.97-71.81-38.72-105.62-4.51-8.58-7.17-13.47-7.99-14.68-2.43-3.57-7.03-6.85-13.8-9.85-34.49-15.24-70.28-28.28-107.37-39.1-4.66-1.36-8.14-3.98-10.45-7.87-14.94-25.11-31.01-50.08-48.2-74.91-.25-.33-.17-.81.17-1.06.19-.13.43-.18.65-.13,28.41,6.87,44.66,10.84,48.75,11.91,133.06,35.03,261.06,96.02,361.85,190.3,17.25,16.13,33.67,32.46,49.25,48.98.34.36.92.38,1.28.04.2-.19.3-.46.28-.74-2.9-36.54-9.02-73.41-18.37-110.62-3.79-15.05-11.23-32.94-15.18-46.71-2.56-9.01-1.11-17.62,4.35-25.83,11.86-17.82,37.64-12.16,48.87,2.39,5.88,7.64,9.27,20.71,12.19,28.72,22.06,60.46,30.76,126.25,32.92,189.59.55,16.35,1.72,27.19,3.49,32.52,4.02,12.16,9.9,24.11,17.64,35.83,8.06,12.2,20.9,30.36,38.52,54.48,30.23,41.34,57.47,87.97,75.59,137.45,3.87,10.58,7.97,25.33,5.18,35.96-3.99,15.14-14.23,22.93-30.73,23.37-7.64.18-14.47-2.4-20.5-7.74-2.7-2.38-6.18-9-10.45-19.85-18.9-47.98-44.7-93.49-77.4-136.52-.05-.07-.24-.41-.58-1.03-.22-.42-.56-.71-1.03-.88-.4-.12-.82.1-.94.5-.05.16-.04.33.01.48,28.86,70.29,44.54,142.76,47.04,217.41,2.16,65.17-7.65,129.17-29.43,192.01-6.53,18.81-16.48,44.64-29.85,77.47-3.57,8.79-8.85,24.2-7.71,34.02.06.59.6,1.02,1.19.96.26-.03.49-.14.67-.33,45.88-48.3,82.09-103.05,108.61-164.26,5.38-12.41,14.3-41.06,26.84-41.19,16.46-.2,16.96,17.34,14.07,30.03-3.95,17.34-10.68,31.96-18.52,50.61-18.26,43.41-42.13,83.36-71.62,119.86-19.87,24.58-35.26,42.48-46.16,53.7-9.7,9.98-17.67,19.18-23.9,27.59-2.23,3.02-5.18,9.09-8.85,18.22-6.41,15.96-10.73,37.92-16.31,53.32-3.94,10.92-7.87,21.89-11.81,32.89-.74,2.04-1.27,4.51-1.61,7.39-.06.4.21.77.61.83.24.04.48-.05.65-.23,32.85-33.74,61.82-69.13,86.89-106.17,8.72-12.92,20.48-19.65,36.99-15.05,5.6,1.56,10.55,5.2,14.85,10.93,8.97,11.96,6.58,28.75-1.53,40.63-34.28,50.24-73.37,96.38-117.27,138.41-50.33,48.22-102.6,87.72-165.04,127.53-12.11,7.71-25.93,17.39-37.69,25.88-17.46,12.64-29.65,26.18-43.3,42.57-14.75,17.67-24.93,32.57-37.74,47.32-.15.2-.11.48.09.63.12.09.28.12.42.07,43.99-16.95,85.91-37.53,125.77-61.72,12.64-7.66,27.11-12.24,37.22,1.38,8.37,11.31,4.07,25.63-6.73,33.6-8.23,6.06-18.85,12.8-31.89,20.2-60.89,34.69-125.23,61.47-193.01,80.34-3.1.85-6.73,3.48-10.91,7.89-23.92,25.25-55.05,56.3-93.38,93.18-5.75,5.53-9.67,9.11-11.79,10.75-13.85,10.73-29.55,10.4-43.77,0-5.44-3.99-8.6-9.35-9.47-16.08-1.81-14.15,3.32-23.29,14.02-32.52,13.13-11.29,24.99-22.44,35.56-33.45.39-.37.41-.99.04-1.39-.27-.28-.68-.38-1.04-.25-21.04,6.68-42.01,12.04-62.92,16.08-13.85,2.66-34.73,10.55-51.89,18.52-28.75,13.35-45.78,21.33-51.09,23.92-41.03,20.13-85.03,34.4-127.25,42.77-29.37,5.81-53.47,9.57-72.32,11.28-13.33,1.22-26.24,2.55-38.72,3.97-.42-.01-.76.32-.77.73s.31.76.72.77c29.07,4.72,58.78,4.3,83.38,8.79,11.43,2.09,21.96,10.4,23.75,22.59,2.84,19.25-20.61,26.06-35.58,27.94-23.59,2.95-49.16,3.07-76.72.35-86.84-8.53-170.35-30.32-250.53-65.38-46.39-20.28-66.49-28.8-96.59-44.05-10.08-5.09-21.07-7.73-32.94-7.92-31.13-.45-47.25-.7-48.37-.73-54.26-1.64-107.22-9.19-158.89-22.64-24.7-6.43-47.37-14.9-70.74-24-19.2-7.46-55.21-24.37-46.61-51.26,4.15-12.97,21.79-19.9,34.53-19.32,4.44.22,12.48,2.97,24.12,8.24,41.88,19,87.22,31.97,136.02,38.92.22.03.42-.12.46-.33.03-.17-.05-.33-.21-.4-52.03-27.86-102.11-59.64-150.22-95.34-12.87-9.55-29.38-20.93-38.09-26.41-27.21-17.07-63.56-40.2-109.06-69.38-.25-.15-.57-.08-.73.16-.12.18-.11.41.02.57,18.7,25.9,36.57,48.5,53.62,67.8,15.98,18.07,29.73,37.82,8.32,56.56-11.71,10.23-25.88,11.21-37.57,1.26-40.13-34.2-74.86-79.76-101.19-124.89-15.31-26.22-28.24-47.43-38.77-63.63-4.02-6.2-9.21-11.29-15.55-15.28-50.53-31.73-102.83-60.23-156.9-85.51-5.8-2.71-10.67-6.42-14.62-11.11-15.71-18.6-5-48.2,19.07-51.66,15.18-2.16,25.53,3.77,42.57,12.87,33.24,17.76,61.36,33.12,84.38,46.09.55.32,1.26.13,1.58-.43.17-.3.2-.66.08-.98-9.73-27.14-18.6-51.03-26.61-71.67-6.99-17.97-14.27-34.05-28.8-46.04-55.61-45.86-104.06-94.36-146.9-151.45-29.27-39.02-52.91-81.98-70.94-128.88-2.56-6.65-4.85-15.83-6.86-27.54-2.01-11.66,2.54-29.25,14.32-34.73,15.98-7.44,29.2,1.26,35.38,16.41,29.02,71.21,68.68,139.04,122.6,193.14.08.1.22.12.33.05.1-.08.12-.22.05-.32-10.44-19.2-20.81-41.12-31.13-65.76-39.68-94.89-48.77-200.68-31.91-302.75,2.55-15.4,6.3-34.82,11.26-58.27.1-.5.09-1-.03-1.48l-13.02-52.17c-.16-.69-.85-1.12-1.54-.96-.27.06-.52.22-.7.43-11.26,12.88-23.89,29.45-37.89,49.7-13.42,19.4-38.04,28.17-55.03,7.69-7.34-8.85-9.59-18.46-6.76-28.85,2.46-9.05,9.17-16.31,14.93-24.12,23.69-32.26,48.84-62.73,75.46-91.39,1.41-1.53,2.14-3.56,2.01-5.63-2.11-37.19-1.22-73.71,2.66-109.56,2.01-18.49,9.1-49.45,33.45-51.16,25.15-1.76,28.8,21.18,27.44,41.03-.67,9.68-2.41,31.45-5.23,65.31-.03.57.41,1.05.97,1.08.27.01.53-.08.74-.25,11.31-10.32,24.73-22.69,40.28-37.11,3.57-3.34,5.83-14.15,7.11-18.92,16.03-59.71,22.92-123.58,8.49-184.42-3.58-15.18-8.45-32.9-14.6-53.17-1.96-6.53-5.18-22.44,1.71-27.52,21.13-15.66,34.88,34.07,38.3,44.55,13.89,42.48,20.76,86.68,20.61,132.58,0,.36.28.66.64.66.16,0,.31-.05.44-.16.59-.52,1.07-1.17,1.46-1.96,21.11-43.6,37.84-92.9,52.77-143.99,12.41-42.43,27.26-81.58,44.53-117.45,19.05-39.57,42.94-76.19,71.67-109.86,8.36-9.82,15.24-16.5,20.66-20.05,15.83-10.45,27.06,9.55,18.07,21.18-14.74,19.01-29.84,41.16-45.31,66.44-9.38,15.36-17.26,30.11-23.65,44.25-16.15,35.7-26.25,59.94-30.3,72.72-5.23,16.57-11.06,34.04-17.51,52.42-.12.39.09.82.47.95.3.1.62,0,.81-.25,5.76-7.72,9.98-13.23,12.64-16.53,25.21-31.33,55.01-56.82,89.38-76.47,17.87-10.22,35.21-19.02,51.99-26.41,22.92-10.08,55.63-24.15,83.15-41.24,20.33-12.64,37.79-27.84,55.74-44.3,1.34-1.22,2.4-2.45,3.19-3.67.27-.44.13-1.01-.3-1.28-.19-.12-.41-.16-.63-.13-40.79,6.6-80.13,15.55-118,26.86-11.23,3.34-18.57,4.57-26.13-4.1-6.81-7.79-2.66-17.72,5.45-22.21,6.85-3.8,15-7.36,24.45-10.68,49.2-17.25,99.38-28.79,150.54-34.6,2.06-.24,3.95-1.29,5.25-2.91,30.34-37.84,58.63-77.77,84.88-119.79,5.13-8.19,13.59-14.78,22.62-9.37,9.95,5.93,12.61,20,9.6,30.63-1.61,5.73-4.25,11.46-7.92,17.19-19.57,30.67-34.07,53.62-43.5,68.83-.17.22-.12.54.1.7.18.13.42.13.6,0,72.52-45.18,151.21-73.3,236.06-84.36,33.97-4.42,67.65-5.36,101.04-2.81.44.03.83-.31.85-.75.02-.36-.19-.68-.53-.81-43.86-14.54-88.17-26.76-132.93-36.66-10.53-2.34-21.28-9-20.81-21.01,1.18-28.65,46.01-22.69,63.35-19.8,21.83,3.64,42.73,8.28,62.7,13.95,51.95,14.69,101.94,33.54,149.97,56.54,1.51.71,3.22.88,4.82.48,12.2-3.17,23.77-6.19,34.73-9.07,34.19-8.96,68.95-15.24,104.28-18.85,15.58-1.61,31.44-.95,47.57,1.96,11.16,2.01,24.35,10.43,22.21,23.22-3.69,21.96-34.25,25.83-53.45,26.89-29.74,1.62-58.52,5.39-86.34,11.28-.5.12-.81.61-.7,1.11.05.23.2.44.4.57l24.63,15.68c.57.37.74,1.13.38,1.69-.19.3-.49.49-.84.54-33.24,5.29-65.38,12.9-96.44,22.82-2.08.68-4.3.85-6.46.5l-31.44-4.87c-.63-.1-1.28-.08-1.91.05-4.09.82-8.33,2.23-12.74,4.22-41.09,18.58-80.57,39.9-118.43,63.95-.52.32-.68,1-.36,1.52.15.24.39.42.66.49l49.13,13.54c1.85.52,3.81.35,5.53-.48,35.92-17.04,74.18-32.35,114.79-45.93,117.73-39.4,244.58-49.4,364.46-20.48.36.09.73-.13.82-.5.04-.18.01-.37-.09-.53-2.85-4.24-6.98-9.3-12.39-15.18-28.24-30.73-65.66-73.25-100.31-107.75-7.74-7.71-5.43-24.58,9.15-23.42,12.16.98,29.73,20.33,41.61,32.49,28.26,28.95,48.56,49.44,60.89,61.46,31.18,30.42,64.76,56.53,100.77,78.33,21.59,13.07,53.4,27.52,80.01,41.84,6.03,3.25,14.97,8.23,26.81,14.95.43.23.96.06,1.19-.37.15-.29.13-.64-.06-.91-22.13-30.57-46.09-57.7-71.89-81.39-6.63-6.08-10.64-10.47-12.01-13.17-11.94-23.32,10.18-42.14,31.79-43.35,11.89-.68,24.63,12.14,34.17,21.48,50.02,48.87,91.8,102.56,125.34,161.07,7.05,12.31,15.4,21.85,25.03,28.6,6.35,4.44,17.76,9.89,34.23,16.36,38.6,15.18,68.8,21.86,107.93,22.49,9,.15,24.25,3.04,21.79,15.96-.2.97-.63,1.89-1.26,2.66-4.22,5.06-10.24,8.12-18.07,9.2-42.29,5.85-87.02-3.24-126.37-17.06-.3-.11-.63.04-.74.34-.05.14-.05.3.01.44,10.62,25.66,22.37,50.9,35.26,75.71,15.43,29.68,35.58,54.23,57.12,80.86,6.2,7.67,12.12,16.75,17.77,27.24.19.36.05.8-.3.98-.26.14-.57.11-.8-.08-50.11-43.14-105.81-79-167.1-107.6-26.75-12.48-41.03-19.16-42.82-20.03-3.08-1.46-6.85-6.27-11.31-14.42-11.16-20.4-17-31.12-17.54-32.14-.29-.54-.09-1.21.44-1.5.32-.18.71-.18,1.04,0l74.36,37.09c.29.14.63.02.77-.27.1-.2.07-.44-.07-.61-4.64-5.68-8.87-11.1-12.69-16.26-17.74-24-38.35-44.45-67.04-67.47-26.12-20.96-53.37-38.92-81.77-53.9h0l-.08.11ZM963.84,145.34c-39.25,8.26-75.28,20.16-108.08,35.71-.35.14-.51.54-.37.88.1.25.33.41.6.42,38.11,4.04,76.13,9.83,114.06,17.36,2.11.42,3.87.48,5.28.18s2.99-1.06,4.75-2.29c31.68-22.18,64.15-42.79,97.42-61.84.33-.17.46-.58.29-.91-.12-.23-.36-.37-.62-.37-36.29-1.02-74.06,2.6-113.33,10.86h0ZM1175.77,253.26l66.67,23.29c2.16.76,4.47.97,6.73.6,12.88-2.06,28.48-4.92,46.79-8.57,34.16-6.8,68.31-11.71,102.45-14.73.73-.08,1.27-.72,1.2-1.44-.03-.38-.24-.73-.55-.94-15.91-11.34-31.76-23.6-47.54-36.76-5.11-4.26-10.32-6.3-15.63-6.13-.1,0-5.72,1.08-16.86,3.24-48.31,9.35-96.07,23.08-143.26,41.19-.07,0-.13.06-.13.13s.06.13.13.13h0ZM919.81,317.14c-.23.16-.29.47-.13.7.15.22.43.28.66.16l85.71-31.91c.96-.36,2.01-.39,2.99-.1l53.3,15.81c.76.23,1.19,1.03.96,1.78-.12.41-.42.74-.81.9-62.99,25.83-128.45,49.96-196.38,72.4-8.02,2.66-16.94,6.78-22.62,12.19-9.23,8.78-18.8,19.38-28.72,31.81-.32.42-.24,1.02.17,1.34.19.15.44.22.68.19,33.82-3.6,68.73-9.5,104.74-17.69,30.56-6.94,55.33-15.91,81.87-27.24,6.03-2.58,24.86-11.61,56.49-27.09,9.48-4.64,30.61-13.99,63.4-28.04,1.19-.52,2.54-.54,3.74-.08l78.28,30.51c.58.24.85.9.62,1.48-.12.3-.36.53-.67.63-75.79,25.78-147,61.36-210.53,110.04-30.87,23.64-57.46,47.94-79.76,72.9-7.35,8.23-13.46,16.09-18.32,23.6-.2.33-.1.76.22.97.19.12.43.13.63.04,2.4-1.07,4.56-2.25,6.48-3.54,36.02-23.96,72.09-46.72,108.2-68.3,68.05-40.66,142.28-72.77,219.77-90.71,38.23-8.85,76.31-15.06,114.23-18.65.33-.03.57-.33.54-.66-.02-.17-.1-.32-.24-.42-1.74-1.36-3.64-2.55-5.68-3.57-28.73-14.41-56.38-27.18-82.95-38.32-68.55-28.75-137.08-53.19-205.58-73.32-61.28-18.03-120.16-30.47-176.63-37.34-34.33-4.19-64.45-6.16-90.39-5.91-2.56.02-5.75,1.19-9.57,3.52-37.14,22.57-66.16,46.91-99.41,77.07-62.15,56.39-110.03,122.19-143.63,197.41-23.12,51.7-39.17,107.68-48.15,167.93-3.92,26.33-7.41,55.28-7.09,83.2,0,.54.44.98.98.98.25,0,.49-.1.67-.27,68.12-62.75,146.3-112.6,229.77-152.71,20.68-9.93,38.22-17.44,49.6-27.11,19.78-16.79,55.13-54.43,83.93-79.08.46-.38.54-1.06.16-1.52-.24-.29-.61-.44-.99-.39-24.06,2.6-48.1,6.03-72.14,10.3-14.83,2.64-22.99,5.91-30.86,16.89-5.63,7.87-12.88,18.77-21.76,32.69-9.55,14.93-24.83,20.83-42.09,29.15-19.05,9.2-36.71,19.95-56.06,29.5-.39.19-.85.03-1.04-.36-.12-.24-.1-.52.04-.74,18.01-29,33.4-53.84,46.19-74.53,11.43-18.51,31.85-47.51,61.29-86.99,33.27-44.61,74.52-90.46,123.76-137.55,14.47-13.82,31.88-29.05,52.22-45.68.51-.42,1.18-.58,1.83-.45l64.3,12.49c.7.13,1.15.81,1,1.52-.06.32-.24.6-.5.8-15.45,11.31-31.03,24.45-46.76,39.43h0l.04-.06ZM1348.13,318.75c-.18.19-.17.5.04.69.04.04.09.07.14.09,40.43,17.24,78.65,37.94,112.27,54.33,4.62,2.26,10.32,3.48,17.09,3.64,14.81.34,29.32.53,43.52.58.5.02.92-.37.94-.87,0-.22-.07-.44-.21-.61-19.06-23.22-40.06-46.29-63-69.2-.55-.53-1.28-.82-2.04-.8-34.91.77-70.02,4.52-105.34,11.26-.57.1-1.06.14-1.46.13-.84-.02-1.49.24-1.96.78h0v-.02ZM352.64,567.95c2.93-1.27,14.35-8.03,34.25-20.28,22.14-13.64,54.96-29.63,74.2-42.27,6.7-4.41,11.06-9.07,13.09-14,18.27-44.25,41.79-86.24,68.48-125.72.24-.34.16-.81-.18-1.05-.21-.15-.48-.18-.72-.08-27.42,10.05-48.52,22.31-76.54,40.71-18.29,12.01-35.55,27.62-51.76,46.84-18.29,21.69-36.56,49.68-48.42,78.43-3.57,8.66-8.1,20.76-13.59,36.31-.17.46.07.96.54,1.13.22.08.45.07.66-.02h0ZM1663.09,595.46c-20.74-43.91-45.9-86.65-75.49-128.23-1.41-1.96-3.38-3.45-5.65-4.27-14.73-5.23-30.06-9-46.01-11.33-75.34-11.04-150.45-9.81-225.35,3.69-.55.09-.92.61-.82,1.16.08.44.43.78.87.85,42.08,5.75,83.63,13.53,124.64,23.34,74.51,17.87,147.5,49.8,207.66,98,6.38,5.13,12.94,11.94,18.97,17.64.31.27.78.26,1.06-.04.21-.22.26-.55.12-.82h0ZM1368.96,917.26l44.28-18.12c1.08-.44,1.85-1.4,2.04-2.54,11.01-62.55,9.68-124.24-3.97-185.05-11.13-49.5-32.32-100.29-71.14-132.6-79.26-65.94-177.46,8.44-227.64,70.94-45.08,56.14-79.28,124.76-93.78,195.25-.25,1.2.16,2.43,1.08,3.24,55.81,49.1,100.36,105.11,130.39,173.66,8.66,19.73,15.14,39.72,19.42,59.96.08.39.47.65.86.57.18-.04.34-.14.45-.29,41.03-59.96,94.78-108,157.58-144.01,1.33-.76,2.44-1.86,3.22-3.19,4.56-7.82,8.58-16.17,12.06-25.03,7.62-19.42,14.76-41.17,21.41-65.26,1.16-4.15,2.56-7.8,4.22-10.93.61-1.16,2.03-1.6,3.19-.99.45.24.81.61,1.03,1.07,7.64,15.83,3.82,44.28-.58,62.17-3.22,13.05-4.87,19.87-4.98,20.45-.07.34.15.67.49.74.12.02.25.01.36-.03h.01ZM332.94,721.36c-.04.93.68,1.71,1.61,1.75.53.02,1.04-.21,1.38-.62,23.44-29.37,49.17-55.95,77.19-79.76,11.41-9.67,17.82-15.1,19.25-16.31,1.12-.93,1.91-2.2,2.24-3.62l6.73-28.6c.16-.63-.23-1.27-.87-1.43-.29-.07-.61-.03-.87.12-33.71,19.08-67.55,40.61-101.54,64.58-1.38.98-2.23,2.56-2.31,4.27l-2.81,59.6v.02ZM1723.05,738.67c-3.65-10.32-7.42-20.33-11.31-30.03-6.36-15.91-17.49-37.32-32.09-46.36-43.54-26.97-90.06-45.96-139.56-56.97-.59-.14-1.19.22-1.33.82-.08.34,0,.7.23.97,1.57,1.94,3.17,3.49,4.8,4.65,19.75,14.07,40.4,28.13,61.94,42.17,42.4,27.66,81.29,56.06,116.67,85.21.15.16.41.17.57.01.13-.12.16-.31.08-.47h0ZM2026.22,665.22c-.24-.38-.75-.47-1.12-.21-.25.17-.39.46-.36.76,3.1,28.4,5.35,54.7,6.76,78.9.5,8.87,2.71,15.88,7.44,22.54,22.78,32.06,39.43,54.67,49.93,67.82.4.49,1.11,1,2.11,1.53.65.35,1.46.1,1.8-.55.11-.2.16-.43.16-.66-1.51-62.67-32.21-119.96-66.72-170.15h0v.02ZM685.01,666.6c-17.01,10.03-35.46,20.25-52.52,32.89-.7.52-1.31,1.14-1.81,1.86-3.69,5.43-6.97,11.59-9.85,18.49-13.7,32.97-21.08,68.07-27.36,103.2-2.38,13.33-3.34,26.69-2.89,40.08,0,.4.32.73.72.74.26,0,.5-.13.64-.36,1.16-1.83,2.06-3.62,2.71-5.38,20-53.77,41.26-104.74,67.39-151.95,6.94-12.51,14.95-24.6,24.02-38.47.25-.35.16-.84-.19-1.09-.26-.18-.6-.19-.87-.02h.01ZM425.54,691.73c.04-.44-.28-.83-.73-.88-.22-.02-.44.05-.61.2-30.62,26.23-56.17,56.53-76.64,90.89-8.44,14.15-7.06,29.1-5.8,45.88,2.03,27.27,7.13,54.63,15.3,82.07.09.35.46.55.82.44.2-.06.36-.2.44-.39,1.47-3.52,2.86-6.43,4.17-8.74,15.7-27.61,32.72-53.68,51.06-78.23,3.82-5.09,6.23-8.99,7.24-11.68,1.11-2.91,1.59-7.46,1.46-13.64-.74-38.4.36-73.7,3.29-105.92h0ZM162.64,817.77c3.34,21.51,5.4,37.99,10.1,58.57,13.03,56.84,33.03,113.46,59.98,169.87,37.81,79.15,83.02,151.27,135.64,216.36,17.54,21.69,44.7,51.12,81.49,88.28,11.23,11.33,18.42,20.03,22.36,34.02,9.26,32.99,19.63,63.93,31.11,92.82.2.52-.05,1.1-.56,1.31-.33.13-.7.08-.98-.15-44.76-34.86-87.4-73.68-127.9-116.45-12.31-12.98-25.17-26.88-38.57-41.69-.32-.35-.86-.38-1.21-.06-.21.19-.31.46-.28.74,6.67,54.68,18.51,107.34,35.53,157.98,5.04,15.01,14.31,27.28,27.82,36.81,10.79,7.62,23.55,14.64,38.27,21.06.15.07.33.01.4-.14.05-.11.03-.25-.05-.34-22.75-30.99-39.39-65.07-49.93-102.22-3.25-11.48-5.58-24.1-6.99-37.87-.06-.5.31-.94.82-.99.25-.02.49.05.69.21,1.16,1.01,2.42,2.54,3.79,4.6,18.16,27.41,37.3,54.96,57.42,82.67,28.17,38.82,56.87,72.82,99.06,95.76,1.84,1,3.35,2.51,4.35,4.35l29.3,54.5c.28.5.09,1.12-.4,1.4-.25.14-.54.17-.8.08-10.97-3.33-25.15-7.17-42.52-11.51-25-6.26-49.2-13.8-80.56-23.02-3.33-.99-12.94-4-28.82-9.02-10.27-3.25-20.76-6.12-31.46-8.62-.28-.08-.57.1-.64.39-.04.17,0,.35.11.49,17.62,20.66,42.14,32.09,69.08,43.6,83.58,35.76,173.96,58,265.56,70.03,104,13.65,206.33,11.72,306.99-5.8,104.84-18.27,206.03-49.83,301.04-96.69,54.5-26.89,104.53-59.1,150.09-96.64,4.12-3.4,8.51-7.72,13.17-12.97.2-.22.18-.55-.05-.75-.18-.16-.45-.18-.66-.06-40.76,26.4-82.76,49.44-126.02,69.13-54.61,24.84-108.57,45.21-161.88,61.11-7.54,2.26-33.93,9.5-79.18,21.71-.93.25-1.89.37-2.84.35-5.08-.07-10.15-.69-15.23-1.86-48.62-11.22-95.68-28.14-141.2-50.76-.36-.16-.51-.58-.34-.94.13-.27.41-.44.71-.42,53.75,3.62,109.64,1.38,162.25-9.72,13.57-2.86,31.06-5.8,45.91-10.15,6.01-1.76,12.53-3.73,19.55-5.91.57-.18.89-.79.71-1.36-.14-.46-.58-.77-1.06-.76-74.43,2.73-148.06-.99-220.88-11.16-132.78-18.54-256.49-63.1-364.16-138.94-8.85-6.23-22.75-16.72-41.71-31.46-.39-.29-.94-.22-1.23.17-.17.22-.22.5-.15.76,8.31,27.46,17.77,52.95,28.4,76.49,3.95,8.74,7.61,14.58,10.98,17.51,3.17,2.78,11.21,7.69,24.12,14.73,65.1,35.41,133.21,62.12,204.34,80.11,9.32,2.36,17.59,4.85,24.53,9.27,34.61,22.15,69.28,41.85,104.01,59.1,14.62,7.26,33.87,15.05,54.58,24.37.48.22.69.79.46,1.27-.14.3-.43.52-.76.56l-52.37,6.08c-3.36.4-6.76.03-9.95-1.08l-65.74-22.97c-.29-.11-.6.03-.71.32-.07.17-.04.36.06.51,4,5.68,16.41,12.34,31.61,22.31,1.56,1.02,3.22,2.55,4.98,4.6.4.46.36,1.16-.1,1.56-.2.18-.46.27-.73.27h-89.68c-1.33,0-2.64-.26-3.87-.78-3.37-1.41-7.43-4.05-12.19-7.92-5.95-4.84-27.7-22.51-65.26-53-3.59-2.91-7.68-5.16-12.09-6.66-32.92-11.17-65.16-24.16-96.72-38.95-.34-.16-.74-.01-.9.34-.08.19-.09.4,0,.59,15.19,31.59,32.64,63.32,52.34,95.19.21.34.11.79-.23,1-.15.09-.32.13-.5.1-23.75-3.27-46.41-7.3-67.97-12.11-2.26-.5-5.3-1.39-9.12-2.66-.94-.31-1.75-.93-2.29-1.76-3.59-5.56-5.93-9.41-7.04-11.53-13.39-25.82-25.45-50.97-36.19-75.46-12.53-28.6-24.29-57.88-35.28-87.85-18.75-51.21-36.66-113.1-51.01-160.7-3.67-12.14-9.42-25.53-15.28-33.4-32.45-43.64-52.88-72.01-61.29-85.11-21.91-34.16-41.7-69.73-59.35-106.72-.17-.35-.6-.49-.94-.31-.18.09-.31.25-.36.44-6.53,26.28-11,51.73-13.39,76.34-.04.6-.55,1.05-1.15,1.01-.36-.02-.68-.22-.86-.53l-41.89-66.87c-.82-1.3-1.09-2.88-.75-4.4,6.67-30.22,14.7-58.97,24.1-86.24.9-2.62.89-5.47-.03-8.09-13.35-37.83-23.55-75.28-30.58-112.37-.08-.41-.48-.67-.89-.59-.24.05-.45.21-.55.44-15.6,37.58-24.6,76.72-27.01,117.43-.34,5.58-.28,11.29.15,17.14.03.44-.31.82-.76.85-.25.01-.49-.09-.65-.27-.92-1.12-1.69-2.34-2.31-3.64-12.28-25.93-22.92-49.4-31.91-70.41-.27-.62-.43-1.27-.48-1.93-.17-2.46.26-5.65,1.28-9.55,6.53-24.76,14.74-49.25,24.63-73.48,6.89-16.89,15.2-32.39,24.1-49.58,2.86-5.58,3.39-9.88,2.81-15.81-2.88-28.66-3.67-57.44-2.36-86.32.05-.89-.64-1.64-1.52-1.69-.38-.02-.76.1-1.07.33-15.14,11.56-28.7,25.19-40.66,40.88-5.73,7.52-10.26,15.55-13.59,24.07-14.14,36.02-21.06,73.49-20.76,112.42.02.6-.46,1.09-1.07,1.09-.45,0-.87-.27-1.04-.69l-28.19-68.4c-.12-.31-.47-.47-.78-.35-.27.1-.43.39-.38.67h0l.03.09ZM731.58,1403.95c-2.31-3.64-4.82-6.68-7.51-9.15-26.46-24.17-56.94-53.32-80.31-81.01-23.32-27.62-43.49-54.32-60.51-80.08-47.69-72.19-81.99-151.47-102.9-237.84-6-24.83-10.48-53.26-13.44-85.29-.48-5.2-1.28-11.68,1.38-15.6,10.74-15.78,22.55-31.51,35.43-47.19.22-.29.63-.34.92-.1.17.13.26.34.26.55-1.16,31.73,3.17,63,12.99,93.8.09.23.35.35.58.28.16-.06.27-.2.28-.38.94-15.43,1.96-30.62,3.07-45.58.7-9.75,1.4-16.53,2.09-20.33,3.02-16.74,3.89-34.02,7.24-50.76,3.94-19.83,9.04-40.35,15.3-61.54.17-.57-.16-1.17-.73-1.34-.35-.1-.73-.02-1,.21-37.72,32.19-73.05,68.88-101.82,110.99-22.45,32.82-41.16,66.83-56.14,102.05-2.85,6.7-4.33,12.64-4.45,17.82-.03,1.13.15,2.25.53,3.32,12.01,33.77,25.99,65.16,41.94,94.16.2.35.65.46,1,.26.21-.12.35-.34.36-.59l5.2-111.57c.03-.71.62-1.26,1.33-1.23.59.02,1.09.45,1.21,1.03,5.48,24.81,12.24,50.35,20.28,76.62,8.04,26.28,18.14,51.49,27.52,75.01,1.53,3.86,2.45,7.94,2.71,12.09,1.03,16.71.35,41.41,12.97,58.68,48.57,66.47,107.54,123.31,176.93,170.5,17.87,12.16,36.8,23.12,56.77,32.87.2.12.47.05.58-.16.08-.15.07-.33-.03-.47h0l-.03-.03ZM721.4,835.24c-8.46,9.67-14.73,18.54-18.82,26.64-26.36,52.14-27.39,111.17-20.61,168.13,2.75,23.08,8.9,49.34,18.44,78.78,15.96,49.22,39.49,93.3,70.59,132.25,16.1,20.19,35.84,38.68,59.23,55.48,44.58,32.04,97.12,49.68,150.77,40.41,53-9.17,101.72-46.09,127.73-93.38,37.32-67.82,26.11-152.38-6.63-219.22-21.96-44.83-48.4-80.13-83.65-115.39-23.6-23.59-49.44-44.22-77.52-61.89-43.77-27.52-90.36-47.52-141.65-46.89-29.1.35-58.17,12.59-77.87,35.08h0ZM2030.42,825.56c-1.26,15.35-1.97,30.2-2.14,44.58-.1,6.73,1.68,14.73,4.95,20.91,13.89,26.42,28.52,57.43,43.9,93.03.23.54.85.78,1.39.54.34-.15.59-.47.64-.85,3.32-24.78,5.27-39.28,5.85-43.5,1.73-12.41,2.32-20.37,1.78-23.87-1.11-7.2-4.32-15.24-9.65-24.1-14.26-23.74-29.25-46.15-44.98-67.24-.33-.43-.94-.52-1.37-.19-.22.17-.36.42-.39.7h.02ZM2139.05,925.85c-.1-.31-.44-.49-.75-.4-.24.07-.4.28-.4.53-3.49,48.5-17.04,101.7-23.29,143.68-2.86,19.2,3.89,39.63,9.25,59.93,1.81,6.85,6.44,30.7,13.9,71.54.39,2.14.9,3.95,1.53,5.43.2.5.78.74,1.29.52.27-.12.48-.34.57-.62,14.37-45.06,22.34-90.29,21.61-139.31-.74-48.26-8.64-95.36-23.7-141.3h-.01ZM1524.58,1352.16c52.34-51.89,87.72-113.98,111.02-185.45,16.26-49.83,22.36-103.6,8.07-153.64-8.77-30.78-30.73-60.28-59.83-73.45-42.84-19.4-97.1-14.85-141.62-1.51-57.58,17.24-110.2,45.47-157.86,84.71-68.73,56.56-120.19,136.05-125.69,223.39-5.98,95.16,62.34,178.34,155.02,192.96,78.45,12.41,155.8-32.37,210.9-87.02h-.01ZM1963.55,1268.88c.05.4.41.68.81.63.18-.02.35-.11.47-.25,15.05-19.6,29.78-38.77,41.21-59.86,10.69-19.7,19.68-40.3,26.96-61.79.21-.65.91-1,1.55-.79.4.13.7.46.81.86,10.59,39.72,18.6,83.14,24.02,130.27,2.95,25.43,4.05,51.22,3.29,77.37-1.56,53.57-6.41,101.62-13.07,156.05-.09.77.47,1.47,1.24,1.55.41.05.82-.09,1.12-.37,3.07-2.97,5.46-6.79,7.19-11.48,17.44-47.12,27.36-95.01,29.78-143.66,2.21-44.8.7-86.47-4.52-125.01-5.88-43.37-15.71-88.61-29.5-135.72-11.32-38.7-25.74-76.42-43.25-113.15-1.41-2.97-2.69-5.37-3.84-7.21-.19-.31-.59-.4-.9-.21-.14.08-.24.21-.28.36-9.38,29.77-20.61,61.38-33.7,94.83-4.61,11.83-10.12,24.16-16.53,36.99-9.67,19.35-12.79,33.27-9.37,52.37,6.78,37.84,12.29,73.92,16.51,108.23h0ZM201.37,1267.32c-3.2-30.39-4.25-62.56-3.14-96.52.79-23.84,1.49-39.85,2.11-48.05.15-1.99-.26-3.97-1.18-5.73-14.12-26.92-26.95-55.73-38.47-86.42-.3-.85-1.24-1.29-2.09-.99-.45.16-.81.51-.98.96-.07.18-.15.88-.25,2.09-6.7,82.42,7.51,160.76,42.64,235.03.1.37.49.59.87.49s.59-.49.49-.87h0ZM309.95,1463.78c-8.54-32.57-13.18-50.42-13.9-53.57-8.98-39.27-14.31-78.24-15.98-116.92-.84-19.63-1.11-33.97-.83-43.02.02-.46-.11-.91-.35-1.31l-37.44-59.78c-.11-.16-.32-.21-.48-.12-.09.05-.14.14-.15.24-5.49,38.36-7.81,75.95-6.94,112.75.67,28.41,4.41,54.22,11.23,77.42,10.65,36.39,33.07,62.52,63.7,85.09.33.24.78.16,1.02-.16.13-.18.17-.4.11-.62h.01ZM1490.78,1928.7c-5.43,6.22-12.2,12.32-20.33,18.32-15.19,11.21-33.19,23.75-54,37.64-.24.14-.32.45-.18.69.14.24.44.32.69.19,16.11-7.16,35.43-14.55,52.87-23.42,132.7-67.39,228.97-192.33,288.65-326.39,11.93-26.79,23.33-54.58,34.2-83.38.66-1.74,1.8-3.26,3.29-4.37l74.71-56.14c.51-.39,1.23-.29,1.62.21.23.3.3.69.19,1.04-12.14,40.23-24.32,78.95-39.1,115.29-6.55,16.08-12.97,32.43-19.27,49.05-.2.55.08,1.15.63,1.35.27.1.57.08.82-.04,28.13-14.57,57-31.75,86.62-51.51,13.4-8.93,29.27-21.6,47.59-38.02,21.74-19.42,33.32-37.27,44.25-62.85,11.73-27.46,21.69-56.02,29.9-85.69,13.95-50.43,23.19-100.16,21.23-152-.01-.49-.42-.87-.9-.85-.27,0-.52.14-.68.35-15.66,21.02-32.79,41.77-51.39,62.24-59.67,65.72-125.86,124.4-198.57,176.05-32.97,23.42-75.59,50.23-102.78,65.99-3.1,1.79-13.9,7.32-32.39,16.58-3.27,1.64-10.43,5.91-21.48,12.82-7.61,4.75-13.22,11.01-18.14,18.54-13.47,20.57-29.88,42.93-49.23,67.07-14.39,17.96-26.86,32.8-37.42,44.53-.21.24-.18.61.06.82.1.09.23.14.37.14,49.08-1.22,98.05-8.99,146.9-23.29.65-.19,1.34.19,1.52.85.09.33.04.69-.14.99l-33.85,53.17c-.8,1.25-2.09,2.1-3.57,2.36-103.38,17.92-207.31,14.93-312.22-3.07-29.97-5.14-61.31-11.59-94.01-19.35-.44-.11-.71-.57-.6-1.01.07-.27.26-.48.52-.57,106.22-35.51,211.31-88.45,297.22-158.66,7.54-6.16,14.78-10.86,21.71-14.1,59.93-27.92,123.1-61.49,179.92-99.63,31.54-21.19,57.14-39.59,76.79-55.21,31.49-25.01,54.86-45.19,70.11-60.53,9.58-9.63,15.1-19.55,16.56-29.75,1.66-11.53,2.04-24.42,1.16-38.7-1.29-20.91-3.72-42.45-7.29-64.63-.08-.56-.6-.96-1.16-.88-.28.04-.53.19-.69.42-21.71,29.58-40.38,55.33-62.47,81.22-45.99,53.89-97.26,102.62-153.81,146.2-2.63,2.03-6.36,4.78-11.18,8.27-.29.22-.7.16-.91-.13-.16-.21-.17-.5-.04-.72,11.71-19.58,22.77-37.74,31.49-56.16,27.17-57.46,42.46-117.53,45.86-180.2.28-5.11.33-10.73.13-16.86-.02-.55-.49-.99-1.04-.97-.42.01-.79.29-.92.69-17.82,53.6-36.71,105.29-62.62,153.86-38.16,71.5-87.45,132.57-147.86,183.21-12.21,10.25-25.09,20.61-38.62,31.06-72.4,56.01-155.29,98.63-242.69,130.54-151.7,55.38-314.41,80.06-475.91,66.49-.62-.05-1.17.42-1.21,1.04-.02.26.05.53.21.74,6.22,8.76,13.36,17.87,21.43,27.31,30.36,35.58,60.36,66.9,90.01,93.96,24.1,22.01,49.2,40,73.12,56.92,10.6,7.49,19.63,5.85,31.96,3.89,24.16-3.84,47.59-9.29,70.31-16.36.34-.12.52-.49.41-.83-.06-.17-.18-.3-.33-.38-52.82-23.67-103.17-52.54-151.05-86.59-32.47-23.1-51.25-36.41-56.34-39.93-.34-.24-.43-.71-.2-1.04.13-.2.36-.32.6-.31h72.8c1.78,0,3.53.53,5,1.53,15.86,10.74,31.8,20.91,47.82,30.51,8.06,4.82,15.71,8.76,22.94,11.81,2.45,1.04,5.1,1.52,7.76,1.41,41.61-1.78,83.83-11.56,124.74-24.3.21-.07.32-.3.25-.51-.04-.11-.12-.2-.23-.25l-86.29-33.62c-.42-.17-.63-.65-.46-1.08.1-.26.33-.45.61-.5,32.68-5.39,66.1-12.56,100.26-21.51,1.41-.36,2.89-.34,4.27.08,11.59,3.42,18.51,5.49,20.76,6.21,108.18,34.68,224.32,53.27,337.68,47.17,35.56-1.91,68.93-7.51,105.01-15.58.57-.12,1.13.24,1.26.79.07.3,0,.62-.2.86-15.04,19.37-31.63,37.77-49.75,55.21-10.81,10.38-20.33,16.28-33.3,20.93-24.15,8.67-60.94,18.75-91.32,29.7-25.55,9.21-53.02,18.51-82.42,27.89-.33.08-.52.41-.42.74.08.27.32.45.6.46,19.18.8,37.56,1.11,55.13.9,22.16-.23,40.43-3.01,54.81-8.32,8.71-3.22,16.41-6.18,23.09-8.9.26-.09.55.03.65.28.07.17.03.37-.1.5h.01ZM1994.06,1649.68l18.29-13.75c1.57-1.17,2.49-3.02,2.49-5v-18.57c-.03-.82-.71-1.46-1.53-1.44-.53.02-1.01.31-1.26.78l-18.67,37.39c-.13.22-.06.49.16.62.16.1.37.08.52-.04h0ZM1919.8,1648.6c-15.56,9.98-36.68,23.25-63.35,39.8-12.11,7.51-36.2,19.88-72.27,37.11-3.9,1.86-6.53,4.05-7.89,6.58-7.3,13.57-13.61,24.83-18.92,33.77-.05.05-.17.58-.35,1.58-.09.43.19.86.62.95.16.03.33.02.49-.05,36.55-15.01,72.61-32.6,108.18-52.77,9.9-5.63,16.73-10.44,20.48-14.42,14.02-14.93,20.23-28.6,33.65-51.97.12-.22.03-.49-.19-.61-.14-.07-.31-.07-.44,0h0v.03ZM1519.91,1655.48c-4.07.99-7.69,2.53-10.86,4.62-39.15,25.88-82.32,48-126.02,65.36-.59.25-.86.93-.61,1.52.16.38.52.65.93.69l54.13,4.5c1.16.1,2.34-.02,3.47-.35,2.88-.87,5.65-2.39,8.29-4.55,26.15-21.48,49.92-45.05,71.31-70.71.23-.29.19-.72-.08-.95-.16-.13-.37-.18-.57-.13h.01ZM815.56,1922.35c.39.18.85.01,1.04-.38.14-.31.07-.68-.18-.91-37.27-35.38-71.4-73.65-102.37-114.81-7-9.31-18.57-24.73-34.7-46.26-1.63-2.18-4.03-3.65-6.71-4.12-34.61-6.05-66.94-13.49-97-22.31-22.16-6.53-40.57-11.94-55.23-16.23-.34-.09-.71.1-.81.43-.07.23,0,.49.19.65,9.6,9.17,17.49,18.6,27.42,27.84,79.91,74.51,169.37,133.21,268.37,176.1h-.02ZM1802.03,1810.85c-30.56,14.49-62.44,26.97-95.64,37.44-5.96,1.88-9.65,4.9-13.57,9.45-14.59,16.99-28.71,32.78-42.34,47.37-.32.34-.31.88.04,1.21.19.17.44.26.69.22,45.06-5.53,83.65-20.78,115.19-54.3,11.53-12.23,23.52-25.87,35.98-40.93.09-.14.06-.33-.08-.42-.08-.05-.18-.07-.27-.03h0ZM1250.68,1859.3l-46.86-11.01c-2.15-.52-4.36-.67-6.56-.45-3.65.22-10.94,1.91-21.86,5.08-14.46,4.17-32.63,9.67-54.5,16.48-19.68,6.13-37.74,9.6-57.47,12.97-.38.07-.64.43-.59.8.03.23.18.42.39.51,21.58,10.32,44.38,18.94,68.4,25.86,3.4.97,7.05.72,10.96-.75,35.38-13.42,71.51-29.16,108.38-47.22.6-.29.84-1.02.55-1.61-.16-.33-.47-.57-.83-.65h-.01ZM1250.71,1932.22c16.05-2.11,32.49-5.63,49.33-10.55,35.65-10.42,73.22-23.08,112.7-37.97.37-.15.56-.57.42-.94-.09-.25-.32-.42-.59-.44-22.63-2.36-41.54-4.1-56.72-5.23-4.84-.37-8.72.31-11.63,2.04-29.58,17.42-60.93,34.53-94.03,51.34-.46.22-.66.78-.43,1.24.17.36.56.57.96.52h0ZM1078.68,2003.49c48.52,16.69,98.18,20.18,151.63,18.14,23.27-.87,49.61-4.05,79.03-9.52,19.65-3.65,39.69-9.31,60.11-16.99.56-.23.84-.87.62-1.43-.15-.4-.52-.66-.95-.68-8.04-.3-18.29.25-26.16-.2-43.77-2.6-88.39-7.19-133.86-13.77-20.76-3-40.26-1.54-58.52,4.37-22.6,7.32-46.53,13.47-71.79,18.44-.46.11-.74.57-.64,1.03.07.28.27.51.54.61h-.01Z"/>
    <path id="path2" d="M854.35,261.45c.54-.07,1.03.3,1.1.84.04.31-.07.63-.3.84-21.34,18.8-46.29,41.14-74.83,67.04-6.68,6.08-16.91,9.75-26.28,12.51-49.49,14.61-94.75,36.34-135.79,65.18-.37.22-.85.11-1.07-.26-.15-.24-.15-.55,0-.8,20.76-30.86,43.39-60.09,67.9-87.7,11.14-12.55,22.15-23.75,33.02-33.62.89-.8,1.98-1.34,3.14-1.53l133.13-22.52-.02.02Z"/>
    <path id="path3" d="M526.73,628c-.18.33-.59.45-.92.27-.27-.15-.4-.45-.34-.75,2.19-14.27,5.03-27.54,8.52-39.8,12.04-42.25,27.88-82.91,47.52-121.97.48-.95,1.33-1.65,2.34-1.93,34.86-10.2,69.51-18.78,103.93-25.73.4-.07.77.19.85.59.03.19,0,.38-.12.54l-51.69,72.77c-2.18,3.07-4.78,5.82-7.71,8.19-9.47,7.56-25.2,17.89-37.22,28.92-24.37,22.33-46.09,48.63-65.16,78.9h0Z"/>
    <path id="path4" d="M1098.9,769.9c-.81.65-2,.53-2.65-.28-.25-.31-.39-.68-.42-1.08-.28-4.64.39-9.9,2.04-15.78,5.46-19.43,13.79-38.35,24.98-56.77,19.85-32.62,48.93-66.44,85.24-78.65,3.7-1.26,7.04-1.41,10.03-.45,2.41.77,3.79,3.3,3.14,5.75-.82,3.15-2.47,5.98-4.95,8.49-7.76,7.84-18.25,18.08-31.49,30.71-20.02,19.13-36.66,38.73-49.93,58.8-10.54,15.95-18.62,28.11-24.25,36.49-3.2,4.77-7.11,9.03-11.74,12.77h0Z"/>
    <path id="path5" d="M759.19,1115.17c-.08,1.07-1.02,1.86-2.09,1.77-.41-.03-.81-.2-1.12-.47-3.65-3.13-7.06-7.41-10.23-12.84-10.49-18.01-18.54-37.78-24.15-59.3-9.93-38.15-14.12-83.98,2.91-119.69,1.73-3.64,4.01-6.22,6.86-7.74,2.3-1.24,5.17-.46,6.53,1.78,1.74,2.88,2.66,6.14,2.74,9.77.23,11.39.28,26.53.15,45.41-.2,28.58,2.37,55,7.71,79.26,4.26,19.27,7.46,33.99,9.62,44.18,1.26,5.8,1.61,11.75,1.06,17.87h0Z"/>
    <path id="path6" d="M1332.7,1051.9c-1.05.18-2.05-.53-2.23-1.58-.07-.38-.01-.78.15-1.13,2.01-4.31,5.18-8.69,9.52-13.14,14.37-14.74,31.07-27.62,50.08-38.65,33.72-19.5,76.26-35.61,114.76-28.8,3.94.69,7,2.19,9.2,4.5,1.77,1.87,1.77,4.8,0,6.68-2.28,2.41-5.13,4.14-8.57,5.18-10.79,3.23-25.19,7.28-43.2,12.14-27.27,7.35-51.76,16.78-73.45,28.27-17.22,9.13-30.4,16.07-39.53,20.83-5.19,2.71-10.77,4.62-16.74,5.7h.01Z"/>
    <path id="path7" d="M1033.27,1007.7c.09-1.41,1.32-2.48,2.73-2.39.51.03.99.22,1.39.53,4.64,3.47,8.97,8.11,12.99,13.92,18.78,27.11,30.71,57.24,35.78,90.41,7.64,49.88-3.22,110.14-46.81,141.22-2,1.44-4.74,1.13-6.12-.69-.26-.34-.46-.73-.59-1.14-.34-1.01-.08-2.4.75-4.17,5.8-12.31,10.26-22.75,13.39-31.31,19.12-52.29,16.16-105.21.13-156.4-7.64-24.35-14.25-39.9-13.64-49.98h0Z"/>
    <path id="path8" d="M1507.37,1293.43c1.39-.32,2.78.55,3.1,1.95.11.48.08.98-.09,1.45-1.96,5.46-5.13,10.98-9.5,16.56-20.39,26.02-45.72,46.36-75.99,61.04-45.53,22.09-106.44,29.53-149.14-3.02-1.97-1.49-2.47-4.2-1.13-6.06.25-.35.56-.65.91-.9.87-.62,2.28-.8,4.22-.53,13.52,1.91,24.84,3.1,33.95,3.57,55.76,2.81,105.56-15.68,149.84-46.19,21.06-14.52,34-25.48,43.82-27.87h.01Z"/>
    <path id="path9" d="M1965.99,1406.76c.18-.15.45-.13.6.05.07.08.11.19.1.3-2.33,39.89-10.37,78.76-24.12,116.62-10.96,30.2-30.3,53.86-58.02,70.96-.47.3-1.09.17-1.39-.3-.14-.22-.19-.48-.14-.73l19.5-125.64c.24-1.59,1.02-3.07,2.21-4.2l61.26-57.07h0Z"/>
    <path id="path10" d="M1559.49,1705.76c-.49.03-.9-.35-.92-.83-.02-.34.17-.67.47-.83,64.13-34.44,124.91-74.59,182.33-120.44.6-.48,1.46-.38,1.94.21.07.08.12.17.17.27.18.39.18.8-.03,1.26-12.95,31.13-26.84,60.39-41.66,87.8-.61,1.11-1.63,1.95-2.84,2.34-38.71,12.6-77.9,22.01-117.55,28.24-7.39,1.16-14.69,1.82-21.91,1.99h0Z"/>
  </g>
</svg>