<?xml version="1.0" encoding="UTF-8"?>
<svg id="Layer_1" xmlns="http://www.w3.org/2000/svg" version="1.1" xmlns:serif="http://www.serif.com/" viewBox="0 0 785.91 604.09">
  <!-- Generator: Adobe Illustrator 30.3.0, SVG Export Plug-In . SVG Version: 2.1.3 Build 182)  -->
  <defs>
    <style>
      .st0 {
        fill: #231f20;
        fill-rule: evenodd;
      }
    </style>
  </defs>
  <g id="Layer">
    <path class="st0" d="M540.65,34.13c.76.15,1.68.18,2.71-.09,3.34-.87,8.76-6.8,14.87-7.17,8.96-.54,13.01,11.42,23.12,12.82,7.48,1.03,13.37-7.35,20.91-7.72,5.6-.28,15.07,3.14,16.93,3.83.04.02.09,0,.12-.03.03-.04.03-.09,0-.13-1.17-1.72-7.63-10.68-16.02-12.74-5.85-1.43-11.23,3.18-16.81,1.77-7.09-1.79-13.72-11.52-21.78-12.22-5.28-.46-8.4,2.85-13.34,3.69-4.16.71-8.84.12-11.32-.32-.09-1.82-.19-4.06-.29-6.13-.17-3.62-.36-7.13-.48-7.74-.17-1.15-.79-1.68-1.32-1.15-.48.45-1.43,20.51-2.02,41.74-.45,15.91-1.18,36.67-1.4,39.19l-.23,2.36-5.58,2.16c-3.09,1.18-7.6,2.92-10.02,3.87-6.84,2.67-14.53,5.64-23.71,9.12-13.58,5.16-17.17,6.59-17.31,6.99-.06.17.17,1.01.53,1.85.62,1.46.7,1.54,1.57,1.4.51-.06,2.58-.73,4.66-1.46,2.08-.73,3.76-1.26,3.76-1.21,0,.08-.67,2.16-1.49,4.6-2.81,8.44-4.69,17.33-5.75,27.15-.39,3.45-.53,7.13-.53,13.69,0,9.62.14,11.16,1.91,21.46.47,2.78.87,5.28.87,5.53,0,.28-.34.42-.98.42-1.07,0-5.84,1.54-11.25,3.67-1.97.76-6.45,2.44-10.02,3.73-3.56,1.29-7.88,2.86-9.57,3.48-1.71.62-5.64,2.02-8.7,3.11-3.09,1.07-11.36,4.01-18.4,6.54-7.07,2.5-15.01,5.33-17.67,6.26-2.69.95-5.98,2.13-7.32,2.67-1.34.5-2.52.87-2.58.81-.08-.08-.17-10.35-.23-22.81l-.06-22.64,3.25-.48c4.88-.76,13.61-1.23,18.12-1.01,14.48.73,27.44,4.01,45.11,11.5,4.41,1.85,8.19,3.39,8.42,3.39.64,0,.39-.64-1.74-4.43-3.42-6.06-10.38-20.42-12.43-25.61-5.69-14.48-8.78-27.66-9.9-42.11-.87-11.36.39-23.59,3.56-34.56,1.07-3.56.95-3.45,4.69-4.91,1.38-.56,2.67-1.12,2.86-1.26.76-.62.11-3.48-.81-3.48-.59,0-5.61,1.91-19.72,7.52-5.61,2.22-14.22,5.61-19.16,7.57-15.94,6.31-20.11,7.91-20.2,7.83-.06-.06-.23-4.85-.39-10.69-.17-5.84-.45-14.78-.62-19.89-.18-5.85-.33-12.18-.39-16.04.95.2,2.11.24,3.41-.1,4.12-1.07,10.81-8.39,18.35-8.84,11.05-.67,16.05,14.08,28.52,15.81,9.22,1.28,16.49-9.07,25.79-9.52,6.99-.34,18.86,3.97,20.96,4.76.05.02.1,0,.13-.03.03-.04.03-.09,0-.13-1.32-1.95-9.33-13.22-19.81-15.79-7.21-1.77-13.85,3.92-20.74,2.19-8.75-2.2-16.92-14.21-26.87-15.08-6.51-.57-10.36,3.51-16.46,4.55-5.32.91-11.34.09-14.31-.44-.18-6.92-.67-14.44-.97-14.83-.51-.59-.84-.48-1.15.34-.14.39-.42,5.78-.59,12.01-.17,6.2-.45,13.8-.59,16.86-.48,9.06-1.15,31.22-1.32,43.46-.11,6.23-.25,12.03-.34,12.9-.14,1.49-.2,1.57-1.54,2.24-.76.39-4.63,1.96-8.58,3.51-7.83,3.03-25.64,10.18-33.86,13.61-2.86,1.15-6.34,2.55-7.74,3.09-1.43.53-2.67,1.09-2.78,1.23-.25.42.53,2.92.95,3.09.23.08,1.77-.39,3.42-1.04,3.45-1.35,4.66-1.68,4.66-1.35,0,.14-.45,1.32-1.04,2.64-1.1,2.55-3.17,9.62-4.26,14.42-.36,1.63-.79,3.48-.95,4.12-.23,1.01-1.1,2.02-5.61,6.48-2.95,2.92-7.63,7.35-10.38,9.88-10.69,9.74-28.42,26.26-40.79,38.01-6.48,6.17-9.85,9.37-15.68,14.76-5.02,4.63-23.26,21.85-28.22,26.6-2.02,1.96-6.93,6.59-10.89,10.32-9.85,9.26-28.05,26.82-42.42,40.85-36.69,35.88-62.42,64.75-83.54,93.79-7.13,9.79-14.31,20.98-22.13,34.45-.65,1.15-1.51,2.33-1.88,2.67-.73.64-2.92,1.63-12.85,5.86-7.38,3.11-20.2,8.92-25.02,11.31l-3.62,1.77-3.76-.98c-3.9-1.01-9.45-2.67-19.81-5.92-7.77-2.44-9.37-2.75-10.77-2.08-1.15.53-2.24,2.47-1.96,3.48.22.9,1.77,2.27,3.56,3.17.93.48,5.11,2.1,9.31,3.65,4.21,1.51,13.16,4.91,19.89,7.52,20.9,8.08,36.16,13.94,49.63,19.05,16.61,6.31,37.4,14.2,42.87,16.27,7.66,2.92,11,4.97,13.91,8.47,2.75,3.31,4.38,6.51,5.41,10.49.79,3.14.5,4.66-1.94,9.51-2.55,5.13-3.23,7.77-2.67,10.58.48,2.47,1.49,4.32,3.09,5.75,1.43,1.23,1.99,1.43,9.15,3.11,5.84,1.38,10.49,4.29,16.05,10.1,5.05,5.25,8.84,10.91,14.36,21.46,7.13,13.55,9.9,17.67,16.02,23.56,5.64,5.47,10.97,8.92,18.09,11.73,3.84,1.51,10.21,3.03,13.38,3.17.56.06-.42.17-2.21.28-1.77.11-17.81.22-35.63.25-19.1.03-33.58.17-35.29.34-5.86.62-11.59,2.67-15.49,5.55-1.07.79-3.23,2.75-4.74,4.35l-2.81,2.89,276.58.08c153.62.03,276.69-.03,276.83-.17.36-.39-4.77-5.41-7.21-7.07-4.24-2.86-8.7-4.71-13.3-5.56-2.41-.45-6.54-.51-40.54-.59-38.43-.08-43.09-.11-41.24-.28,12.26-1.23,22.61-6.2,31.5-15.18,3.73-3.76,6.31-7.43,8.95-12.76,1.18-2.44,3.17-6.48,4.4-9,2.86-5.84,4.77-8.72,7.55-11.48,2.78-2.78,5.1-4.07,7.83-4.32,1.07-.11,1.99-.31,2.1-.45.08-.14,1.12-5.61,2.33-12.12,1.18-6.51,2.69-14.53,3.37-17.81.64-3.31,1.18-6.26,1.18-6.59,0-.56-.11-.59-1.4-.42-2.47.34-24.97,5.56-26.96,6.26-.64.22-1.23.36-1.32.28-.06-.06.23-1.04.62-2.16.42-1.15,1.09-3.37,1.54-4.97.42-1.6.98-3.12,1.21-3.4.42-.48,2.92-1.26,11.3-3.51,8.53-2.27,46.88-13.72,69.07-20.59,3.56-1.12,10.46-3.23,15.32-4.71,20.81-6.4,60.88-19.44,61.89-20.17.73-.53.45-1.04-2.92-5.08-7.91-9.45-17.34-19.61-39.7-42.81-21.55-22.36-36.13-38.12-46.99-50.8-21.32-24.88-36.41-45.67-47.69-65.7-1.1-1.94-2.3-4.07-2.67-4.71-1.26-2.24-8.64-17.08-9.87-19.89-3.62-8.22-8.36-20.84-10.77-28.7-2.92-9.6-3.98-12.82-4.27-12.82-.14,0-.28.56-.28,1.26s-.25,3.42-.59,6.09c-2.8,23.23-2.13,55.49,1.8,86.18,3.93,30.75,11.28,65.73,21.1,100.29,3.48,12.32,5.5,18.77,10.58,34.03,4.15,12.43,5.19,15.29,6.51,17.9,1.18,2.38,1.09,2.33,3.14,1.4,6.37-2.86,24.35-8,38.49-11.02,22.05-4.71,47.3-6.96,72.55-6.48,5.61.11,10.24.28,10.24.39,0,.25-1.85.73-25.64,6.62-11.42,2.83-25.67,6.43-31.67,8-5.97,1.54-17.39,4.46-25.33,6.45s-19.13,4.83-24.88,6.28c-5.75,1.46-11.05,2.69-11.78,2.75l-1.32.11-3.79-7.52c-11.33-22.44-18.15-38.29-27.38-63.63-3.39-9.34-5.19-14.73-7.74-23.42-.76-2.58-2.02-6.87-2.81-9.54-3.82-12.76-7.83-31.11-10.41-47.47-3.87-24.6-4.68-47.83-2.52-71.12,1.35-14.53,2.69-22.47,6.17-36.39,2.08-8.3,3.39-12.65,5.39-17.98,1.46-3.87,6.03-14.42,6.76-15.6.42-.64,3.42-1.99,6.29-2.8,2.16-.62,2.49-.87,2.49-1.94,0-1.35-.62-2.38-1.32-2.24-.34.08-4.23,1.43-8.7,3-12.15,4.29-62.81,21.52-83.43,28.36-.76.25-1.46.42-1.51.34-.08-.06-.22-10.46-.36-23.12l-.2-23.01,2.78-.48c7.38-1.29,9.96-1.49,19.41-1.51,10.41,0,12.71.2,22.67,2.19,9.68,1.94,19.72,5.05,31.65,9.76,3.23,1.26,5.92,2.27,5.97,2.19.08-.06-.53-1.09-1.35-2.27-1.96-2.92-8.39-14.56-11.39-20.73-7.29-14.92-12.17-31.78-13.89-47.86-.59-5.64-.67-20.11-.14-25,.7-6.51,2.53-14.98,3.4-15.88.2-.2,2.27-1.15,4.63-2.1,2.33-.98,4.35-1.94,4.49-2.16.42-.67-.81-3.17-1.57-3.17-.7,0-3.34,1.01-16.78,6.42-5.27,2.1-13.55,5.36-18.43,7.21-4.85,1.88-13.33,5.13-18.85,7.24-5.5,2.1-10.18,3.87-10.41,3.93-.5.11-.53-.28-.76-8.89-.11-3.82-.36-10.97-.62-15.91-.23-4.94-.56-14.67-.73-21.66v-.17h.02ZM426.41,485.03l-.94,6.03-7.35-.64c-2.02-.17-4.23-.36-4.94-.45-1.43-.19-1.12-.62-3,4.21-2.22,5.75-5.22,9.76-8.73,11.61-1.71.95-5.97,2.38-6.34,2.16-.14-.08-.25-14.95-.25-33.05l-.03-32.88,6.11.23c3.37.11,8.84.39,12.18.62,7.21.53,11.56,1.04,18.85,2.25,5.36.9,15.82,3.03,16.1,3.31.09.08-.7,1.65-1.77,3.48-2.1,3.68-11.75,20.34-14.48,25.16-1.6,2.89-1.8,3.11-2.61,3.06-.45-.03-2.08-.14-3.56-.25-1.97-.17-2.83-.14-3.14.14-.62.48-1.15,3.14-.79,3.82.22.42,1.49.77,4.68,1.2h.01ZM342.23,496.18c9.39,1.55,20.66,3.24,25.71,3.85-.06,2.3-.12,3.68-.16,3.71-.11.08-1.71,0-3.59-.23-3.32-.4-14.79-2.02-22.61-3.19l.65-4.15h0ZM566.84,498.11c-.14.79-.28,1.57-.42,2.36l-.37,1.96c1.2.04,2.26.05,2.99.03,3.28-.11,3.9-.23,7.69-1.49,2.21-.73,4.72-1.5,8.09-2.48l-17.83-1.33-.15.95h0ZM559.46,496.58l-.85,5.43c-3.27-.24-8.03-.53-11.14-.69-3.48-.14-6.37-.34-6.43-.39-.03-.03-.08-1.57-.16-5.78l18.58,1.42h0ZM306.09,492.27l.41-2.31c2.64.46,5.9,1.02,8.93,1.53,5.36.9,12.46,2.13,15.79,2.78,1.07.21,2.31.44,3.69.68l-.39,2.06-.39,2.17c-2.76-.5-13.36-2.26-24.57-4.16l-3.88-.66.4-2.09h.01ZM502.15,492.09c-.3,1.79-.63,3.57-.98,5.35,3.66.3,5.56.44,6.99.52l3.03.2-.03-5.34-9.01-.73ZM469.27,489.37c7.11.62,15.8,1.34,25.35,2.12l-.84,5.34-9.69-.8-15.66-1.33.84-5.33ZM598.02,494.79c-13.43-1.04-35.68-2.77-57.23-4.45-.13-7.35-.32-19.25-.62-37.82l-.19-12.71,1.74.14c.95.08,4.18.42,7.18.73,22.22,2.38,44.52,8.47,70.11,19.13,10.91,4.55,24.58,11.33,33.13,16.47,3.56,2.1,4.52,2.84,4.23,3.09-.2.23-16.58,4.38-24.99,6.37-3.98.93-11.19,2.83-16.05,4.21-4.88,1.37-12.29,3.48-16.5,4.63l-.81.22h0ZM368.07,494.66c-7.12-1.26-21.56-3.5-26.82-4.21-5.44-.73-7.97-1.21-7.97-1.46,0-.11.39-.64.84-1.21.48-.56,1.82-2.49,3-4.26,1.18-1.8,4.1-5.97,6.45-9.28,3.95-5.56,9.51-13.47,13.52-19.3,5.83-8.45,6.12-8.75,9.06-9.26,2.75-.45,2.47-1.15,2.47,6.4,0,8.54-.3,30.19-.56,42.59h.01ZM433.9,485.87c-.32,1.95-.69,3.88-1.07,5.82l9.29.8c3.56.31,9.79.84,13.83,1.18l4.95.41.18-1.15c.14-.79.28-1.57.42-2.36l.35-1.86c-3.95-.36-7.05-.66-9.05-.88-5.02-.56-12.63-1.35-16.92-1.77l-1.99-.2h.01ZM299.09,488.6l-.71,4.52c-15.85-2.69-21.57-3.75-22.98-4.22-1.29-.45-1.38-.76-.7-3.28l.31-1.15,1.6.2c1.54.17,15.03,2.55,22.49,3.94h0ZM326.15,474.85c4.41.81,8.61,1.49,9.34,1.49.73.03,1.32.14,1.32.25,0,.14-.9,1.49-2.02,3-1.1,1.51-2.95,4.1-4.12,5.75-1.18,1.68-2.3,3.03-2.49,3.03s-.87-.14-1.52-.31c-.64-.14-5.5-1.01-10.74-1.91-12.03-2.02-11.05-1.8-10.58-2.5.39-.56,8.53-8.14,10.55-9.82.67-.56,1.18-.79,1.6-.64.34.08,4.23.84,8.67,1.65h-.01ZM511.13,488.02c-17.7-1.39-30.63-2.43-30.66-2.48-.22-.34,4.71-9.28,9.01-16.92,1.8-3.14,3.28-5.78,3.34-5.84.08-.11,14.61,6.79,16.92,8.02l1.32.73.06,13.33.02,3.15h-.01ZM248.3,479.06c2.75.56,7.77,1.51,11.19,2.1,3.39.62,6.26,1.21,6.37,1.29.22.22-.42,4.74-.7,4.8-.73.08-21.76-4.02-22.04-4.3-.08-.08,0-1.23.22-2.58.36-2.36.39-2.41,1.12-2.24.39.08,1.08.38,3.83.94h.01ZM479.24,457.74c7.77,2.67,7.8,2.67,7.8,3,0,.36-3.93,8.16-7.38,14.67-1.4,2.67-4.63,8.3-4.74,8.7-.23.67-.28.7-2.61.51-3.56-.25-13.72-1.35-15.01-1.57l-1.1-.22,1.07-1.77c.59-.95,4.91-8.28,7.24-12.43,6.45-11.59,7.6-13.38,8.36-13.07.25.08,3.11,1.1,6.37,2.19h0ZM318.07,453.56c.64,1.57,1.74,4.04,2.44,5.5s1.26,2.72,1.26,2.78c.03.34-6.96,7.15-11.25,10.97-4.46,4.01-7.27,6.87-9.37,9.68l-.76.98-2.5-.48c-5.39-1.04-16.38-3.14-17.64-3.37l-1.32-.25,1.04-.79c.56-.42,3.45-2.61,6.42-4.85s5.72-4.32,6.09-4.63c.45-.35,1.76.07,3.93,1.26,4.8,2.69,7.41,3.87,8.5,3.87.87,0,.95-.08.95-.81,0-1.18-1.21-3.56-3.54-7.04-1.12-1.68-2.05-3.11-2.05-3.2,0-.06.62-.53,1.4-1.07.76-.51,2.67-1.96,4.21-3.2,1.52-1.23,4.41-3.45,6.37-4.94s3.67-2.84,3.79-3c.45-.76.95-.11,2.02,2.58h0ZM452.17,464.64c3.06.56,6.26,1.12,7.13,1.23.95.11,1.51.31,1.43.53-.09.17-3.62,6.23-5.5,9.65l-3.39,6.17-2.02-.06c-1.88-.08-11.28-1.04-14.28-1.49l-1.4-.23,2.41-3.53c1.34-1.97,5.19-8.19,6.17-10.02,2.1-3.93,1.32-3.73,9.45-2.27v.02h0ZM225.6,474.23c3.73.84,9.02,1.84,9.41,1.92.67.17.67.23.56,2.64-.08,1.35-.2,2.53-.28,2.58-.08.08-.59.03-1.15-.14-1.18-.36-13.33-2.96-15.86-3.47-1.71-.34-1.71-.37-1.54-1.26.11-.51.28-1.63.37-2.5.2-1.51.22-1.6.95-1.46.42.09,3.82.81,7.54,1.68h0ZM338.27,136.75c-1.26,6.7-1.07,23.82.34,32.32,1.74,10.55,5.5,21.4,9.87,28.45.73,1.18,1.23,2.3,1.12,2.52-.17.39-1.63,1.68-6.82,5.97-3.84,3.2-8.22,7.1-14.95,13.38-32.18,29.99-60.76,59.78-80.88,84.27-19.27,23.48-34.56,46.51-44.97,67.75-3.31,6.76-5.81,12.29-7.94,17.53-8.08,19.81-13.66,40.57-15.54,57.74-.25,2.27-.56,4.77-.7,5.53-.17.79-.2,1.4-.14,1.4.08,0,.9-.45,1.82-1.01,7.07-4.26,14.06-6.71,22.86-8.02,4.88-.73,18.07-.73,23.54,0,13.8,1.85,28.14,6,43.48,12.63,3.87,1.68,19.44,9.4,19.41,9.65,0,.08-1.15.95-2.52,1.91-1.38.95-4.38,3.31-6.68,5.22-6,4.99-5.05,4.71-11.17,3.42-2.81-.59-8.28-1.74-12.17-2.58-22.16-4.63-29.99-6.31-46.23-9.9-9.9-2.19-21.88-4.77-26.65-5.75-4.8-.98-13.47-2.89-19.3-4.23-13.63-3.17-14.36-3.28-15.35-2.67-1.46.95-1.66,3.28-.42,4.94.65.9.7,1.18.65,3.28l-.06,1.46-1.54-.23c-4.6-.59-22.78-5.84-51.48-14.78-5.41-1.71-12.79-3.95-16.36-4.99s-8.86-2.69-11.78-3.65c-2.92-.95-10.07-3.2-15.91-5.02-5.84-1.8-10.72-3.4-10.83-3.51-.14-.11.53-.56,1.46-.95,7.97-3.51,25.39-11.33,30.1-13.52,1.37-.64,2.52-1.15,2.58-1.15s-.62,1.46-1.51,3.25c-2.97,5.92-7.8,17.79-7.8,19.16,0,.62,1.35.17,5.55-1.91,6.82-3.34,14.62-5.72,22.78-7.01,3.56-.56,5.41-.64,12.04-.64,7.04,0,8.25.06,12.54.79,12.03,1.96,22.33,5.67,31.48,11.28,8.58,5.28,20.25,12.23,20.37,12.12.14-.14-1.54-3.34-4.54-8.75-6.48-11.64-10.16-20.82-12.12-30.35-5.95-28.7-.31-56.64,18.18-89.83,4.29-7.71,10.21-17.03,15.09-23.71,14.78-20.31,27.97-35.77,54.73-64.22,3.99-4.21,9.04-9.59,11.22-11.92,8-8.53,29.37-30.58,45.36-46.82,18.24-18.52,39.56-39.95,39.84-40.03.08-.03.08.51-.06,1.21v-.03h.01ZM200.13,468.45c3.31.73,6.87,1.49,7.88,1.68,1.01.22,1.85.5,1.85.64,0,.34-.93,4.77-1.04,4.85-.03.06-1.43-.25-3.14-.64-1.68-.39-5.58-1.18-8.64-1.8-3.09-.59-5.69-1.18-5.78-1.29-.14-.14.39-4.99.59-5.22,0-.03.53.06,1.12.2.62.14,3.84.87,7.15,1.57h.01ZM356.06,448.98c-2.22,3.59-8.33,12.43-12.04,17.28-1.15,1.54-2.52,3.45-3.06,4.23l-.98,1.43-2.1-.2c-5.19-.51-17.87-2.47-17.84-2.78.03-.11,1.09-1.04,2.41-2.1,1.29-1.04,3.03-2.67,3.87-3.62,4.04-4.6,11.64-8.64,24.18-12.9,5.36-1.8,5.92-1.94,5.56-1.35h0ZM159.2,459.67c1.04.22,5.36,1.07,9.57,1.91,4.21.81,9.34,1.91,11.42,2.41l3.76.9-.2,2.24c-.11,1.23-.28,2.33-.39,2.47-.11.11-2.52-.31-5.33-.95-5.61-1.29-17.11-3.87-19.78-4.46-2.44-.5-2.38-.45-2.13-3.06.17-1.91.28-2.21.67-2.08.28.11,1.35.39,2.41.62h0ZM527.86,182.11c-.42,7.18-.95,16.52-1.21,20.82-.67,12.01-.62,11.47-1.71,11.95-1.26.51-22.67,7.71-39.08,13.13-13.13,4.32-15.49,5.19-16.36,6.06-.62.62-.53.93.48,1.88l.93.87-.56,6.4c-.45,5.24-.53,9.28-.53,22.16,0,15.23.03,16.02.81,22.98,2.58,22.84,6.87,43.62,13.97,67.47,4.54,15.32,10.21,31.34,23.87,67.61,1.26,3.4,2.92,7.83,3.68,9.85,5.36,14.73,8.19,22.22,9.96,26.45,1.12,2.69,1.99,4.94,1.94,4.99-.23.22-1.88-2.61-9.17-15.68-15.48-27.69-23.42-44.16-33.27-68.93-3.98-10.04-5.5-14.22-8.86-24.94-3.23-10.24-4.1-13.21-5.72-19.69-6.65-26.4-9.26-47.61-8.73-71.12.25-11.5.9-18.55,2.72-29.6,2.78-16.97,5.97-27.74,12.26-41.41,3.14-6.84,3.25-7.04,4.85-8,1.57-.95,5.92-2.92,6.06-2.72.03.06.65,1.85,1.35,3.93,1.35,3.99,4.91,12.57,5.78,13.91.59.9.81.73,1.46-1.26.76-2.36,2.89-6.31,4.99-9.34,5.97-8.56,13.27-14.53,24.91-20.28l5.75-2.86.11,1.21c.03.64-.25,7.01-.67,14.17h0ZM459.8,451.23c3.73.95,7.13,1.88,7.58,2.05l.81.31-1.32,2.05c-.73,1.12-1.68,2.86-2.1,3.84-.45,1.07-.95,1.8-1.23,1.8-.22,0-1.96-.25-3.84-.56s-5.42-.87-7.86-1.23c-2.41-.36-4.52-.73-4.63-.84-.11-.08.53-1.24,1.43-2.53.9-1.29,2.1-3.31,2.67-4.49.59-1.18,1.21-2.13,1.4-2.13.17,0,3.36.78,7.1,1.74h-.01ZM385.01,173.1c-.23,5.67-.93,26.09-1.23,35.46-.11,3.2-.28,5.92-.39,6.06-.08.14-.79.51-1.49.76-16.94,6.2-43.45,15.6-51.7,18.35-6.9,2.27-7.29,2.69-4.94,5.22.98,1.04,2.1,1.07,3.82.06.73-.42,1.38-.7,1.43-.64.08.08-1.21,3.7-2.83,8.05-13.44,35.8-20.14,62.78-23.54,94.96-2.61,24.63-2.3,43.29,1.04,64.52,2.19,13.72,4.32,22.89,7.97,33.89l2.27,6.87-1.15,1.01c-1.12.98-11.48,8.92-14.2,10.89-.73.53-1.46.93-1.63.87-.48-.14-5.33-10.55-7.55-16.13-2.19-5.47-3.95-11.14-6.06-19.27-5.13-19.72-7.52-38.6-7.52-59.45,0-22.33,3.23-41.97,10.58-64.07,6.59-19.89,12.74-32.32,28-56.61,4.18-6.65,4.88-7.66,8.13-11.64,1.35-1.63,4.85-5.92,7.83-9.57,4.6-5.67,13.44-16.07,16.69-19.69.53-.59,1.74-2.69,2.72-4.69,2.25-4.71,3.39-6.59,6.28-10.21,6.76-8.53,13.35-13.66,23.71-18.46,2.05-.95,3.76-1.74,3.84-1.74.06,0,0,2.36-.08,5.22v-.02h0Z"/>
  </g>
</svg>