<?xml version="1.0" encoding="UTF-8"?>
<svg id="Layer_1" xmlns="http://www.w3.org/2000/svg" version="1.1" viewBox="0 0 302.5 308.79">
  <!-- Generator: Adobe Illustrator 30.3.0, SVG Export Plug-In . SVG Version: 2.1.3 Build 182)  -->
  <path d="M90.02,0l-45.13,112.63h90.26L90.02,0h0ZM41.48,123.23v185.56h27.36v-47.66c13.26-14.62,27.24-16.95,42.36,0v47.66h26.48V123.23H41.48ZM63.54,134.04h10.59v21.18h-10.59v-21.18h0ZM84.73,134.04h10.59v21.18h-10.59v-21.18h0ZM105.91,134.04h10.59v21.18h-10.59v-21.18h0ZM148.27,165.62v143.17h31.77v-109.21c-5.77-6.62-11.65-13.14-17.63-19.57-4.9-5.25-9.97-10.49-14.05-14.31-.04-.03-.06-.05-.09-.08h0ZM30.89,166.46c-3.94,3.75-8.66,8.62-13.26,13.55-5.99,6.42-11.86,12.95-17.63,19.57v109.21h30.89v-142.33h0ZM90.02,171.33c20.48,0,37.19,15.97,37.19,35.53s-16.72,35.53-37.19,35.53-37.19-15.97-37.19-35.53,16.72-35.53,37.19-35.53h0ZM84.06,182.32c-3.09.67-6.05,1.88-8.72,3.58l8.72,8.58v-12.16h0ZM95.98,182.32v13.14l10.02-8.66c-2.92-2.12-6.32-3.66-10.02-4.47h0ZM67.77,193.31c-1.8,2.69-3.04,5.72-3.66,8.9h12.71l-9.05-8.9ZM113.11,194.66l-8.75,7.56h11.57c-.51-2.66-1.47-5.22-2.82-7.56h0ZM190.63,203.54v19.86h103.44l-19.86-19.86h-83.58ZM64.78,214.13c.65,2.09,1.58,4.07,2.76,5.91l6.84-5.91h-9.6,0ZM104.04,214.13l7.47,7.34c1.66-2.22,2.93-4.7,3.76-7.34h-11.23ZM84.06,219.76l-9.04,7.82c2.76,1.81,5.82,3.1,9.04,3.8v-11.62h0ZM95.98,221.06v10.32c2.65-.57,5.2-1.55,7.56-2.88l-7.56-7.43h0ZM190.63,235.31v72.81h111.87v-72.81h-111.87ZM207.18,250.54h11.91v21.18h-11.91v-21.18ZM228.36,250.54h11.91v21.18h-11.91v-21.18ZM249.55,250.54h11.91v21.18h-11.91v-21.18ZM270.73,250.54h11.91v21.18h-11.91v-21.18Z"/>
</svg>