<?xml version="1.0" encoding="UTF-8"?>
<svg id="Layer_1" xmlns="http://www.w3.org/2000/svg" version="1.1" viewBox="0 0 217.35 282.25">
  <!-- Generator: Adobe Illustrator 30.3.0, SVG Export Plug-In . SVG Version: 2.1.3 Build 182)  -->
  <path d="M70.82,199.38h-10.38v82.87h10.38v-82.87ZM127.91,282.25h-46.71v-66.19l46.71,66.19ZM187.33,282.25h-46.72l46.72-66.45v66.45ZM197.72,199.38v82.87h-1.66,12.05v-82.87h-10.39ZM16.51,282.25v-62.31h22.43v62.31h10.99v-82.56h-10.61l10.61-33.1v-31.39H5.52v147.04h10.99ZM129.08,265.89l-46.93-66.51h46.93v66.51ZM139.46,265.84v-66.46h46.72l-46.72,66.46ZM181.31,88.48h-94.08l-31.15,95.33h156.39l-31.15-95.33h-.01ZM27.72,145.49c6.19,0,11.22,5.03,11.22,11.22s-5.03,11.22-11.22,11.22-11.22-5.03-11.22-11.22,5.03-11.22,11.22-11.22ZM116.35,167.29h-22.43v-26.17l11.22-12.46,11.22,12.46v26.17h-.01ZM174.61,167.29h-22.43v-26.17l11.22-12.46,11.22,12.46v26.17h-.01ZM212.15,65.73h-23.05v11.84l23.05,69.16v-81h0ZM62.97,125.92l.58-41.18-6.85-17.13h77.57v11.84h-56.39l-14.91,46.48h0ZM0,115.48h55.45v-10.38H0v10.38ZM34.34,38.63h-13.23L0,93.46h55.45l-21.11-54.83ZM183.91,52.86h33.44v-10.38h-33.44v10.38ZM32.92,26.17V0h-10.38v26.17h10.38Z"/>
</svg>