<?xml version="1.0" encoding="UTF-8"?>
<svg id="Layer_1" xmlns="http://www.w3.org/2000/svg" version="1.1" viewBox="0 0 573 573.06">
  <!-- Generator: Adobe Illustrator 30.3.0, SVG Export Plug-In . SVG Version: 2.1.3 Build 182)  -->
  <defs>
    <style>
      .st0 {
        fill: #010101;
      }

      .st1 {
        stroke: #f1f2f2;
        stroke-miterlimit: 10;
        stroke-width: 2px;
      }

      .st1, .st2 {
        fill: #d1d3d4;
      }
    </style>
  </defs>
  <g id="Layer_2">
    <g>
      <path class="st0" d="M436.99,150.43s-.08-.03-.08-.08c-.04-83.04-67.37-150.35-150.42-150.35s-150.38,67.3-150.42,150.35c0,.04-.03.08-.08.08h-21.33s-.08.03-.08.08v315.01s.03.08.08.08h343.67s.08-.03.08-.08V150.51s-.03-.08-.08-.08h-21.34Z"/>
      <path class="st2" d="M365.28,148.52h-157.11c-8.56,0-15.48-7.02-14.75-15.55.62-7.34,6.77-13.1,14.28-13.1h157.11c8.56,0,15.48,7.02,14.75,15.55-.62,7.34-6.77,13.1-14.28,13.1h0Z"/>
      <path class="st0" d="M114.58,494.26h343.83c15.83,0,28.66,12.83,28.66,28.66v50.14H85.93v-50.14c0-15.83,12.83-28.66,28.66-28.66h-.01Z"/>
    </g>
  </g>
  <g id="Layer_3">
    <g>
      <path class="st1" d="M151.63,248.55v-65.56l25.13,24.73.58,4-3.41-1.18-18.34-18.34.07,65.67-25.17-24.8-1.32-3.85,3.81.84,18.63,18.49h.02Z"/>
      <path class="st1" d="M215.44,209.56l22.6,22.63-22.6,22.6-3.08,3.08-25.68-25.68,22.6-22.63-21.09-21.09-2.27-5.36,5.36,2.27,21.09,21.13,21.13-21.13,5.36-2.27-2.27,5.36-21.13,21.09h-.02ZM192.85,232.15l19.56,19.55,19.52-19.52-19.56-19.55-19.52,19.52Z"/>
      <path class="st1" d="M277.36,257.87l-29.94-30.34v-39.37l2.09-5.17,2.05,5.17v37.57l21.72,21.98v-59.54l2.05-5.17,2.09,5.17-.07,69.7h.01Z"/>
      <path class="st1" d="M326.18,252.63v-69.7l22.2,22.89,2.46,5.32-4.92-2.09-15.52-16.43v15.66l17.98,18.89,2.46,5.32-4.92-2.13-15.52-16.4v38.67l-2.13,5.24-2.09-5.24h0Z"/>
      <path class="st1" d="M362.18,226.62v26.01l-2.09,5.24-2.09-5.24-.04-70.15,22.16,21.86-17.2,17.32,20.14,20.29,2.82,5.32-5.62-2.49-18.09-18.16h.02-.01ZM374.47,204.35l-12.29-12.36v24.69l12.29-12.33h0Z"/>
      <path class="st1" d="M414.81,204.53l21.64-21.64-.03,69.74-2.09,5.24-2.13-5.24v-59.84l-17.39,17.76-17.39-17.76v59.84l-2.09,5.24-2.13-5.24-.04-69.7,21.64,21.61h.01Z"/>
      <path class="st1" d="M235.27,342.79v-69.7l22.2,22.89,2.46,5.32-4.92-2.09-15.52-16.43v15.66l17.98,18.89,2.46,5.32-4.92-2.13-15.52-16.4v38.67l-2.13,5.24-2.09-5.24h0Z"/>
      <path class="st1" d="M292.52,298.54l2.86,5.28-5.5-2.05-18.57-18.79v59.8l-2.09,5.24-2.13-5.24v-69.78l25.43,25.53h0Z"/>
      <path class="st1" d="M328.16,298.54l2.86,5.28-5.5-2.05-18.57-18.79v59.8l-2.09,5.24-2.13-5.24v-69.78l25.43,25.53h0Z"/>
      <path class="st1" d="M142.19,432.25v-23.53c0-1.16,0-1.53,0-1.08v1.36c0,.46,0,.56,0,.28v-16.73c0-5.69,0-13.7.03-24.05l2.17-5.36,2.17,5.36v12.21l13.9-14.67,5.43-2.53-2.9,6.2-16.43,17.17v11.22l31.29-32.06,5.43-2.53-2.9,6.2-33.83,34.56v27.99l-2.17,5.4-2.2-5.4h.01Z"/>
      <path class="st1" d="M191.33,363.32l29.94,30.38v39.33l-2.09,5.17-2.09-5.17.03-37.53-21.72-21.98v59.51l-2.05,5.17-2.09-5.17.07-69.7h0Z"/>
      <path class="st1" d="M227.96,400.74l23.88-23.92,5.47-2.53-2.17,5.1-21.38,21.35,21.38,21.39,2.2,5.1-5.5-2.53-23.88-23.96h0Z"/>
      <path class="st1" d="M263.97,400.74l23.88-23.92,5.47-2.53-2.17,5.1-21.39,21.35,21.39,21.39,2.2,5.1-5.5-2.53-23.88-23.96h0Z"/>
      <path class="st1" d="M322.32,384.85l21.64-21.64-.03,69.74-2.09,5.24-2.13-5.24v-59.84l-17.39,17.76-17.39-17.76v59.84l-2.09,5.24-2.13-5.24-.04-69.7,21.64,21.61h0Z"/>
      <path class="st1" d="M421.82,363.43v74.74l-34.96-34.64-35,34.67v-74.84l35,34.67,34.96-34.6h0ZM383.77,400.77l-27.7-27.74v55.47l27.7-27.74h0ZM389.97,400.77l27.74,27.74v-55.47l-27.74,27.74h0Z"/>
    </g>
  </g>
</svg>