<?xml version="1.0" encoding="UTF-8"?>
<svg id="svg1" xmlns="http://www.w3.org/2000/svg" version="1.1" xmlns:inkscape="http://www.inkscape.org/namespaces/inkscape" xmlns:sodipodi="http://sodipodi.sourceforge.net/DTD/sodipodi-0.dtd" xmlns:svg="http://www.w3.org/2000/svg" viewBox="0 0 2038.15 2093.96">
  <!-- Generator: Adobe Illustrator 30.3.0, SVG Export Plug-In . SVG Version: 2.1.3 Build 182)  -->
  <sodipodi:namedview id="namedview1" bordercolor="#000000" borderopacity="0.25" inkscape:deskcolor="#d1d1d1" inkscape:pagecheckerboard="0" inkscape:pageopacity="0.0" inkscape:showpageshadow="2" pagecolor="#ffffff"/>
  <path id="path1" d="M863.32.1c-11.33.63-17.13,7.64-17.38,21.05-.42,20.75-.48,61.23-.19,121.44.02,3-.22,6.27-.7,9.81-.1.72-.76,1.21-1.48,1.12h-.02c-19.55-3.2-41.44-6.9-65.66-11.12-13.13-2.28-43.03-6.09-89.71-11.43-9.49-1.09-18.31,4.46-12.5,14.65.86,1.5,2.23,2.61,4.12,3.32,10.46,4,18.36,4.7,23.56,15.45,28.72,59.44,32.97,129.91,14.41,192.64-9.66,32.6-23.46,62.84-41.42,90.71-.3.46-.18,1.07.28,1.38.25.16.55.21.83.12,54.19-16.61,110.02-25.05,167.48-25.31.35,0,.63.28.63.63v30.18c0,.77-.6,1.41-1.38,1.48-1.73.13-6.07.37-13.03.72-4.83.24-7.28,2.43-7.37,6.57-.06,3.08-.06,8.55,0,16.4.07,9.23,13.18,7.44,20.06,7.41.92-.01,1.68.74,1.69,1.67v31.29c0,.68-.54,1.24-1.23,1.24h-.15c-54.4-6.52-115.75-14.48-184.05-23.88-8.04-1.09-31.8-4.5-32.43,6.57-.75,13.15,16.23,14,27.27,16.13,3.21.61,5.59,2.26,7.12,4.94,28.69,49.93,42.27,103.83,40.72,161.72-1.28,48.44-10.34,90.05-31.41,132.94-8.83,18-17.16,34.45-25,49.33-1.02,1.94-1.85,4.08-2.49,6.42-.15.51.15,1.05.66,1.2.19.05.39.05.57-.01,42.4-12.97,86.26-21.7,131.59-26.21,1.65-.18,4.35-.31,8.11-.41,6.61-.19,13.83-2.06,20.18-2.11,10.27-.08,23.89-1,40.86-2.74.77-.08,1.46.47,1.54,1.23v94.27c0,1.08-.89,1.96-1.97,1.95-.07,0-.14,0-.21-.01-99.53-11.38-177.39-20.32-233.6-26.81-5.75-.66-10.23-.62-13.44.12-.95.21-1.81.69-2.49,1.38-5.07,5.09-4.75,9.94.95,14.56,8.22,6.65,17.2,10.96,26.95,12.93,2.16.44,4.01,1.84,5.04,3.8,33.86,64.42,46.07,135.92,36.6,208.14-3.28,25.03-7.58,46.97-12.91,65.83-15.06,53.31-41.22,106.06-72.42,154.62-1.18,1.82-2.46,4.72-3.85,8.67-.3.89.17,1.85,1.06,2.15.41.14.87.12,1.26-.07,11.72-5.7,23.56-10.52,35.51-14.46,24-7.9,53.31-16.81,80.14-23.35.61-.16,1.23.22,1.38.84.05.22.05.45-.03.66l-54.08,152.25c-.41,1.15-1.47,1.94-2.69,2.01-6.67.36-12.35.63-17.05.82-16.18.73-25.58,1.74-34.54-12.23-11.6-18.07-20.44-35.48-34.88-54.67-1.12-1.5-2.67-2.63-4.46-3.25-4.49-1.55-8.51-2.35-12.06-2.4-14.6-.23-26.22-1.19-34.87-2.9-.83-.17-1.43-.91-1.43-1.77v-87.14c0-.72.57-1.31,1.28-1.31h.05c22.27.68,43.56,4.01,63.87,10,2.76.81,5.2-.27,7.31-3.22,4.02-5.65,8.19-12.58,12.5-20.78,9.24-17.54,18.2-35.99,26.88-55.37,13.79-30.68,23.53-63.41,29.23-98.19.73-4.46.05-9.29-2.03-14.48-6.04-15.1-11.04-26.52-15-34.27-.21-.4-.05-.9.36-1.11.16-.08.34-.11.52-.08,22.31,3.73,24.51-20.17,3.44-23.59-30.97-5.04-64.34-9.71-100.1-14-.91-.12-1.56-.95-1.44-1.86v-.06l12.52-77.53c.11-.62.68-1.04,1.29-.94.02,0,.05,0,.07.01,27.59,6.22,52.39,18.32,74.4,36.31,5.31,4.34,10.76,8.8,16.35,13.37,1.27,1.03,3.13.84,4.16-.43.12-.15.23-.32.32-.49,1.66-3.16,2.19-6.7,1.58-10.59-3.52-22.54-10.28-45.7-20.27-69.49-2.13-5.09-4.6-8.23-7.39-9.42-17.39-7.46-37.23-14.63-39.6-35.19-2.93-25.29,14.95-37.64,37.86-40.09,1.78-.18,3.35-1.26,4.16-2.86,9.09-17.99,24.36-47.85,45.8-89.59,3.96-7.7,6.51-14.03,7.68-18.99.43-1.87.51-3.8.22-5.69-3.23-21.23-9.78-40.13-19.64-56.7-.23-.38-.11-.87.27-1.1.13-.08.28-.12.43-.11,8.53.07,21.02.9,20.2-11.36-.73-11.17-12.33-11.73-22.09-13.37-32.44-5.47-79.56-13.06-141.37-22.76-1.32-.21-2.3-1.36-2.3-2.72v-82.22c0-.62.49-1.12,1.09-1.12h.05c40.59,1.58,75.39,16.84,104.39,45.78.96.95,2.51.95,3.46-.01.12-.12.23-.25.32-.4,2.94-4.55,5.53-9.65,7.77-15.28,9.35-23.41,14.61-47.74,15.79-73,.03-.87-.4-1.67-1.14-2.11-6.9-4.04-12.19-6.54-16.84-11.04-9.82-9.46-12-20.24-6.56-32.31,4.63-10.29,14.05-15.26,24.39-18.16.76-.23,1.22-.98,1.06-1.74-4.57-22.61-11.7-44.03-21.39-64.28-.27-.55-.04-1.22.51-1.49.19-.09.4-.13.61-.11,7.53.8,19.08,1.6,20.71-8.52.87-5.52-5.09-10.46-9.86-11.43-43.47-8.91-84.92-16.22-124.37-21.92-1.01-.13-1.77-1-1.77-2.03.15-80.18.18-123.43.1-129.75-.15-10.51-3.54-19.93-14.63-22.14-11.41-2.28-18.7,4.82-18.99,15.84-.4,14.44-.47,53.47-.19,117.1.02,3.86-.09,8.23-.31,13.1-.02.51-.45.9-.96.88h-.08c-42.3-6.85-74.43-11.59-96.37-14.24-2.55-.32-8.77-1.4-18.67-3.22-8.86-1.62-17.61-1.12-19.89,7.94-3.44,13.78,12.79,16.03,22.62,17.63,1.14.19,2.18.72,2.98,1.53,1.66,1.63,3.15,3.74,4.46,6.32,8.57,16.74,14.21,35.27,16.91,55.56,6.54,49.34-1.71,96.68-24.75,142.02-5.26,10.37-9.76,18.76-13.49,25.19-.7,1.2-.3,2.74.9,3.45.45.26.97.38,1.49.33,2.58-.24,5.37-.9,8.36-1.96,25.37-8.99,51.82-14.55,79.37-16.66,21.12-1.61,32.8-2.53,35.04-2.74.76-.07,1.43.48,1.5,1.23v79.96c0,.62-.49,1.12-1.1,1.13h-.16c-96.3-12.76-141.49-17.68-193.57-26.79-5.51-.97-10.76,2.71-11.73,8.21,0,.05-.02.09-.02.14l-.31,1.96c-1.06,6.6,3.43,12.81,10.03,13.88l13.32,2.16c1.66.26,3.12,1.28,3.95,2.76,6.1,10.85,10.87,21.59,14.29,32.21,9.11,28.22,15.15,57.43,18.14,87.6,3.31,33.49.85,69.28-7.39,107.39-9.78,45.29-27.53,87.94-53.24,127.95-.41.67-.22,1.55.44,1.97.34.22.75.27,1.14.16,32.63-9.61,66.86-16.58,102.69-20.92,41.16-4.97,74.86-6.43,101.12-4.36.7.05,1.24.63,1.23,1.33v80.26c0,.49-.4.9-.91.9h-.11c-86.11-9.12-142.74-15.02-169.9-17.68-5.28-.52-9.16.15-11.65,1.99-7.8,5.79-3.44,17.29,5.33,19.18,6.26,1.34,10.78,2.22,13.54,2.64,1.56.24,2.9,1.24,3.59,2.66,7.43,15.71,13.61,31.29,18.55,46.72,25.87,80.75.89,166.32-45.37,234.2-.35.52-.22,1.23.3,1.58.27.18.6.24.91.16,30.39-6.99,57.69-13.02,81.89-18.09,7.59-1.58,13.94-2.53,19.06-2.83.37-.03.7.25.73.63,0,.08,0,.15-.02.22l-15.89,68.42c-.21.85-1.01,1.41-1.86,1.33-9.9-1-17.74-1.74-23.52-2.23-5.75-.48-13.4-2.5-22.96-6.05-35.57-13.22-64.18-23.71-85.83-31.46-.67-.23-1.11-.86-1.11-1.58.07-40.06-1.02-61.06,1.79-98.33,5.78-76.76,12.13-149.72,19.04-218.87.63-6.23,1.63-11.83,3-16.78.24-.88-.22-1.8-1.07-2.13-9.81-3.75-19.4-9.52-17.31-22.02,2.4-14.36,10.46-28.34,17.73-44.57,2.42-5.41,4.98-13.66,7.68-24.75,10.85-44.61,19.63-89.58,26.33-134.91.28-1.95-1.02-3.77-2.96-4.14-3.02-.57-5.47.96-7.36,4.57-8.33,16.03-15.91,34.42-24.17,51.68-37.22,77.67-64.01,133.4-80.38,167.19-10.71,22.09-26.69,50.91-35.17,68.81-34.62,72.9-68.59,142.16-101.92,207.78-.5.99-1.59,1.52-2.67,1.31-11.92-2.35-30.01-8.94-30.61,10.34-.19,6.3,6.03,9.01,10.85,11.02,65.28,27.17,126.79,52.05,184.51,74.62.49.21.73.78.52,1.27-.12.29-.38.5-.69.57l-20.06,3.8c-2.83.54-4.92,2.95-5.06,5.81-.11,2.18.27,6.07,1.14,11.67,1.53,9.95,5.63,37.29,12.28,82.03.48,3.33,1.91,10.65,4.29,21.97,1.09,5.26,3.41,7.38,8.09,9.37,13.45,5.7,25.16,10.69,35.14,14.95,5.04,2.15,7.83,5.05,8.38,8.69,7.86,50.93,25.69,98.39,53.48,142.41.87,1.38.46,3.2-.92,4.08-.05.03-.1.06-.15.09-47.08,26.3-98.72,37.61-152.17,26.88-9.82-1.97-18.89-4.21-27.22-6.73-.98-.31-2.03.25-2.33,1.23-.12.39-.11.81.03,1.19,5.3,14.92,32.7,29.04,47.83,34.61,39.82,14.68,80.13,17.7,120.93,9.08,23.51-4.97,47.25-12.45,71.21-22.43,29-12.06,56.01-23.18,81.02-33.35,32.23-13.11,65.43-22.25,99.61-27.42,51.77-7.8,101.93-1.53,150.48,18.79,7.54,3.15,20.6,8.48,39.19,15.98,60.31,24.38,122.51,25.93,186.61,4.65,60.33-20.05,123.33-55.97,191.44-57.55,23.53-.53,44.41.12,62.65,1.96,45.12,4.6,87.29,20.85,130.52,40.35,29.16,13.15,62.61,30.2,91.75,41.85,25.72,10.29,58.2,19.41,97.46,27.37,35.25,7.14,70.34,9.48,105.29,7.02,10.54-.74,20.21-2.47,28.99-5.18.49-.14,1,.14,1.14.62.09.3.02.63-.2.86-14.22,15.45-39.52,23.81-60.3,27.13-52.97,8.45-106.54,1.28-157.04-16.06-39.87-13.66-85.21-32.72-121.78-49.7-76.61-35.51-155.95-55.05-237.77-32.41-39.02,10.8-81.35,29.79-112.67,41.06-43.77,15.73-89.11,22.11-136.02,19.16-22.43-1.42-43.63-6.12-63.6-14.1-24.22-9.66-45.02-17.46-62.39-23.42-67.45-23.08-136.48-19.42-201.87,6.85-52.54,21.12-95.1,38.05-127.67,50.81-19.38,7.59-41.16,13.81-65.35,18.65-13.22,2.64-26.33,2.98-38.53,3.49-2,.1-3.58.82-4.74,2.18-1.06,1.26-.89,3.14.37,4.2.07.06.14.11.22.16,45.29,31.53,95.7,46.17,151.23,43.91,25.93-1.05,52.08-5.06,78.45-12.04,37.15-9.81,76-21.87,117.2-30.44,26.64-5.54,54.29-7.47,82.93-5.79,33.93,2.01,68.16,12.86,99.38,26.88,54.93,24.7,84.84,40.04,131.1,48.83.5.1.82.59.72,1.09-.06.32-.29.58-.59.68-18.48,6.35-40.84,5.45-62.08,2.03-10.72-1.73-24.73-5.67-42.02-11.82-33.64-11.94-67.43-22.28-101.63-28.63-29.6-5.47-60.18-5.2-87.67,1.48-19.59,4.75-35.29,9.6-47.11,14.56-23.69,9.95-41.09,17.1-52.22,21.46-37.04,14.5-74.93,21.19-113.66,20.06-1.43-.04-2.62,1.09-2.66,2.52,0,.29.03.57.12.84.15.47.74,1.09,1.77,1.87,47.83,36.04,121.02,41.51,178.52,32.06,49.21-8.07,100.78-25.02,152.71-14.63,15.57,3.12,36.35,12.54,53.48,19.23,19.83,7.75,40.56,11.68,62.2,11.8.7,0,1.26.57,1.25,1.27,0,.41-.21.8-.55,1.03-2.41,1.7-4.96,3.19-7.65,4.48-38.96,18.57-80.99,26.29-126.07,23.16-12.5-.86-25.15-2.18-37.95-3.97-2.99-.42-5.47.1-7.44,1.55-.98.73-1.18,2.11-.45,3.08.1.14.22.27.36.38,45.22,37.64,108.92,48.37,164.7,35.17,43.67-10.34,87.8-42.45,115-57.28,44.47-24.24,92.3-40.74,143.86-37.59,44.47,2.71,84.07,16.57,118.8,41.56.37.26.46.78.21,1.14-.16.23-.42.35-.69.34-5.68-.15-12.02-.91-19.02-2.28-33.86-6.65-66.37-9.29-97.53-7.92-17.65.78-33.39,3.48-47.23,8.11-35.99,12.01-69.97,30.52-105.89,49.75-21.68,11.63-46.11,21.68-62.24,27.88-1.95.76-4.07,1.92-6.34,3.49-.73.51-.93,1.52-.43,2.25.15.22.35.4.59.52,7.8,4.02,16.54,7.22,26.23,9.61,57.82,14.26,114.32,10.99,169.49-9.81,49.51-18.65,77.65-32.6,119.6-31.97,21.27.32,45.95,3.34,74.04,9.06,56.32,11.45,111.06,8.05,164.23-10.19,21.93-7.52,41.4-18.16,58.4-31.9,1.82-1.47,3.02-3.01,3.58-4.63.32-.89-.14-1.88-1.03-2.2-.29-.1-.6-.13-.9-.07-21.01,3.89-41.51,6.36-61.5,7.41-28.93,1.5-57.14-1.06-84.62-7.68-.5-.14-.8-.65-.67-1.16.09-.35.38-.62.74-.68,23.17-3.84,45.35-11.51,66.53-22.99,38.05-20.64,69.56-37.9,111.15-40.45,8.91-.55,23.06.32,42.43,2.59,15.63,1.82,29.77,2.91,42.43,3.27,50.38,1.4,97.27-17,136.62-48.63,5.39-4.34,10.12-8.86,14.19-13.56.41-.48.35-1.2-.12-1.61-.25-.21-.57-.31-.89-.26-10.72,1.57-21.3,3.09-31.73,4.58-46.08,6.6-91.39,3.7-135.92-8.72-.66-.18-1.05-.85-.87-1.51.12-.44.47-.79.92-.89,27.32-6.52,48.59-16.47,78.67-30.18,33.37-15.23,58.15-16.45,106.23-23.37,56.5-8.14,125.92-37.3,154.84-90.1.44-.83.13-1.85-.68-2.29-.32-.17-.68-.23-1.03-.18-1.23.18-2.16.41-2.81.7-13.3,6.09-25.5,10.86-36.58,14.31-65.13,20.22-128.8-6.32-191.09-24.75-48.17-14.27-97.75-18.63-145.22,3.87-2.65,1.26-12.58,6.25-29.79,14.97-12.89,6.54-27.17,10.71-42.87,12.52-.49.06-.94-.29-1-.78-.02-.15,0-.29.05-.43,10.14-27.51,20.28-57.53,30.42-90.05,14.65-46.95,34.08-92.12,58.3-135.51,4.81-8.64,10.93-16.63,18.36-23.98,18.82-18.65,35.12-33.28,48.22-50.96,28.72-38.75,45.58-84.09,52.41-132.29,1.74-12.33,7.04-14.7,15.88-20.54,124.59-82.15,243.63-166.22,348.74-233.72,9.74-6.27,17.19-15.98,8.74-26.91-6.83-8.84-16.01-1.41-22.96,2.13-10.79,5.49-20.26,10.61-28.41,15.36-1.42.82-3.2.65-4.43-.44-177.82-157.87-360.76-315.84-548.82-473.91-35.73-30.05-60.92-50.88-75.55-62.51-41.13-32.66-62.58-49.76-64.37-51.27s-4.43-2.66-7.9-3.42c-.89-.2-1.53-.99-1.52-1.92v-82.76c0-.77.43-1.48,1.11-1.82,20.43-10.16,41.6-14.16,63.51-12.01,14.07,1.36,32.02,5.59,46.07,4.72,24.78-1.55,52.8-14.41,57.4-41.05.18-1.08-.54-2.11-1.62-2.29-.24-.04-.49-.04-.73.01-11.66,2.33-23.59,3.05-35.8,2.18-13.2-.92-25-6.76-33.67-15.11-17.05-16.47-28.29-29.54-51.71-28.41-10.11.48-24.76,1.48-43.96,3-.99.08-1.85-.64-1.93-1.61v-.2c.36-13.71.22-23.46-.41-29.26-1.11-10.32-5.82-16.26-14.12-17.82-12.33-2.3-21.65,8.09-21.72,19.48-.44,69.58-.79,133.77-1.07,192.6,0,.49-.41.89-.9.89-.06,0-.13,0-.19-.02-14.61-3.31-29.32-8.79-44.13-16.44-8.54-4.41-21.18-13.78-37.91-28.1-20.91-17.87-47.29-39.54-79.13-65.01-.74-.6-1.21-1.48-1.28-2.42-3.63-46.72-12.93-90.44-40.47-128.39-.31-.44-.2-1.04.24-1.35.16-.11.36-.18.56-.17,4.3.08,9.21.35,14.75.8,15.09,1.21,14.99-17.41.92-19.57-25.88-3.97-45.65-7.22-59.29-9.74-8.19-1.5-13.75-3.4-16.71-5.69-23.64-18.33-54.19-42.98-91.65-73.97-1.46-1.21-2.31-3.02-2.33-4.94-.15-25.8-.12-46.45.07-61.95.15-13.2.1-29.54-15.86-31.02-1.84-.17-3.58-.21-5.19-.12h0l-.04.06ZM885.23,115.92c.2,0,.39.08.54.21l62.54,53.07c.38.31.44.88.12,1.26-.21.25-.53.37-.85.31l-62.54-10.12c-.43-.07-.75-.44-.75-.88v-42.97c0-.49.41-.89.9-.89h.04ZM1079.24,358.89c.25,0,.49.09.68.25l86.32,73.27c.28.27.28.72.01.99-.19.2-.48.26-.74.17-14.66-6.62-30.46-11.85-47.4-15.67-6.33-1.44-11.17-.2-14.53,3.7-11.02,12.81,9.52,19.81,18.87,22.11.94.23,1.7.91,2.03,1.82,4.78,12.92,9.78,26.71,14.99,41.39,30.83,86.63,27.71,181.11-13.27,264.07-6.42,12.98-11.75,22.31-13.23,29.84-.11.58.27,1.14.84,1.25.2.04.42.02.61-.06,39.07-15.48,81.52-23.44,127.32-23.88.83,0,1.5.67,1.5,1.5h0v83.32c0,.72-.6,1.3-1.32,1.3-.06,0-.12,0-.19-.01-33.97-4.89-74.66-11.52-122.07-19.88-3.39-.6-8.18-1.25-14.39-1.96-9.78-1.09-18.09-2.95-23.88-.68-2.88,1.13-4.3,4.52-3.22,7.7,4.09,12.11,17,16.64,28.68,19.38,1.64.4,3.03,1.5,3.8,3,33.42,65.51,46.07,135.25,37.93,209.24-6.39,58.2-29.55,118.94-68.26,165.83-1.23,1.5-1.98,2.85-2.28,4.04-.28,1.19.46,2.37,1.66,2.65.31.07.64.08.96.01,13.01-2.71,24.91-5.21,35.68-7.51,27.85-5.93,54.09-10.32,78.71-13.2.66-.07,1.26.4,1.34,1.05.02.15,0,.31-.04.45-8.12,29.87-17.11,64.15-26.98,102.84-4.1,16.15-7.77,32.32-11,48.53-.3,1.41-1.41,2.51-2.83,2.79-14.35,2.71-34.39,8.18-60.11,16.4-3.15,1-5.71,2.88-7.68,5.64-12.45,17.49-21.55,29.87-30.78,40.45-16.84,19.31-38.52,32.24-65.03,38.78-32.87,8.11-68.35,11.16-102.04,14.99-.37.04-.71-.22-.75-.58v-160.01c0-.81.64-1.47,1.45-1.5,12.13-.39,28.97.87,50.53,3.76,46.7,6.27,91.57,25.55,125.48,58.76.46.44,1.2.43,1.64-.04.02-.02.04-.04.05-.06,4.8-5.72,8.16-12.45,11.67-18.72,20.22-36.23,35.31-75.42,41.7-115.74.21-1.31-.67-2.54-1.98-2.75-.43-.07-.86-.02-1.26.14-17.51,6.66-42.26,12.47-56.09-2.59-12.86-14,5.65-37.25,15.43-51.8,19.79-29.5,33.21-62.42,43.38-99.08,1.7-6.07,2.18-10.64,1.45-13.71-1.52-6.39-4.91-15.56-10.17-27.49-7.65-17.33-15.87-33.7-24.64-49.14-.28-.48-.12-1.11.36-1.39.18-.11.4-.16.61-.14,7.51.53,11.99.25,18.87-.96,5.57-1,7.86-5.61,6.85-13.83-.9-7.51-4.83-11.7-11.77-12.59-111.52-14.4-183.33-23.59-215.41-27.56-.37-.04-.66-.36-.65-.75v-97.97c0-.45.36-.83.82-.83h.1c16.23,1.84,30.26,4,42.1,6.47,48.13,9.99,89.49,32.3,124.06,66.92.86.86,2.25.86,3.12,0,.11-.11.21-.24.3-.37,10.54-16.39,19-33.16,25.38-50.3,1.17-3.17-.33-6.7-3.42-8.04-14.06-6.14-21.79-17.03-23.17-32.7-1.96-22.02,21.29-30.62,29.38-46.94,6.89-13.87,13.94-28.01,21.12-42.43,1.68-3.37,2.19-7.55,1.55-12.52-6.95-53.89-22.72-105.09-52.19-150.16-.19-.32-.1-.74.2-.93.17-.11.38-.13.57-.06,7.1,2.69,21,4.89,23.52-5.6,3.15-13.15-16.39-15.14-25.16-16.61-66.35-11.22-122.32-20.34-167.92-27.35-.28-.04-.49-.27-.49-.55v-38.27c0-.71.59-1.28,1.31-1.28h8.67c2.66,0,4.82-2.17,4.82-4.84v-19.59c0-1.38-1.1-2.5-2.47-2.5h-8.07c-1.77,0-3.2-1.43-3.2-3.2h0v-29.62c0-.39.31-.7.7-.71h.03c52.36,1.86,97.81,19.9,136.34,54.13,10.56,9.38,15.88,14.12,15.96,14.2.65.55,1.63.48,2.19-.18.03-.04.06-.08.09-.12,2.99-4.26,5.45-8.52,7.38-12.79,17.42-38.14,26.72-78.92,27.88-122.33.02-.57.49-1.02,1.06-1.02h0l.03-.04ZM1297.98,489.18c.43.02.84.19,1.16.47,2.42,2.12,20.74,18.05,54.93,47.81,12.89,11.22,24.39,23.75,34.51,37.57,47,64.07,89.68,134.19,128.05,210.35,22.7,45.08,39.94,81.91,51.71,110.49,15.26,37.03,24.9,67.02,37.03,107.78.18.52-.11,1.08-.64,1.25-.44.14-.92-.04-1.17-.43-18.16-28.03-36.31-58.8-54.42-92.3-54.93-101.6-113.83-201.05-175.28-299.38-23.78-38.05-55.12-81.91-73.05-107.37-3.36-4.78-4.97-9.57-4.84-14.36.02-1.06.89-1.9,1.95-1.88h.06ZM1280.12,758.78h.16c25.65,2.64,52.46,5.94,74.31,16.08,21.31,9.88,39.43,25.33,54.57,42.97,6.15,7.17,12.07,13.76,17.75,19.79.52.55,1.4.58,1.95.05.11-.11.21-.23.28-.37l18.72-35.65c.43-.8,1.43-1.1,2.23-.66.23.13.43.3.58.52,60.19,89.47,110.15,182.37,159.35,282.4,23.95,48.68,46.62,92.88,68.01,132.58.46.85.13,1.93-.73,2.4-33.94,18.78-65.2,36.38-93.78,52.8-8.61,4.96-17.65,8.62-27.12,10.97-26.45,6.57-105.03,24.07-235.73,52.51-16.68,3.63-29.3,6.07-37.86,7.31-.65.09-1.25-.36-1.34-1.01,0-.06-.01-.12-.01-.18v-133.11c0-.85.69-1.54,1.55-1.55,45.82-.68,87.65,10.59,125.46,33.81,4.41,2.71,15.47,11.15,33.18,25.31.54.43,1.32.35,1.77-.17,3.15-3.68,6.48-8.91,9.98-15.7,56.99-110.59,56.16-237.96-5.7-345.47-.37-.62-.16-1.42.47-1.79.27-.16.58-.21.88-.17,8.16,1.33,24.51,4.55,26.96-7.58,1.94-9.59-4.39-14.14-13.16-15.69-61.83-10.95-122.55-20.68-182.18-29.19-.93-.14-1.62-.92-1.62-1.84v-88.26c0-.6.47-1.1,1.08-1.12h0ZM500.71,999c.06,0,.13,0,.19.02l22.96,3.71c.79.12,1.34.86,1.22,1.65,0,.02,0,.04-.01.06l-15.53,77.33c-.14.68-.74,1.17-1.43,1.16h-7.46c-.8,0-1.45-.65-1.45-1.45v-81.04c0-.8.66-1.45,1.46-1.45h.05ZM1852.06,1047.33c16.3-.92,32.76-.91,49.38.03,14.75.85,43.25,3.87,55.22,15.79.61.6.61,1.59,0,2.2-.1.1-.22.19-.34.26-41.46,22.77-96.96,52.86-166.48,90.27-29.02,15.62-60.91,34.78-85.72,47.91-.9.49-2.03.18-2.57-.7-12.09-19.55-22.34-37.56-30.76-54.03-1.7-3.29-3.03-6.31-4-9.04-.77-2.13-.6-4.49.48-6.49,2.97-5.52,6.7-10.78,11.19-15.79,33.81-37.61,75.47-56.15,125.19-64.84,15.97-2.79,32.1-4.65,48.4-5.58h.01ZM1241.79,1207.21c.51.02.92.44.91.95v141.39c.01.46-.31.85-.75.95l-63.92,13.69c-.51.11-1.01-.22-1.12-.73-.03-.13-.03-.27,0-.41l35.38-152.2c.09-.39.42-.69.82-.73l28.53-2.9h.15ZM59.83,1320.34c36.86-.68,76.46-.7,111.22,5.35,8.41,1.45,19.96,4.64,34.64,9.56.55.17.92.68.92,1.26v33.3c-.01.82-.68,1.47-1.5,1.46-.16,0-.31-.03-.46-.08-49.13-17.03-96.34-32.91-141.62-47.62-1.05-.34-2.25-1.06-3.59-2.18-.26-.22-.29-.6-.07-.85.11-.14.28-.22.46-.22v.02ZM844.29,1324.12c.68.03,1.21.59,1.21,1.26v163.2c0,.65-.49,1.2-1.14,1.26l-72.51,7.37c-.69.07-1.31-.43-1.39-1.12-.02-.15,0-.29.03-.43l42.8-167.55c.13-.51.57-.89,1.09-.95l29.74-3.03h.18-.01ZM791.21,1331.7c.84.03,1.5.73,1.48,1.57,0,.1-.02.2-.04.3l-5.91,25.38c-.14.64-.68,1.12-1.33,1.19l-25.84,2.61c-.84.09-1.59-.52-1.68-1.35-.02-.23,0-.46.08-.68l9.15-25.7c.19-.56.7-.96,1.29-1.02l22.6-2.3c.07,0,.14-.01.21,0h0ZM744.87,1338.95c.69-.05,1.3.47,1.35,1.17.01.17-.01.34-.07.51l-8.79,24.68c-.17.46-.58.78-1.06.82l-24.51,2.52c-.69.07-1.31-.43-1.38-1.13-.02-.19,0-.39.07-.57l7.7-21.7c.15-.41.49-.71.92-.8l25.6-5.47c.06-.01.12-.02.18-.03h0ZM1539.58,1339.89c1.43-.07,2.75-.05,3.96.05,1.78.15,2.86.42,3.25.83,1.41,1.38,1.43,3.63.05,5.03-.28.29-.61.53-.97.7-6.7,3.25-14.49,6.21-23.37,8.89-113.87,34.3-228.3,62.96-343.32,85.98-20.39,4.07-53.89,12.55-66.78,3.46-.83-.58-1.04-1.73-.46-2.56.14-.19.31-.36.5-.49,2.33-1.52,5.03-2.62,8.12-3.32,136.92-31.15,256.23-59.17,357.92-84.07,14.76-3.62,29.85-7.51,45.27-11.67,6.26-1.7,11.54-2.64,15.83-2.84h0ZM437.61,1339.91h25.28c.45,0,.82.37.82.82v85.93c0,.45-.37.82-.82.83h-.07l-41.83-3.39c-.45-.05-.78-.45-.74-.9v-.06l16.54-82.57c.08-.38.41-.65.8-.66h.02ZM417.82,1343.13c.47.01.84.4.83.87,0,.06,0,.12-.02.18l-17.95,77.14c-.09.38-.43.65-.82.65h-16.4c-.47.01-.86-.36-.87-.83,0-.06,0-.13.02-.19l15.09-75.2c.07-.37.38-.64.75-.68l19.25-1.94h.12ZM780.2,1376.07c.45-.04.85.29.9.74,0,.09,0,.19-.02.28l-8.72,34.15c-.09.33-.38.58-.72.61l-27.37,2.81c-.45.04-.85-.3-.89-.75,0-.09,0-.18.02-.27l8.72-34.15c.09-.34.38-.58.73-.61l27.37-2.81h-.02ZM732.3,1382.01c.71.03,1.26.63,1.23,1.33,0,.12-.03.25-.07.36l-11.77,33.13c-.16.46-.58.8-1.06.85l-28.92,2.95c-.71.07-1.33-.44-1.41-1.15-.02-.19,0-.39.07-.57l11.77-33.11c.16-.46.58-.79,1.07-.85l28.92-2.96h.17v.02ZM766.77,1428.8c.4.02.71.35.7.75,0,.06-.01.11-.03.17l-8.79,34.37c-.08.29-.33.5-.63.53l-32.38,3.3c-.4.04-.75-.26-.79-.65-.01-.11,0-.21.04-.31l12.33-34.73c.09-.27.33-.46.61-.49l28.85-2.93h.1,0ZM716.56,1434.08c.63.02,1.12.55,1.1,1.18,0,.11-.02.22-.06.32l-11.89,33.47c-.15.42-.53.71-.97.75l-31.99,3.27c-.63.06-1.18-.4-1.24-1.02-.02-.16,0-.32.06-.48l11.89-33.5c.15-.42.53-.71.97-.75l31.99-3.25h.15-.01ZM243.46,1465.15h.52l20.66,1.67c1.85.16,3.33,1.61,3.51,3.46l3.13,30.49c.21,2.12-1.34,4-3.46,4.21-.23.02-.46.02-.69,0l-20.66-1.67c-1.85-.15-3.33-1.61-3.51-3.46l-3.12-30.49c-.21-2.12,1.34-4,3.45-4.21.06,0,.11,0,.17-.01h0ZM314.6,1475.82c6.35.08,13.33.53,20.95,1.35,3.58.39,5.62,2.71,6.1,6.98,1.91,16.97,3.29,27.16,4.14,30.56.19.73-.25,1.47-.97,1.65-.19.05-.39.06-.58.02l-26.59-4.29c-1.05-.17-1.87-1.03-1.98-2.1l-3.25-31.8c-.12-1.18.76-2.24,1.95-2.36.07,0,.15-.01.22-.01h.01ZM752.91,1482.13c.69.03,1.23.62,1.2,1.32,0,.08-.02.16-.03.24l-3.3,14.14c-.12.52-.56.91-1.09.97l-32.16,3.29c-.69.06-1.3-.45-1.36-1.14-.01-.14,0-.27.03-.41l3.29-14.14c.12-.52.56-.91,1.09-.97l32.16-3.29h.17ZM420.05,1484.78c1.87-.07,3.47,1.32,3.66,3.17l3.27,31.82c.2,1.94-1.21,3.68-3.15,3.88-.13.01-.26.02-.38.02h-26.64c-1.81,0-3.33-1.37-3.51-3.17l-3.15-30.83c-.2-1.94,1.21-3.68,3.15-3.88.08,0,.16-.01.23-.02l26.52-.99ZM699.27,1487.12c.86.03,1.53.74,1.5,1.6,0,.16-.03.32-.09.47l-4.84,13.63c-.21.6-.77,1.02-1.4,1.05l-32.14,1.18c-.86.02-1.57-.66-1.58-1.51,0-.18.02-.37.09-.54l4.07-11.5c.2-.56.71-.96,1.31-1.02l32.89-3.34c.07,0,.14-.01.21,0h0l-.02-.02ZM476.05,1493.86h27.3c1.21,0,2.22.92,2.35,2.13l3.37,33.06c.08.85-.53,1.61-1.37,1.69h-.06c-11.5.78-20.17.07-26.01-2.11-4.53-1.7-3.73-7.19-4.19-10.36-1.78-12.08-2.71-19.74-2.79-22.99-.01-.78.61-1.42,1.38-1.43h.02ZM1176.87,1528.85c3.35.07,6.88.44,10.59,1.12,1.5.28,2.49,1.72,2.22,3.21-.15.81-.65,1.51-1.37,1.9-6.83,3.78-17.49,7.31-31.99,10.59-24.24,5.49-46.69,10.08-67.36,13.78-97.46,17.41-190.1,29.69-277.92,36.84-13.64,1.11-42.77,3.31-87.39,6.58-7.51.55-15.05.89-22.62,1.02-9.86.17-20.46,2.2-30.15,2.03-10.67-.19-22.58-.01-35.72.53-52.15,2.21-102.93,2.37-152.32.48-12.5-.48-21.72-.73-27.68-.75-14.94-.07-25.68-1.58-42.68-2.79-40.3-2.86-78.69-7.15-116.54-15.24-8.96-1.91-16.47-5.13-19.57-13.73-.29-.85.16-1.77,1.01-2.06.25-.09.52-.11.78-.07,32.26,5.68,65.17,9.4,98.74,11.14,34.8,1.79,53.72,3.03,83.99,3.22,60.92.39,111.44.35,151.54-.12,15.38-.17,35.55-1.89,54.91-2.3,15.82-.34,28.15-.89,36.98-1.65,2.42-.21,8.31-.69,17.66-1.43,1.89-.15,14.15-.99,36.79-2.55,53.24-3.62,106.97-8.27,161.19-13.97,86.21-9.07,168.68-20.77,247.43-35.1,2.98-.54,6.14-.78,9.48-.71h0v.03ZM1039.73,1818.86c30.48.83,57.71,5.96,85.68,18.43,22.79,10.15,46.82,23.56,71.23,33.23,44.61,17.65,90.04,28.67,136.28,33.06,10.79,1.03,21.48.48,32.07-1.67.44-.11.89.16.99.61.08.35-.06.71-.37.89-20.41,14.11-42.85,21.7-67.33,22.77-45.61,1.97-89-4.76-130.16-20.2-19.75-7.41-39.67-15.77-59.77-25.07-19.46-8.98-38.17-15.27-56.14-18.87-35.89-7.17-71.52-6.15-108.53-7.1-21.17-.53-52.7-4.72-67.86-18.72-.32-.28-.35-.77-.07-1.09.16-.18.4-.28.65-.26,20.49,1.55,40.16.43,59.02-3.34,29.09-5.81,49.07-10.99,72.59-12.18,11.03-.56,21.55-.76,31.71-.49h.01Z"/>
</svg>