<?xml version="1.0" encoding="UTF-8"?>
<svg id="Layer_1" xmlns="http://www.w3.org/2000/svg" version="1.1" viewBox="0 0 524.77 440.22">
  <!-- Generator: Adobe Illustrator 30.3.0, SVG Export Plug-In . SVG Version: 2.1.3 Build 182)  -->
  <g id="Layer_11" data-name="Layer_1">
    <g>
      <path d="M247.41,25.12l-26.67-22.06c-2.33-2.14-5.67-3.06-9-3.06h-41.34c-3.33,0-6.33,1.84-7,4.9-.33,1.84.33,3.68,1.67,4.9,1.33,1.53,3.33,2.14,5,2.14h13.34v3.06l-6,4.6c-8-3.68-17.67-.92-22,6.43-3.33-3.37-8-5.21-13-4.9s-9.33,2.45-12.33,6.13c-3-3.98-8-6.13-13.34-6.13s-10.33,2.14-13.34,6.13c-3-3.98-8-6.13-13.34-6.13s-10.33,2.14-13.34,6.13c-3.33-4.29-8.67-6.43-14.34-6.13-5.67.31-10.67,3.37-13.34,7.97-4.33-4.29-10.67-5.82-16.67-4.29s-10.67,6.13-11.67,11.64h-.67c-6.33,0-12,3.37-15,8.58-2.67,5.21-2.33,11.34,1.67,15.93C2.03,64.02-.3,69.23.03,74.44c.33,5.21,4,9.8,9,12.26-3,4.6-3,10.72-.33,15.32,3,5.21,8.67,8.27,14.67,8.27,1,0,2.33,0,3.33-.31v52.39c0,5.21,4.33,9.19,10,9.19s10-3.98,10-9.19v-44.12c5.67,2.14,12,1.53,16.67-1.84,2.67,3.37,6.67,5.52,11,6.13,4.33.61,9-.61,12.33-3.06,2.67,3.37,6.67,5.52,11,6.13,4.33.61,9-.61,12.33-3.06,2.67,3.37,6.67,5.52,11,6.13,4.33.61,9-.61,12.33-3.06,2.67,3.37,6.67,5.52,11,6.13,4.33.61,9-.61,12.33-3.06v33.7c0,5.21,4.33,9.19,10,9.19s10-3.98,10-9.19v-34.93c5-2.14,8.67-6.43,9.67-11.34,5.67,1.23,11.67-.31,15.67-4.29s5.33-9.5,3.67-14.71c4.67-1.53,8-4.9,9.67-9.19s1-8.89-1.33-12.87c5-2.45,8.33-6.74,9-11.64.67-4.9-1.33-10.11-5.67-13.48,2-4.29,2.67-7.05,2.67-7.05h23c5.33,0,9.67-3.37,10.33-8.27.33-4.29-6-9.5-6-9.5h.04Z"/>
      <path d="M60.05,162.39c0,5.21,4.33,9.19,10,9.19s10-3.98,10-9.19v-35.24l-20-1.53v36.77Z"/>
      <path d="M123.39,162.39c0,5.21,4.33,9.19,10,9.19s10-3.98,10-9.19v-26.96l-20-1.53v28.5h0Z"/>
    </g>
  </g>
  <g id="Layer_1_copy">
    <g>
      <path d="M293.77,293.76l-26.67-22.06c-2.33-2.14-5.67-3.06-9-3.06h-41.34c-3.33,0-6.33,1.84-7,4.9-.33,1.84.33,3.68,1.67,4.9,1.33,1.53,3.33,2.14,5,2.14h13.34v3.06l-6,4.6c-8-3.68-17.67-.92-22,6.43-3.33-3.37-8-5.21-13-4.9s-9.33,2.45-12.33,6.13c-3-3.98-8-6.13-13.34-6.13s-10.33,2.14-13.34,6.13c-3-3.98-8-6.13-13.34-6.13s-10.33,2.14-13.34,6.13c-3.33-4.29-8.67-6.43-14.34-6.13-5.67.31-10.67,3.37-13.34,7.97-4.33-4.29-10.67-5.82-16.67-4.29s-10.67,6.13-11.67,11.64h-.67c-6.33,0-12,3.37-15,8.58-2.67,5.21-2.33,11.34,1.67,15.93-4.67,3.06-7,8.27-6.67,13.48.33,5.21,4,9.8,9,12.26-3,4.6-3,10.72-.33,15.32,3,5.21,8.67,8.27,14.67,8.27,1,0,2.33,0,3.33-.31v52.39c0,5.21,4.33,9.19,10,9.19s10-3.98,10-9.19v-44.12c5.67,2.14,12,1.53,16.67-1.84,2.67,3.37,6.67,5.52,11,6.13s9-.61,12.33-3.06c2.67,3.37,6.67,5.52,11,6.13s9-.61,12.33-3.06c2.67,3.37,6.67,5.52,11,6.13s9-.61,12.33-3.06c2.67,3.37,6.67,5.52,11,6.13s9-.61,12.33-3.06v33.7c0,5.21,4.33,9.19,10,9.19s10-3.98,10-9.19v-34.93c5-2.14,8.67-6.43,9.67-11.34,5.67,1.23,11.67-.31,15.67-4.29s5.33-9.5,3.67-14.71c4.67-1.53,8-4.9,9.67-9.19s1-8.89-1.33-12.87c5-2.45,8.33-6.74,9-11.64.67-4.9-1.33-10.11-5.67-13.48,2-4.29,2.67-7.05,2.67-7.05h23c5.33,0,9.67-3.37,10.33-8.27.33-4.29-6-9.5-6-9.5h.04Z"/>
      <path d="M106.42,431.03c0,5.21,4.33,9.19,10,9.19s10-3.98,10-9.19v-35.24l-20-1.53v36.77Z"/>
      <path d="M169.76,431.03c0,5.21,4.33,9.19,10,9.19s10-3.98,10-9.19v-26.96l-20-1.53v28.5h0Z"/>
    </g>
  </g>
  <g id="Layer_1_copy_2">
    <g>
      <path d="M518.8,108.06l-26.67-22.06c-2.33-2.14-5.67-3.06-9-3.06h-41.34c-3.33,0-6.33,1.84-7,4.9-.33,1.84.33,3.68,1.67,4.9,1.33,1.53,3.33,2.14,5,2.14h13.34v3.06l-6,4.6c-8-3.68-17.67-.92-22,6.43-3.33-3.37-8-5.21-13-4.9s-9.33,2.45-12.33,6.13c-3-3.98-8-6.13-13.34-6.13s-10.33,2.14-13.34,6.13c-3-3.98-8-6.13-13.34-6.13s-10.33,2.14-13.34,6.13c-3.33-4.29-8.67-6.43-14.34-6.13-5.67.31-10.67,3.37-13.34,7.97-4.33-4.29-10.67-5.82-16.67-4.29s-10.67,6.13-11.67,11.64h-.67c-6.33,0-12,3.37-15,8.58-2.67,5.21-2.33,11.34,1.67,15.93-4.67,3.06-7,8.27-6.67,13.48.33,5.21,4,9.8,9,12.26-3,4.6-3,10.72-.33,15.32,3,5.21,8.67,8.27,14.67,8.27,1,0,2.33,0,3.33-.31v52.39c0,5.21,4.33,9.19,10,9.19s10-3.98,10-9.19v-44.12c5.67,2.14,12,1.53,16.67-1.84,2.67,3.37,6.67,5.52,11,6.13,4.33.61,9-.61,12.33-3.06,2.67,3.37,6.67,5.52,11,6.13,4.33.61,9-.61,12.33-3.06,2.67,3.37,6.67,5.52,11,6.13,4.33.61,9-.61,12.33-3.06,2.67,3.37,6.67,5.52,11,6.13,4.33.61,9-.61,12.33-3.06v33.7c0,5.21,4.33,9.19,10,9.19s10-3.98,10-9.19v-34.93c5-2.14,8.67-6.43,9.67-11.34,5.67,1.23,11.67-.31,15.67-4.29s5.33-9.5,3.67-14.71c4.67-1.53,8-4.9,9.67-9.19s1-8.89-1.33-12.87c5-2.45,8.33-6.74,9-11.64.67-4.9-1.33-10.11-5.67-13.48,2-4.29,2.67-7.05,2.67-7.05h23c5.33,0,9.67-3.37,10.33-8.27.33-4.29-6-9.5-6-9.5h.04Z"/>
      <path d="M331.45,245.33c0,5.21,4.33,9.19,10,9.19s10-3.98,10-9.19v-35.24l-20-1.53v36.77Z"/>
      <path d="M394.79,245.33c0,5.21,4.33,9.19,10,9.19s10-3.98,10-9.19v-26.96l-20-1.53v28.5h0Z"/>
    </g>
  </g>
</svg>