<?xml version="1.0" encoding="UTF-8"?>
<svg id="Layer_1" xmlns="http://www.w3.org/2000/svg" version="1.1" xmlns:cc="http://creativecommons.org/ns#" xmlns:dc="http://purl.org/dc/elements/1.1/" xmlns:inkscape="http://www.inkscape.org/namespaces/inkscape" xmlns:rdf="http://www.w3.org/1999/02/22-rdf-syntax-ns#" xmlns:sodipodi="http://sodipodi.sourceforge.net/DTD/sodipodi-0.dtd" xmlns:svg="http://www.w3.org/2000/svg" viewBox="0 0 920.77 1025">
  <!-- Generator: Adobe Illustrator 30.3.0, SVG Export Plug-In . SVG Version: 2.1.3 Build 182)  -->
  <defs>
    <style>
      .st0 {
        opacity: .61;
      }

      .st1 {
        fill: #860b17;
      }
    </style>
  </defs>
  <g id="Layer_11" class="st0" inkscape:export-filename="/home/michele/Documentos/berridesign/_MATERIALE/_production/_Vari/Ouroboros/Ouroboros/Ouroboros.png" inkscape:export-xdpi="400" inkscape:export-ydpi="400" inkscape:version="1.1.2 (76b9e6a115, 2022-02-25)">
    <sodipodi:namedview id="namedview77" bordercolor="#666666" borderopacity="1" gridtolerance="10" guidetolerance="10" inkscape:current-layer="Layer_1" inkscape:cx="776.61291" inkscape:cy="730.64517" inkscape:document-rotation="0" inkscape:pagecheckerboard="0" inkscape:pageopacity="0" inkscape:pageshadow="2" inkscape:window-height="1029" inkscape:window-maximized="1" inkscape:window-width="1920" inkscape:window-x="0" inkscape:window-y="0" inkscape:zoom="0.41333333" objecttolerance="10" pagecolor="#ffffff" showgrid="false" showguides="false"/>
    <path id="path11531" class="st1" d="M486.44.05c-55.91,43.29-90.5,91.47-100.18,145.26-43,24.47-122.84,46.62-152.79,52.22-27.21,5.09-36.36,66.2.89,110.44,22.25-48.45,46.31-48.77,67.35-31.08,3.82-11.91,7.2-24.05,21.99-28.45,17.77-4.53,25.21,9.05,33.9,20.88l12.44-25.38c11.62-22.11,35.13-10.67,51.27,6.44,13.91,13.4,2.68,54.98-25.2,49.03-7.04-4.1-10.64-11.01-16-23.16-5.67,16.14-16.07,41.8-30.53,24.85l-20.98-28.57c-2.09,10.05-1.13,14.08-6.27,30.18-17.08,28.51-41.9-12.06-52.51-26.08l-15.62,49.39c57.67,38.76,204.86,37.11,276.01-18.94,1.36-1.08,2.64-2.33,3.86-3.74,64.03,1.34,126.99,23.19,172.5,70.54,232.19,261.55-174.24,712.41-505.67,420.92-87.93-96.66-122.44-194.28-113.69-370.45,16.43,9.93,32.55,21.95,48.47,35.01-11.64-78.03,22.17-132.39,55.69-186.88-38.02,3.12-70.49,14.52-98.88,31.97-36.51,22.45-66.28,54.94-92.49,92.75,17.9-.28,35.21,3.29,52.05,9.67l1.43.67c-11.36,28.02-19.47,57.42-24.62,87.15-33.38,167.18,42.75,346.42,180.21,445.16,144.77,107.95,354.34,113.2,505.91,16.07,153.82-104.2,228.42-278.67,199.75-476.91-33.27-169.41-173.99-305.5-339.64-344.87l6.04-26.09c27.2-44.88,89.8-51.94,154.69-32.16-25.05-22.08-53.26-36.29-82.67-43.24h0c-61.18-14.46-127.54,2.59-181.43,46.03,1.77-26.94,7.38-52.99,14.71-78.68h0v.04h.01ZM474.47,163.74c.23,0,.12.19.07.57-.05.36-.15.9-.2,1.17-1.82,10.43-6.22,20.45-13.07,28.56-6.84,8.15-16.22,14.18-26.52,16.85-4.17.96-8.46,1.23-12.72,1.44-2.24.09-4.69.15-7.03.04-3.04-.07-6-.76-8.94-1.48-4.22-1.12-8.39-2.47-12.44-4.14-3.36-1.55-6.58-3.37-9.77-5.26.42-.31.84-.62,1.25-.93,5.48-4.05,11.01-8.03,16.88-11.48,1.03-.61,2.15-1.24,3.13-1.78,5.14-2.85,10.37-5.49,15.7-7.97,6.83-3.14,13.76-6.17,20.98-8.32,3.25-.97,6.65-1.85,9.98-2.67,7.39-1.77,14.83-3.37,22.34-4.51h0c.16-.04.27-.07.35-.07h.01v-.02Z" sodipodi:nodetypes="scccccccccccccccsccccccccccccccccccccsscccccccccccccccccccc"/>
  </g>
</svg>