<?xml version="1.0" encoding="UTF-8"?>
<svg id="Layer_1" xmlns="http://www.w3.org/2000/svg" version="1.1" viewBox="0 0 476.19 477.21">
  <!-- Generator: Adobe Illustrator 30.3.0, SVG Export Plug-In . SVG Version: 2.1.3 Build 182)  -->
  <path d="M306.71,0s.06.07.09.11l-34.92,32.43,36.9-3.75-15.4,30.12,38.05-16.08c26.15,69.96.62,154.28-52.55,166.26-6.55-25.37-34.13-37.95-36.05-57.38.3.09.6.19.91.27,4.68,1.25,9.61,1.23,14.27-.07l25.14,22.89,20.65-16.38c-7.36,2.84-28.59-1.4-33.25-13.92,3.25-3.33,5.59-7.43,6.79-11.92.48-1.81.76-3.63.86-5.45l11.52,22.78,5.22-16.94c7.62,5.57,12.47,13.6,11.49,21.14l16.67-29.4-72.14-29.56-58.06-48.03,17.1,31.25-48.21-19.75,35.14,31.24c-40.6,28.16-22.09,85.04-1.8,119.29-57.5-9.68-103.13-77.43-95.76-145.03l49.21-21.37-31.08-5.14,29.21-33.42-32.01,11.54c.04-.07.07-.13.11-.2C-53.54,81.85-1.6,382.52,51.09,433.51c-.19-1.32-.36-2.58-.54-3.86-14.92-56.24-20.38-125.62-17.5-190.53,3.02-68.24,14.83-131.16,36.79-169.52l16.22,9.28c-18.89,33.01-31.4,94.56-34.35,161.06-1.94,43.86.11,90.02,6.28,132.08,6.12,1.89,15.05,9.61,27.29,23.24-4.82-13.35-6.78-26.5-6.48-38.28,20.29,41.67,67.34,69.23,104.63,62.31,22.44-4.17,41.8-12.73,57.81-24.48l7.31,15.42c-20.07,5.04-22.81,32.64-14.74,55.11,1.75-19.88,11.36-29.79,21.73-32.3-6.6,15.87-4.7,30.62-3.12,44.16,10.15-12.15,21.47-23.79,23.63-39.35,8.74,7.33,12.32,21.49,1.19,39.06,26.32-15.47,31.57-41.99,7.98-57.68l-32.07-34.3c5.92-5.55,11.24-11.6,15.95-18.07l39.28,15.78c-3.94,13.69,5.83,31.51,19.77,43.31-8.05-17.29-4.83-30.08,2.56-37.1,1.63,17.39,10.64,29.19,18.73,40.06,2.73-15.67,6.79-31.49-.21-45.99,11.02,1.56,21.2,11.57,20.34,31.88,14.36-25.31,6.11-49.7-20.74-51.52l-71.14-9.89c12.76-22.98,18.68-49.82,17.01-77.48,14.19-34.71,50.06-11.82,54.52,49.16,27.43-80.35,67.08-38.62,58.83,24.51,11.81-23.38,21.83-35.01,29.86-36.25-10.77-91.93-40.46-191.57-77.64-250.75l15.82-9.94c50.33,80.11,85.11,220.65,84.88,331.55,42.4-115.91-2.35-356.61-154.28-384.2h0ZM277.25,476.91l-.03.02-.02.05s.03-.04.04-.07h0ZM303.8,158.42h.01s-.01,0-.01,0h0ZM250.45,116.71c.89-.03,1.79.08,2.65.31,4.77,1.28,7.47,5.95,6.19,10.72-1.28,4.78-5.94,7.47-10.72,6.19-4.77-1.28-7.47-5.94-6.19-10.72.96-3.58,3.82-5.99,7.21-6.43.28-.04.57-.06.86-.07h0ZM186.65,279.59c11.88-.2,22.64,6.76,26.17,22.49,0,35.88-9.56,68.82-42.14,77.41-27.62,7.28-69.72-11.4-84.12-53.66,12.28-21.08,37.36-21.99,62.84,22.59-12.58-41.6,14.39-68.44,37.25-68.83h0Z"/>
</svg>