<?xml version="1.0" encoding="UTF-8"?>
<svg xmlns="http://www.w3.org/2000/svg" viewBox="0 0 1000 1000">
  <defs>
    <style>
      .cls-1 {
        stroke-width: 2px;
      }

      .cls-1, .cls-2 {
        fill: none;
      }

      .cls-1, .cls-2, .cls-3 {
        stroke: #231f20;
        stroke-miterlimit: 10;
      }

      .cls-4 {
        fill: #860b17;
      }

      .cls-5 {
        fill: #231f20;
        opacity: .65;
      }

      .cls-2, .cls-3 {
        stroke-width: 3px;
      }

      .cls-6 {
        fill: #f7941d;
      }

      .cls-3, .cls-7 {
        fill: #808285;
      }

      .cls-8 {
        fill: #be1e2d;
      }

      .cls-9 {
        fill: #5c5d60;
      }

      .cls-10 {
        fill: #b96f12;
      }
    </style>
  </defs>
  <g id="Wall_1" data-name="Wall 1">
    <path class="cls-3" d="M679.8,269.7c14.2,23.35,33.9,41.92,53.34,60.17,3.76,3.53,7.52,7.06,11.51,10.25,3.72,2.98,7.64,5.65,11.55,8.32,19.65,13.43,13.43,9.39,34.52,20.96l.29.47c-.8,14.45-1.09,28.94-.87,43.42l-.42,98.15-.19.14c-55.44-10.01-109.36-22.4-162.56-37.72l-.08-.25c0-49.42.34-32.48.29-46.74h-.13c-14.44-11.9-38.72-36.64-51.94-50.13v-.21c11-4.78,33.99-17.87,56.46-39.01,30.63-28.83,43.6-56.75,48.74-67.81"/>
    <path class="cls-7" d="M627.7,666.55l-79.86-3.61-.34-30.53-103.52-68.37.02-55.22,32.98-1.8-32.98-33.42v-48.79l78.93-83.14s25.45,3.1,43.12,26.07c7.1,9.23,61.11,59.12,61.11,59.12l.53,239.68Z"/>
    <polygon class="cls-7" points="415.14 581.94 393.69 593.45 285.62 511.3 414.97 509.59 415.14 581.94"/>
    <polygon class="cls-7" points="346.87 656.44 81.05 662.94 82.26 591.77 346.87 593.83 346.87 656.44"/>
    <polygon class="cls-7" points="693.29 666.55 693.29 581.76 911.55 630.06 911.83 695.81 693.29 666.55"/>
  </g>
  <g id="side_walls" data-name="side walls">
    <polygon class="cls-9" points="627.7 666.55 627.7 510.39 659.43 557.01 678.42 575.55 693.11 581.76 693.11 666.55 627.7 666.55"/>
    <polygon class="cls-9" points="415.31 581.94 415.14 509.59 444 508.82 443.99 564.05 415.31 581.94"/>
    <polygon class="cls-9" points="443.76 425.41 444 470.79 426.5 446.2 443.76 425.41"/>
    <polygon class="cls-9" points="347.32 594.24 346.87 622.85 391.91 594.51 347.32 594.24"/>
    <polygon class="cls-9" points="346.87 656.44 346.87 622.85 443.99 564.05 547.09 632.14 547.84 662.94 346.87 656.44"/>
  </g>
  <g id="Roof_Red_1" data-name="Roof Red 1">
    <polygon class="cls-8" points="938.04 634.44 899.24 602.61 882.97 571.95 874.59 541.66 873.97 531.91 834.53 524.42 853.46 587.51 899.18 627.2 938.04 634.44"/>
    <polygon class="cls-8" points="798.39 515.43 815.51 580.2 854.66 617.78 814.76 609.33 777.98 575.55 764.91 507.87 798.39 515.43"/>
    <polygon class="cls-8" points="730.75 499.94 747.55 571.36 773.39 599.49 735.13 591.71 714.38 567.62 697.41 491.9 730.75 499.94"/>
    <polygon class="cls-8" points="712.34 585.97 690.75 581.76 668.08 562.83 648.84 538.5 627.7 505.48 628.64 474.34 659.43 483.64 685.91 563.87 712.34 585.97"/>
    <polygon class="cls-8" points="174.7 510.41 195.36 483.79 218.92 450.15 243.34 413.73 274.31 414.97 239.69 468.72 214.25 499.47 204.62 510.41 174.7 510.41"/>
    <polygon class="cls-8" points="300.45 415.1 269.56 463.73 232.08 509.89 271.8 509.89 293.7 477.53 324.03 414.25 300.45 415.1"/>
    <polygon class="cls-8" points="350.38 414.25 320.35 484.34 306.99 510.39 351.56 509.59 361.23 475.19 371.42 414.25 350.38 414.25"/>
    <polygon class="cls-8" points="390.19 414.25 399.41 508.82 473.85 505.42 433.49 459.34 404.08 414.6 390.19 414.25"/>
    <polygon class="cls-8" points="640.68 291.3 617.36 328.72 609.7 338.13 600.75 346.04 574.58 363.14 567.6 367.75 575.94 375.08 611.59 355.19 643.6 324.22 664.35 297.59 679.18 271.03 640.68 291.3"/>
    <polygon class="cls-8" points="570.39 327.02 551.02 352.21 557.7 358.21 573.55 348.69 587.29 334.49 602.42 311.42 570.83 326.84 570.39 327.02"/>
  </g>
  <g id="Roof_Red_2" data-name="Roof Red 2">
    <polygon class="cls-4" points="798.82 517.07 833.54 523.19 852.61 588.47 896.66 625.01 856.16 617.78 816.65 579.43 798.82 517.07"/>
    <polygon class="cls-4" points="730.75 499.94 764.91 507.87 777.98 575.55 813.98 609.16 774.66 600.84 747.55 571.36 730.75 499.94"/>
    <polygon class="cls-4" points="659.59 482.87 697.41 491.9 714.38 567.62 735.13 591.71 714.1 586.36 686.87 563.47 659.59 482.87"/>
    <polygon class="cls-4" points="274.31 414.97 239.69 468.72 205.35 509.59 231.18 509.89 268.5 465.04 300.11 413.73 274.31 414.97"/>
    <polygon class="cls-4" points="323.25 414.28 293.04 478.51 270.86 509.59 307.93 508.97 324.8 475.01 351.4 414.25 323.25 414.28"/>
    <polygon class="cls-4" points="371.42 415.02 360.57 478.31 351.4 509.59 399.41 508.82 389.72 413.65 371.42 415.02"/>
    <polygon class="cls-4" points="567.6 367.75 602.21 344.9 620.6 324.23 640.68 291.3 603.1 311.82 584.38 339.05 576.43 346.43 558.63 358.56 567.6 367.75"/>
    <polygon class="cls-4" points="569.38 327.53 551.02 352.21 538.31 342.94 569.38 327.53"/>
  </g>
  <g id="Orange_Roof_1" data-name="Orange Roof 1">
    <polygon class="cls-6" points="334.67 413.21 401.29 344.23 426.48 343.86 360.9 413.21 334.67 413.21"/>
    <polygon class="cls-6" points="449.28 343.32 385.34 413.21 403.65 413.65 407.7 419.27 474.82 342.33 449.28 343.32"/>
    <polygon class="cls-6" points="495.27 340.83 416.77 433.91 425.04 447.74 519.07 340.83 495.61 341.67 495.27 340.83"/>
    <polygon class="cls-6" points="102.69 508.82 92.83 535.86 82.26 556.8 69 574.49 49.36 593.16 94.93 593.16 125.11 508.97 102.69 508.82"/>
    <polygon class="cls-6" points="147.94 510.39 140.44 593.16 181.72 593.45 172.97 510.49 147.94 510.39"/>
    <polygon class="cls-6" points="201.27 510.39 227.23 593.45 280.25 593.49 229.42 510.49 201.27 510.39"/>
    <polygon class="cls-6" points="256.23 511.3 335.94 594.51 391.91 593.16 284.95 510.49 256.23 511.3"/>
  </g>
  <g id="Orange_Roof_2" data-name="Orange Roof 2">
    <polygon class="cls-10" points="125.11 509.89 94.93 593.49 140.44 593.49 147.94 509.59 125.11 509.89"/>
    <polygon class="cls-10" points="172.97 510.49 181.72 593.16 227.23 593.16 201.27 511.3 172.97 510.49"/>
    <polygon class="cls-10" points="229.42 510.49 280.25 593.49 334.67 593.83 255.38 510.41 229.42 510.49"/>
    <polygon class="cls-10" points="361.41 414.25 426.48 343.86 449.28 343.32 385.34 414.25 361.41 414.25"/>
    <polygon class="cls-10" points="474.31 341.67 408.07 418.85 416.77 433.13 495.61 341.67 474.31 341.67"/>
  </g>
  <g id="verts">
    <path class="cls-1" d="M547.51,632.41c-.03,10.14.03,20.55.33,31.36"/>
    <path class="cls-1" d="M911.55,630.06c.33,20.05.18,43.97.28,65.75"/>
    <path class="cls-1" d="M791,369.88c-.8,14.45-1.09,28.94-.87,43.42l-.61,98.29"/>
    <line class="cls-1" x1="346.87" y1="658.28" x2="346.87" y2="593.83"/>
    <path class="cls-1" d="M693.11,581.76c0,27.13,0,52.56.19,84.79"/>
    <path class="cls-1" d="M627.04,426.87c.05,14.25.66,190.26.66,239.68"/>
    <path class="cls-1" d="M414.97,507.87c0,29.09.03,44.51.34,74.06"/>
    <path class="cls-1" d="M82.47,591.77c-.06,10.57-.13,21.14-.19,31.72l-.02,41.87"/>
    <line class="cls-1" x1="444" y1="508.82" x2="444" y2="565.08"/>
    <line class="cls-1" x1="444" y1="424.81" x2="444" y2="470.79"/>
  </g>
  <g id="roof_slats" data-name="roof slats">
    <path class="cls-1" d="M204.62,510.41s32.4-36.12,41.86-51.29c9.46-15.17,28.28-44.87,28.28-44.87"/>
    <path class="cls-1" d="M231.18,509.89s32.4-36.12,41.86-51.29c9.46-15.17,28.28-44.87,28.28-44.87"/>
    <line class="cls-1" x1="360.9" y1="413.21" x2="426.48" y2="344.34"/>
    <line class="cls-1" x1="385.34" y1="413.21" x2="449.99" y2="342.54"/>
    <line class="cls-1" x1="476.13" y1="340.83" x2="407.7" y2="419.27"/>
    <line class="cls-1" x1="497.48" y1="339.85" x2="416.77" y2="433.13"/>
    <polyline class="cls-1" points="834.17 523.19 853.46 587.51 900.9 627.91"/>
    <polyline class="cls-1" points="798.39 515.43 815.51 580.2 857.51 619.02"/>
    <path class="cls-1" d="M764.91,507.87c.14.78,13.07,67.68,13.07,67.68l38.67,34.97"/>
    <polyline class="cls-1" points="730.75 499.92 747.74 572.2 775.58 601.82"/>
    <polyline class="cls-1" points="697.41 491.9 714.38 567.62 736.44 593.23"/>
    <polyline class="cls-1" points="659.43 482.39 687.07 564.05 716.92 588.69"/>
    <line class="cls-1" x1="255.38" y1="510.41" x2="334.67" y2="593.16"/>
    <line class="cls-1" x1="229.42" y1="510.49" x2="280.25" y2="593.16"/>
    <line class="cls-1" x1="201.27" y1="510.39" x2="227.23" y2="593.16"/>
    <line class="cls-1" x1="172.97" y1="509.89" x2="181.72" y2="593.49"/>
    <line class="cls-1" x1="147.94" y1="509.59" x2="140.44" y2="593.16"/>
    <path class="cls-1" d="M125.11,508.97c-1.41,2.34-30.18,84.19-30.18,84.19"/>
    <polyline class="cls-1" points="324.03 414.25 293.7 477.53 270.86 509.59"/>
    <polyline class="cls-1" points="351.4 414.25 323.1 478.9 307.93 508.97"/>
    <polyline class="cls-1" points="371.42 414.25 360.9 477.19 351.4 508.97"/>
    <line class="cls-1" x1="390.19" y1="414.25" x2="399.41" y2="508.82"/>
    <path class="cls-1" d="M642.38,289.7s-21.65,37.88-34.41,50.2c-12.76,12.32-41.06,27.86-41.06,27.86"/>
    <path class="cls-1" d="M604.65,309.4s-17.26,27.26-26.43,35.49c-9.17,8.23-21.25,13.66-21.25,13.66"/>
    <line class="cls-1" x1="572.58" y1="325.9" x2="551.73" y2="352.21"/>
  </g>
  <g id="shadows">
    <path class="cls-5" d="M679.8,269.7c-5.14,11.06-17.61,38.98-48.24,67.81-22.46,21.14-42.01,34.24-53.01,39.01l8.52,8.5,92.73-77.41,129.48,84.18,10.3-14.1c-23.08-2.01-43.73-15.81-63.37-29.24-3.91-2.67-7.82-5.35-11.55-8.32-4-3.19-7.76-6.73-11.51-10.25-19.44-18.25-39.14-36.82-53.34-60.17"/>
    <polygon class="cls-5" points="939.12 635.65 911.83 653.69 693.11 607.75 672.08 567.95 702.56 585.58 939.12 635.65"/>
    <polygon class="cls-5" points="676.44 454.95 641.72 454.95 526.62 360.82 434.83 457.86 426.5 446.2 519.59 340.83 540.24 346.05 578.54 378.97 628.59 430.43 676.44 454.95"/>
    <polygon class="cls-5" points="475.25 507.03 467.02 522.72 302.54 524.21 287.69 510.41 475.25 507.03"/>
    <polygon class="cls-5" points="390.19 594.74 359.13 615.43 67.92 612.67 49.36 593.83 390.19 594.74"/>
  </g>
  <g id="roof_strokes" data-name="roof strokes">
    <path class="cls-2" d="M679.8,269.7c14.2,23.35,33.9,41.92,53.34,60.17,3.76,3.53,7.52,7.06,11.51,10.25,3.72,2.98,7.64,5.65,11.55,8.32,19.65,13.43,40.29,27.23,63.37,29.24"/>
    <path class="cls-2" d="M575.1,376.52c11-4.78,33.99-17.87,56.46-39.01,30.63-28.83,43.6-56.75,48.74-67.81"/>
    <path class="cls-2" d="M536.15,343.86c7.74-2.78,103.05-51.97,143.65-74.16"/>
    <path class="cls-2" d="M626.88,473.61c53.19,15.32,193.13,47.81,248.57,57.81"/>
    <path class="cls-2" d="M873.97,531.91c-1.06,16.82,13.17,55.17,22.24,67,11.61,15.14,29.48,26.25,43.46,36.74-10.95-1.96-186.62-37.54-230.29-48.84-7.47-1.93-15.02-3.9-21.84-7.76-27.4-15.52-42.71-44.16-60.66-73.57"/>
    <path class="cls-2" d="M425.04,447.74c8.84-13.27,91-107.47,96.14-107.85,3.22-.24,6.43.56,9.49,1.65,12.44,4.45,22.91,13.7,32.86,23.01,8.83,8.27,17.49,16.74,25.98,25.41,13.22,13.49,26.07,27.51,40.5,39.41,14.44,11.9,30.68,21.71,48.4,25.57"/>
    <path class="cls-2" d="M48.05,593.83c76.4-1.51,312.79,0,343.86,0"/>
    <path class="cls-2" d="M48.05,593.83c11.07-10.29,17.11-10.59,36.51-41.38,12.09-19.2,15.9-44.35,19.04-44.23,66.37,2.57,132.79,2.7,199.2,1.66,49.37-.77,124.85-.79,174.19-2.86"/>
    <path class="cls-2" d="M521.18,339.89c-28.54.96-108.52,4.17-119.89,4.33-5.91,7.2-63.79,67.31-69.47,70.03"/>
    <path class="cls-2" d="M285.62,511.3c26.42,20.62,86.89,64.03,106.28,82.53"/>
    <path class="cls-2" d="M174.7,510.41c6.51-12.48,16.98-21.77,25.69-32.53,14.98-18.51,24.78-41.5,39.84-59.92,1.29-1.58,2.67-3.16,4.45-3.97,1.68-.77,3.56-.82,5.38-.77,48.36,1.26,97.74,1.42,148.37.26,1.94-.04,3.99.04,5.65,1.13,1.62,1.06,2.6,2.94,3.62,4.68.38.66.82,1.4,1.3,2.21,10.33,17.42,42.56,69.28,67.98,85.54"/>
    <path class="cls-2" d="M443.99,564.05s43.11,31.12,64.48,45.32c21.37,14.2,45.25,26.29,45.25,26.29"/>
    <line class="cls-2" x1="443.99" y1="564.05" x2="346.87" y2="622.85"/>
  </g>
</svg>